<?xml version="1.0" standalone="no"?>
<!DOCTYPE svg PUBLIC "-//W3C//DTD SVG 1.1//EN" "http://www.w3.org/Graphics/SVG/1.1/DTD/svg11.dtd" >
<svg xmlns="http://www.w3.org/2000/svg" xmlns:xlink="http://www.w3.org/1999/xlink" version="1.1">
<metadata>
Created by FontForge 20170731 at Tue Jun  5 18:52:09 2018
 By Aleksey,,,
(c) 2015-2017 Apple Inc. All rights reserved.
</metadata>
<defs>
<font id="SFProText-RegularItalic" horiz-adv-x="0" >
  <font-face 
    font-family="SF Pro Text"
    font-weight="400"
    font-style="italic"
    font-stretch="normal"
    units-per-em="2048"
    panose-1="0 0 5 0 0 0 0 0 0 0"
    ascent="1638"
    descent="-410"
    x-height="1078"
    cap-height="1443"
    bbox="-554 -509 2871 2207"
    underline-thickness="120"
    underline-position="-610"
    slope="-12"
    unicode-range="U+0020-1F16B"
  />
<missing-glyph horiz-adv-x="2048" 
d="M-120 -494l60 284h1849l-61 -284h-1848zM-28 -62l60 284h1848l-60 -284h-1848zM64 370l60 284h1848l-60 -284h-1848zM155 802l61 284h1848l-60 -284h-1849zM247 1234l61 284h1848l-60 -284h-1849zM339 1666l60 284h1849l-61 -284h-1848z" />
    <glyph glyph-name=".notdef" horiz-adv-x="2048" 
d="M-120 -494l60 284h1849l-61 -284h-1848zM-28 -62l60 284h1848l-60 -284h-1848zM64 370l60 284h1848l-60 -284h-1848zM155 802l61 284h1848l-60 -284h-1849zM247 1234l61 284h1848l-60 -284h-1849zM339 1666l60 284h1849l-61 -284h-1848z" />
    <glyph glyph-name=".null" 
 />
    <glyph glyph-name="nonmarkingreturn" 
 />
    <glyph glyph-name="space" unicode=" " horiz-adv-x="578" 
 />
    <glyph glyph-name="exclam" unicode="!" horiz-adv-x="636" 
d="M408 1444h200l-222 -964h-166zM229 -18q-60 0 -99.5 39.5t-39.5 99.5t39.5 100t99.5 40t99 -40t39 -100t-39 -99.5t-99 -39.5z" />
    <glyph glyph-name="quotedbl" unicode="&#x22;" horiz-adv-x="895" 
d="M416 904h-160l115 539h160zM793 904h-160l115 539h160z" />
    <glyph glyph-name="numbersign" unicode="#" horiz-adv-x="1296" 
d="M604 0l133 403h-328l-133 -403h-142l132 403h-234l45 144h237l119 364h-247l47 143h247l130 389h142l-127 -389h326l130 389h143l-129 -389h249l-46 -143h-251l-121 -364h261l-45 -144h-262l-133 -403h-143zM454 544h330l121 369h-330z" />
    <glyph glyph-name="dollar" unicode="$" horiz-adv-x="1328" 
d="M757 635l-98 -458q134 0 219.5 61.5t85.5 168.5q0 84 -49 137t-158 91zM679 836l92 430h-2q-137 0 -213 -66.5t-76 -158.5q0 -71 47.5 -119.5t151.5 -85.5zM792 800l12 -4q336 -104 336 -353q0 -81 -31.5 -154.5t-90 -132.5t-152 -94.5t-209.5 -35.5q-20 0 -30 1
l-36 -172h-120l40 186q-163 35 -266 141t-108 262h168q11 -94 73.5 -161t163.5 -92l102 479l-6 2q-169 53 -250 137.5t-81 218.5q0 172 129 280.5t335 108.5q21 0 32 -1l36 172h120l-40 -187q148 -35 235.5 -134.5t87.5 -242.5h-167q-4 81 -53 141t-135 85z" />
    <glyph glyph-name="percent" unicode="%" horiz-adv-x="1880" 
d="M464 790q-125 0 -201.5 83.5t-76.5 217.5q0 154 98.5 264t247.5 110q127 0 202 -82.5t75 -214.5q0 -156 -99 -267t-246 -111zM472 922q81 0 136 71.5t55 169.5q0 79 -38.5 124.5t-102.5 45.5q-82 0 -136 -71t-54 -169q0 -80 38.5 -125.5t101.5 -45.5zM522 0h-165
l1080 1443h165zM1429 -11q-125 0 -201.5 83.5t-76.5 217.5q0 154 98.5 264t247.5 110q127 0 202 -82.5t75 -214.5q0 -156 -99 -267t-246 -111zM1437 121q81 0 136 71.5t55 169.5q0 79 -38.5 124.5t-102.5 45.5q-82 0 -136 -71t-54 -169q0 -80 38.5 -125.5t101.5 -45.5z" />
    <glyph glyph-name="ampersand" unicode="&#x26;" horiz-adv-x="1457" 
d="M550 1116q0 -89 104 -231q152 46 226.5 124.5t74.5 164.5q0 73 -51.5 116t-132.5 43q-91 0 -156 -63.5t-65 -153.5zM553 124q203 0 341 101l-322 487l-57 -21q-135 -50 -206.5 -128.5t-71.5 -174.5q0 -115 86 -189.5t230 -74.5zM1040 0l-62 96q-178 -123 -433 -123
q-133 0 -245 52.5t-177.5 145.5t-65.5 205q0 287 375 433l62 24q-116 170 -116 288q0 148 115.5 252t284.5 104q151 0 249.5 -82t98.5 -207q0 -130 -98 -239.5t-297 -176.5l291 -427q120 136 137 363l4 54h168l-5 -61q-24 -293 -212 -493l139 -208h-213z" />
    <glyph glyph-name="quotesingle" unicode="'" horiz-adv-x="518" 
d="M416 904h-160l115 539h160z" />
    <glyph glyph-name="parenleft" unicode="(" horiz-adv-x="782" 
d="M522 -307h-154q-49 110 -80.5 304t-31.5 380q0 325 126.5 622.5t332.5 506.5h192q-227 -235 -351.5 -530t-124.5 -612q0 -383 91 -671z" />
    <glyph glyph-name="parenright" unicode=")" horiz-adv-x="782" 
d="M285 1506h154q49 -110 80.5 -304t31.5 -380q0 -325 -126.5 -622.5t-332.5 -506.5h-192q227 235 351.5 530t124.5 612q0 383 -91 671z" />
    <glyph glyph-name="asterisk" unicode="*" horiz-adv-x="940" 
d="M819 809l-202 172l-44 -277h-136l74 278l-253 -134l-54 120l276 111l-224 149l91 110l201 -176l46 281h136l-78 -289l266 144l54 -122l-278 -115l216 -142z" />
    <glyph glyph-name="plus" unicode="+" horiz-adv-x="1328" 
d="M734 488l-90 -422h-162l90 422h-402l34 162h402l90 422h162l-90 -422h402l-34 -162h-402z" />
    <glyph glyph-name="comma" unicode="," horiz-adv-x="608" 
d="M71 -367h-129l216 569h191z" />
    <glyph glyph-name="hyphen" unicode="&#x2011;" horiz-adv-x="966" 
d="M146 499l35 163h656l-35 -163h-656z" />
    <glyph glyph-name="hyphen" unicode="-" horiz-adv-x="966" 
d="M146 499l35 163h656l-35 -163h-656z" />
    <glyph glyph-name="period" unicode="." horiz-adv-x="608" 
d="M189 -10q-53 0 -91.5 38.5t-38.5 91.5q0 54 38.5 92t91.5 38q54 0 92 -38t38 -92q0 -53 -38 -91.5t-92 -38.5z" />
    <glyph glyph-name="slash" unicode="/" horiz-adv-x="742" 
d="M17 -307h-150l883 1813h150z" />
    <glyph glyph-name="zero" unicode="0" horiz-adv-x="1290" 
d="M578 -34q-196 0 -313 141t-117 375q0 209 52.5 394.5t141 316.5t209.5 207.5t254 76.5q195 0 311.5 -143t116.5 -377q0 -210 -52 -395t-140 -315t-208.5 -205.5t-254.5 -75.5zM328 485q0 -169 69 -265t194 -96q123 0 229.5 111.5t169.5 304t63 416.5q0 168 -68.5 265
t-190.5 97q-123 0 -231 -112.5t-171.5 -305t-63.5 -415.5z" />
    <glyph glyph-name="one" unicode="1" horiz-adv-x="955" 
d="M391 0l260 1223h-16l-423 -262l44 206l443 276h179l-307 -1443h-180z" />
    <glyph glyph-name="two" unicode="2" horiz-adv-x="1237" 
d="M253 1067q21 182 159.5 296t337.5 114q185 0 309 -105t124 -261q0 -121 -83.5 -236t-321.5 -324l-426 -373l-4 -16h702l-34 -162h-970l29 139l615 545q191 170 249.5 247t58.5 160q0 99 -74 164t-187 65q-119 0 -203 -69t-104 -184h-177z" />
    <glyph glyph-name="three" unicode="3" horiz-adv-x="1284" 
d="M487 665l32 154h209q130 0 220 82.5t90 202.5q0 96 -74.5 155.5t-194.5 59.5q-104 0 -190 -62.5t-115 -160.5h-177q37 172 173.5 276.5t324.5 104.5q190 0 315 -101t125 -253q0 -143 -90 -246t-240 -132l-3 -16q119 -26 183 -101t64 -189q0 -209 -152 -341t-393 -132
q-205 0 -345 111.5t-141 274.5q0 10 2 32h174v-8q0 -112 89.5 -182.5t231.5 -70.5q160 0 254.5 83t94.5 224q0 104 -87 169.5t-224 65.5h-156z" />
    <glyph glyph-name="four" unicode="4" horiz-adv-x="1318" 
d="M705 0l64 299h-703l27 171q280 360 821 973h274l-209 -983h205l-34 -161h-205l-64 -299h-176zM286 471l-2 -12h520l173 817h-12q-316 -352 -679 -805z" />
    <glyph glyph-name="five" unicode="5" horiz-adv-x="1267" 
d="M598 -34q-202 0 -339.5 113.5t-137.5 278.5q0 14 2 28h178v-7q0 -113 84.5 -184t218.5 -71q159 0 257 106.5t98 274.5q0 130 -82 207t-209 77q-90 0 -165.5 -34t-126.5 -95h-178l244 783h796l-35 -161h-646l-133 -437l16 -2q110 97 273 97q180 0 305.5 -117.5
t125.5 -295.5q0 -247 -149 -404t-397 -157z" />
    <glyph glyph-name="six" unicode="6" horiz-adv-x="1305" 
d="M1181 537q0 -159 -74 -290t-203 -206t-285 -75q-218 0 -347 142t-129 383q0 108 17.5 219.5t52.5 223t92 209t130.5 172.5t174.5 118.5t218 43.5q191 0 319 -112t136 -286h-186q-10 109 -87 173.5t-198 64.5q-166 0 -285 -144t-177 -414l16 -2q69 91 169 141t215 50
q189 0 310 -115t121 -296zM707 794q-157 0 -267 -110t-110 -269q0 -130 82.5 -209.5t218.5 -79.5q152 0 257.5 113t105.5 277q0 124 -80 201t-207 77z" />
    <glyph glyph-name="seven" unicode="7" horiz-adv-x="1167" 
d="M92 0l920 1266l3 16h-737l35 161h925l-36 -167l-913 -1276h-197z" />
    <glyph glyph-name="eight" unicode="8" horiz-adv-x="1308" 
d="M1151 429q0 -202 -156 -332.5t-395 -130.5q-223 0 -365.5 106.5t-142.5 274.5q0 167 110 287.5t277 136.5l4 16q-85 41 -133 112.5t-48 157.5q0 181 140.5 300.5t352.5 119.5q189 0 317.5 -100t128.5 -248q0 -142 -87.5 -245t-230.5 -131l-4 -16q109 -41 170.5 -123
t61.5 -185zM640 680q-156 0 -258 -87.5t-102 -221.5q0 -116 88 -183t240 -67q157 0 258.5 86t101.5 220q0 113 -91 183t-237 70zM478 1045q0 -97 76 -157t198 -60q133 0 219.5 79t86.5 200q0 97 -75.5 156t-199.5 59q-135 0 -220 -77t-85 -200z" />
    <glyph glyph-name="nine" unicode="9" horiz-adv-x="1306" 
d="M675 649q157 0 267 111t110 270q0 130 -82.5 208.5t-218.5 78.5q-152 0 -257.5 -112.5t-105.5 -275.5q0 -124 80 -202t207 -78zM201 908q0 159 74 289.5t203 205t285 74.5q218 0 347 -141t129 -382q0 -92 -12 -187t-38.5 -192.5t-65 -186t-95 -166t-125 -134t-158 -89.5
t-191.5 -33q-191 0 -319 111t-136 285h186q10 -109 87 -172.5t198 -63.5q166 0 285 144t177 414l-16 2q-69 -91 -169 -141t-215 -50q-189 0 -310 116t-121 297z" />
    <glyph glyph-name="colon" unicode=":" horiz-adv-x="608" 
d="M189 -10q-53 0 -91.5 38.5t-38.5 91.5q0 54 38.5 92t91.5 38q54 0 92 -38t38 -92q0 -53 -38 -91.5t-92 -38.5zM354 764q-53 0 -91.5 38.5t-38.5 91.5q0 54 38.5 92t91.5 38q54 0 92 -38t38 -92q0 -53 -38 -91.5t-92 -38.5z" />
    <glyph glyph-name="semicolon" unicode=";" horiz-adv-x="608" 
d="M354 764q-53 0 -91.5 38.5t-38.5 91.5q0 54 38.5 92t91.5 38q54 0 92 -38t38 -92q0 -53 -38 -91.5t-92 -38.5zM71 -367h-129l216 569h191z" />
    <glyph glyph-name="less" unicode="&#x3c;" horiz-adv-x="1328" 
d="M1080 226l-36 -170l-873 436l33 157l1058 433l-40 -192l-828 -322l-2 -9z" />
    <glyph glyph-name="equal" unicode="=" horiz-adv-x="1328" 
d="M1071 276h-926l32 154h926zM1163 709h-926l32 154h926z" />
    <glyph glyph-name="greater" unicode="&#x3e;" horiz-adv-x="1328" 
d="M261 912l36 170l873 -436l-33 -157l-1058 -433l40 192l828 322l2 9z" />
    <glyph glyph-name="question" unicode="?" horiz-adv-x="1050" 
d="M192 1089q34 169 153.5 268t309.5 99q183 0 298.5 -96t115.5 -234q0 -128 -80.5 -234t-209.5 -164q-108 -48 -154 -95.5t-60 -126.5l-11 -60h-179l18 82q27 122 86.5 187t181.5 120q112 52 164.5 118.5t52.5 153.5q0 80 -62.5 136t-172.5 56q-102 0 -175 -55.5
t-102 -154.5h-174zM401 -18q-61 0 -100 39t-39 100t39 100.5t100 39.5t99.5 -39t38.5 -101q0 -61 -38.5 -100t-99.5 -39z" />
    <glyph glyph-name="at" unicode="@" horiz-adv-x="1880" 
d="M1119 1438q209 0 380.5 -85.5t269 -235t97.5 -331.5t-62 -333.5t-169.5 -238.5t-237.5 -87q-94 0 -155.5 49t-61.5 123q0 3 0.5 8t0.5 8l-16 1q-38 -67 -101 -102.5t-143 -35.5q-142 0 -227 90t-85 240q0 215 118.5 362.5t291.5 147.5q88 0 158 -47t86 -116h16l26 124
h157l-131 -603q-4 -21 -4 -31q0 -91 107 -91q74 0 143 74.5t110.5 196.5t41.5 254q0 231 -177 382t-448 151q-160 0 -304.5 -64t-248.5 -172t-165 -258.5t-61 -317.5q0 -183 88 -323t248 -216.5t369 -76.5q142 0 215 25l-27 -126q-108 -25 -235 -25q-229 0 -411 92.5
t-283.5 258t-101.5 373.5q0 204 70.5 381.5t193.5 303.5t296.5 198.5t371.5 72.5zM1228 659q0 98 -53.5 158.5t-141.5 60.5q-110 0 -186 -104t-76 -253q0 -94 50 -149t135 -55q112 0 192 100.5t80 241.5z" />
    <glyph glyph-name="A" unicode="A" horiz-adv-x="1380" 
d="M829 1207l-362 -641h473l-95 641h-16zM1018 0l-58 413h-579l-232 -413h-193l845 1443h167l226 -1443h-176z" />
    <glyph glyph-name="B" unicode="B" horiz-adv-x="1346" 
d="M658 0h-590l307 1443h501q185 0 295.5 -86.5t110.5 -231.5q0 -136 -85 -236.5t-227 -131.5l-4 -16q116 -20 182.5 -95.5t66.5 -187.5q0 -200 -156.5 -329t-400.5 -129zM524 1284l-98 -463h298q165 0 268 74t103 193q0 196 -288 196h-283zM285 159h367q159 0 265.5 81.5
t106.5 202.5q0 223 -296 223h-335z" />
    <glyph glyph-name="C" unicode="C" horiz-adv-x="1463" 
d="M1269 992v2q-11 145 -113 230.5t-263 85.5q-155 0 -283.5 -97t-202.5 -266t-74 -374q0 -203 106 -321.5t287 -118.5q146 0 258 67.5t151 179.5h190q-54 -193 -219 -303.5t-400 -110.5q-252 0 -406 161.5t-154 426.5q0 197 58 368.5t158.5 293t241.5 191.5t303 70
q235 0 390 -136.5t155 -342.5v-6h-183z" />
    <glyph glyph-name="D" unicode="D" horiz-adv-x="1486" 
d="M375 1443h403q299 0 464 -167.5t165 -463.5q0 -171 -58 -322.5t-157.5 -258.5t-237.5 -169t-293 -62h-591zM525 1283l-239 -1123h382q117 0 220 49t176 134t115 204.5t42 255.5q0 227 -120.5 353.5t-336.5 126.5h-239z" />
    <glyph glyph-name="E" unicode="E" horiz-adv-x="1219" 
d="M998 162l-34 -162h-896l307 1443h896l-35 -162h-711l-100 -463h675l-34 -160h-674l-106 -496h712z" />
    <glyph glyph-name="F" unicode="F" horiz-adv-x="1170" 
d="M253 0h-185l307 1443h878l-35 -162h-693l-107 -496h637l-34 -160h-637z" />
    <glyph glyph-name="G" unicode="G" horiz-adv-x="1525" 
d="M1436 736l-42 -196q-60 -280 -232.5 -427t-440.5 -147q-257 0 -415.5 164t-158.5 432q0 195 57.5 365.5t158 291t242 189.5t303.5 69q225 0 377.5 -126t166.5 -323q1 -8 1 -36h-183q-11 146 -112.5 232t-263.5 86q-156 0 -284.5 -95.5t-202 -263t-73.5 -370.5
q0 -208 111 -328t302 -120q172 0 298.5 107t161.5 283l11 55h-400l34 158h584z" />
    <glyph glyph-name="H" unicode="H" horiz-adv-x="1522" 
d="M1224 0h-185l140 657h-788l-140 -657h-183l307 1443h184l-133 -624h788l133 624h184z" />
    <glyph glyph-name="I" unicode="I" horiz-adv-x="550" 
d="M252 0h-184l307 1443h184z" />
    <glyph glyph-name="J" unicode="J" horiz-adv-x="1102" 
d="M41 337h181q2 -94 62 -148t161 -54q208 0 265 269l221 1039h179l-228 -1080q-40 -191 -157.5 -294t-301.5 -103q-174 0 -283.5 106.5t-98.5 264.5z" />
    <glyph glyph-name="K" unicode="K" horiz-adv-x="1349" 
d="M249 0h-180l307 1443h179l-149 -701h16l772 701h235l-702 -635l449 -808h-210l-381 697l-229 -204z" />
    <glyph glyph-name="L" unicode="L" horiz-adv-x="1164" 
d="M980 162l-34 -162h-878l307 1443h184l-273 -1281h694z" />
    <glyph glyph-name="M" unicode="M" horiz-adv-x="1792" 
d="M240 0h-172l307 1443h200l238 -1204h16l750 1204h222l-307 -1443h-172l234 1102h-12l-689 -1102h-152l-217 1102h-12z" />
    <glyph glyph-name="N" unicode="N" horiz-adv-x="1520" 
d="M250 0h-182l307 1443h177l534 -1153h16l245 1153h182l-307 -1443h-179l-533 1150h-16z" />
    <glyph glyph-name="O" unicode="O" horiz-adv-x="1579" 
d="M913 1310q-162 0 -294.5 -95.5t-207.5 -263t-75 -372.5q0 -200 113 -323t297 -123q163 0 294 94t205 261t74 376q0 199 -112.5 322.5t-293.5 123.5zM732 -34q-253 0 -419.5 169.5t-166.5 427.5q0 194 59.5 364t162.5 290.5t248 190t311 69.5t299.5 -77t208 -213.5
t74.5 -306.5q0 -261 -100 -470t-277.5 -326.5t-399.5 -117.5z" />
    <glyph glyph-name="P" unicode="P" horiz-adv-x="1304" 
d="M375 1443h507q177 0 295.5 -107.5t118.5 -282.5q0 -124 -44.5 -226t-122.5 -170t-183 -105t-225 -37h-360l-109 -515h-184zM525 1283l-130 -608h315q182 0 290 95.5t108 266.5q0 116 -78 181t-211 65h-294z" />
    <glyph glyph-name="Q" unicode="Q" horiz-adv-x="1579" 
d="M1242 -163h-192l-85 164q-105 -35 -233 -35q-253 0 -419.5 169.5t-166.5 427.5q0 194 59.5 364t162.5 290.5t248 190t311 69.5q252 0 417 -169t165 -428q0 -263 -103 -476t-287 -329zM746 133q77 0 141 18l-136 262h194l96 -186q131 95 204.5 263t73.5 374
q0 199 -112.5 322.5t-293.5 123.5q-162 0 -294 -95t-207.5 -263t-75.5 -373q0 -200 113.5 -323t296.5 -123z" />
    <glyph glyph-name="R" unicode="R" horiz-adv-x="1338" 
d="M68 0l307 1443h499q196 0 313.5 -104t117.5 -278q0 -168 -105.5 -294t-281.5 -168l207 -599h-196l-188 571h-368l-121 -571h-184zM525 1283l-118 -552h348q159 0 259.5 87.5t100.5 225.5q0 110 -66.5 174.5t-179.5 64.5h-344z" />
    <glyph glyph-name="S" unicode="S" horiz-adv-x="1276" 
d="M64 400h182q26 -125 126.5 -198t246.5 -73q149 0 241.5 70.5t92.5 185.5q0 89 -61.5 150t-201.5 110l-137 48q-148 52 -229.5 149t-81.5 221q0 178 145.5 296t363.5 118q206 0 348 -118t158 -302h-181q-28 122 -116.5 189.5t-219.5 67.5q-134 0 -221 -66.5t-87 -168.5
q0 -77 57 -134t175 -100l130 -47q178 -64 264 -160t86 -230q0 -196 -150.5 -319t-389.5 -123q-222 0 -366.5 116t-173.5 318z" />
    <glyph glyph-name="T" unicode="T" horiz-adv-x="1291" 
d="M623 0h-184l272 1281h-463l34 162h1110l-34 -162h-463z" />
    <glyph glyph-name="U" unicode="U" horiz-adv-x="1524" 
d="M681 -34q-120 0 -216 34.5t-157.5 95.5t-95 142t-34.5 176q-1 60 13 130l188 899h184l-186 -887q-15 -68 -13 -133q5 -137 93 -214t256 -77q162 0 277.5 96t151.5 263l203 952h184l-210 -987q-50 -236 -211 -363t-427 -127z" />
    <glyph glyph-name="V" unicode="V" horiz-adv-x="1380" 
d="M665 0h-178l-226 1443h170l186 -1204h16l671 1204h199z" />
    <glyph glyph-name="W" unicode="W" horiz-adv-x="1982" 
d="M1106 1139l-560 -1139h-177l-87 1443h165l58 -1173h12l572 1173h162l94 -1173h12l541 1173h186l-692 -1443h-177l-97 1139h-12z" />
    <glyph glyph-name="X" unicode="X" horiz-adv-x="1389" 
d="M-25 0l655 752l-323 691h206l249 -574h16l508 574h205l-649 -727l332 -716h-194l-268 586h-16l-517 -586h-204z" />
    <glyph glyph-name="Y" unicode="Y" horiz-adv-x="1344" 
d="M650 0h-184l132 621l-336 822h187l268 -649h16l526 649h207l-692 -848z" />
    <glyph glyph-name="Z" unicode="Z" horiz-adv-x="1355" 
d="M29 0l27 128l1048 1137l4 16h-779l34 162h1022l-27 -128l-1045 -1137l-3 -16h820l-34 -162h-1067z" />
    <glyph glyph-name="bracketleft" unicode="[" horiz-adv-x="782" 
d="M443 1506h464l-29 -136h-296l-328 -1542h296l-29 -135h-464z" />
    <glyph glyph-name="backslash" unicode="\" horiz-adv-x="742" 
d="M338 -307l-51 1813h144l49 -1813h-142z" />
    <glyph glyph-name="bracketright" unicode="]" horiz-adv-x="782" 
d="M364 -307h-464l29 136h296l328 1542h-296l29 135h464z" />
    <glyph glyph-name="asciicircum" unicode="^" horiz-adv-x="940" 
d="M611 1243l-322 -481h-168l424 620h198l160 -620h-158l-118 481h-16z" />
    <glyph glyph-name="underscore" unicode="_" horiz-adv-x="916" 
d="M-175 -235l27 128h936l-27 -128h-936z" />
    <glyph glyph-name="grave" unicode="`" horiz-adv-x="1024" 
d="M687 1228l-139 340h210l83 -340h-154z" />
    <glyph glyph-name="a" unicode="a" horiz-adv-x="1126" 
d="M435 130q121 0 214 71.5t117 181.5l27 124l-287 -14q-132 -7 -205 -58.5t-73 -136.5q0 -74 58 -121t149 -47zM381 -19q-141 0 -235.5 86t-94.5 212q0 159 120.5 251t344.5 102l306 14l16 73q6 33 6 51q0 82 -61 127.5t-170 45.5q-91 0 -152 -35t-87 -100h-182
q36 133 153.5 211t281.5 78q178 0 285 -82.5t107 -219.5q0 -43 -9 -88l-150 -707h-167l30 141h-16q-57 -75 -143 -117.5t-183 -42.5z" />
    <glyph glyph-name="b" unicode="b" horiz-adv-x="1259" 
d="M611 -19q-112 0 -205.5 61.5t-125.5 156.5h-16l-44 -199h-165l320 1506h172l-120 -575h16q123 166 338 166q163 0 272.5 -118.5t109.5 -298.5q0 -194 -72.5 -354.5t-199.5 -252.5t-280 -92zM598 136q165 0 275 148t110 370q0 136 -68.5 212t-190.5 76q-167 0 -282 -147
t-115 -361q0 -137 73 -217.5t198 -80.5z" />
    <glyph glyph-name="c" unicode="c" horiz-adv-x="1135" 
d="M670 1097q159 0 273.5 -84.5t139.5 -217.5q3 -15 5 -47h-176q-8 84 -80.5 139t-175.5 55q-160 0 -267 -138t-107 -343q0 -150 72.5 -236.5t197.5 -86.5q100 0 172 44.5t103 125.5h179q-33 -147 -162 -237t-307 -90q-197 0 -316.5 125t-119.5 332q0 187 73 337.5
t203.5 236t292.5 85.5z" />
    <glyph glyph-name="d" unicode="d" horiz-adv-x="1265" 
d="M490 -19q-166 0 -279 120.5t-113 316.5q0 192 74 348t201 243.5t281 87.5q116 0 205 -60.5t118 -157.5h16l133 627h175l-320 -1506h-166l31 147h-16q-59 -77 -148.5 -121.5t-191.5 -44.5zM545 136q110 0 200 67t141.5 183.5t51.5 257.5q0 137 -73 217.5t-198 80.5
q-166 0 -277.5 -141t-111.5 -357q0 -137 74 -222.5t193 -85.5z" />
    <glyph glyph-name="e" unicode="e" horiz-adv-x="1176" 
d="M306 638h585q2 12 2 45q0 112 -64.5 187t-181.5 75q-122 0 -212.5 -83t-128.5 -224zM540 -19q-188 0 -313 120t-125 331q0 297 156.5 481t404.5 184q174 0 291.5 -116.5t118.5 -319.5q0 -86 -13 -162h-777q-2 -36 -2 -54q0 -80 23.5 -141t63 -96t86 -52.5t97.5 -17.5
q197 0 271 137h183q-34 -129 -158 -211.5t-307 -82.5z" />
    <glyph glyph-name="f" unicode="f" horiz-adv-x="741" 
d="M119 0l194 934h-179l30 144h179l20 105q31 165 121 239t254 74q54 0 117 -13l-30 -142q-44 10 -104 10q-75 0 -120.5 -42t-62.5 -131l-19 -100h247l-30 -144h-247l-194 -934h-176z" />
    <glyph glyph-name="g" unicode="g" horiz-adv-x="1247" 
d="M448 -413q-182 0 -304.5 90t-132.5 217h183q12 -68 83 -113t185 -45q139 0 221 65t108 177l47 200h-16q-116 -162 -326 -162q-167 0 -279.5 120.5t-112.5 310.5q0 141 41 263t112.5 206.5t170.5 132.5t212 48q114 0 209.5 -61.5t127.5 -156.5h16l42 199h167l-244 -1130
q-36 -167 -169.5 -264t-340.5 -97zM549 168q165 0 273 132.5t108 343.5q0 137 -75 217.5t-202 80.5q-162 0 -265.5 -128.5t-103.5 -340.5q0 -143 71 -224t194 -81z" />
    <glyph glyph-name="h" unicode="h" horiz-adv-x="1216" 
d="M55 0l322 1506h175l-127 -589h16q58 84 133.5 132t189.5 48q153 0 244.5 -95t91.5 -229q0 -56 -14 -124l-138 -649h-175l132 619q13 63 13 105q0 100 -59 159t-168 59q-124 0 -209 -79t-112 -205l-140 -658h-175z" />
    <glyph glyph-name="i" unicode="i" horiz-adv-x="516" 
d="M57 0l229 1078h172l-229 -1078h-172zM438 1286q-50 0 -85 35t-35 85t35 85t85 35t85 -35t35 -85t-35 -85t-85 -35z" />
    <glyph glyph-name="j" unicode="j" horiz-adv-x="516" 
d="M459 1078l-246 -1157q-32 -151 -115.5 -221t-229.5 -70q-52 0 -85 5l35 152q23 -4 55 -4q76 0 115 36t58 125l241 1134h172zM439 1286q-49 0 -84.5 35t-35.5 85t35.5 85t84.5 35t84.5 -35t35.5 -85t-35.5 -85t-84.5 -35z" />
    <glyph glyph-name="k" unicode="k" horiz-adv-x="1086" 
d="M229 0h-174l320 1506h174l-185 -870h16l546 442h227l-565 -465l363 -613h-201l-301 516l-130 -94z" />
    <glyph glyph-name="l" unicode="l" horiz-adv-x="516" 
d="M55 0l320 1506h176l-320 -1506h-176z" />
    <glyph glyph-name="m" unicode="m" horiz-adv-x="1782" 
d="M45 0l229 1078h167l-35 -166h16q44 81 126.5 133t171.5 52q112 0 189 -58.5t96 -138.5h16q54 86 142 141.5t204 55.5q132 0 218.5 -83t86.5 -211q0 -56 -14 -124l-144 -679h-175l138 649q13 63 13 105q0 80 -51.5 134t-140.5 54q-99 0 -180 -72.5t-107 -193.5l-144 -676
h-175l138 649q13 63 13 105q0 80 -51.5 134t-140.5 54q-98 0 -179.5 -70.5t-105.5 -183.5l-146 -688h-175z" />
    <glyph glyph-name="n" unicode="n" horiz-adv-x="1198" 
d="M45 0l229 1078h167l-34 -161h16q126 180 327 180q150 0 241 -95t91 -229q0 -56 -14 -124l-138 -649h-175l132 619q13 63 13 105q0 99 -58.5 158.5t-164.5 59.5q-121 0 -205.5 -79t-111.5 -205l-140 -658h-175z" />
    <glyph glyph-name="o" unicode="o" horiz-adv-x="1212" 
d="M563 136q99 0 183 64t132.5 173.5t48.5 238.5q0 154 -72 242t-199 88q-167 0 -270 -136.5t-103 -357.5q0 -140 77 -226t203 -86zM672 1097q196 0 317.5 -123t121.5 -321q0 -191 -73.5 -345t-204 -240.5t-292.5 -86.5q-196 0 -318.5 124t-122.5 322q0 294 160.5 482
t411.5 188z" />
    <glyph glyph-name="p" unicode="p" horiz-adv-x="1254" 
d="M593 136q165 0 275 148t110 370q0 136 -68.5 212t-190.5 76q-167 0 -282 -147t-115 -361q0 -137 73 -217.5t198 -80.5zM146 -360h-173l306 1438h166l-31 -147h16q59 77 150.5 121.5t193.5 44.5q164 0 274 -118.5t110 -298.5q0 -194 -72.5 -354.5t-199.5 -252.5t-280 -92
q-116 0 -205 60.5t-118 157.5h-16z" />
    <glyph glyph-name="q" unicode="q" horiz-adv-x="1251" 
d="M536 136q167 0 282 147t115 361q0 137 -73 217.5t-198 80.5q-165 0 -275 -143.5t-110 -358.5q0 -144 68.5 -224t190.5 -80zM899 -360h-172l106 507h-16q-123 -166 -338 -166q-164 0 -273 123t-109 310q0 189 72.5 346t199.5 247t280 90q112 0 205.5 -61.5t125.5 -156.5
h16l42 199h167z" />
    <glyph glyph-name="r" unicode="r" horiz-adv-x="791" 
d="M37 0l229 1078h166l-29 -137h16q104 156 289 156q87 0 126 -15l-37 -165q-58 13 -136 13q-130 0 -206.5 -71t-108.5 -222l-135 -637h-174z" />
    <glyph glyph-name="s" unicode="s" horiz-adv-x="1052" 
d="M172 775q0 143 114.5 232.5t289.5 89.5q169 0 276 -80t129 -215h-171q-17 70 -80 109.5t-157 39.5q-99 0 -163.5 -45t-64.5 -115q0 -97 151 -146l146 -47q135 -43 196 -112.5t61 -178.5q0 -142 -123 -234t-311 -92q-177 0 -293.5 85t-128.5 223h177q21 -73 87.5 -118
t165.5 -45q109 0 179 47t70 121q0 103 -135 146l-165 53q-127 41 -188.5 108.5t-61.5 173.5z" />
    <glyph glyph-name="t" unicode="t" horiz-adv-x="744" 
d="M429 -8q-117 0 -187.5 56t-70.5 162q0 40 11 93l135 631h-181l30 144h182l57 279h175l-59 -279h245l-32 -144h-243l-123 -578q-12 -57 -12 -97q0 -116 136 -116q44 0 75 4l-31 -146q-39 -9 -107 -9z" />
    <glyph glyph-name="u" unicode="u" horiz-adv-x="1195" 
d="M1151 1078l-229 -1078h-166l33 146h-16q-48 -74 -133 -119.5t-201 -45.5q-145 0 -233.5 88.5t-88.5 224.5q0 67 15 140l135 644h175l-131 -619q-14 -68 -14 -121q0 -103 51.5 -152.5t157.5 -49.5q127 0 216 81.5t117 212.5l138 648h174z" />
    <glyph glyph-name="v" unicode="v" horiz-adv-x="1110" 
d="M183 1078h173l126 -856h16l468 856h191l-622 -1078h-183z" />
    <glyph glyph-name="w" unicode="w" horiz-adv-x="1586" 
d="M1632 1078l-532 -1078h-175l-70 827h-16l-411 -827h-174l-72 1078h157l49 -853h16l411 853h175l57 -862h16l396 862h173z" />
    <glyph glyph-name="x" unicode="x" horiz-adv-x="1079" 
d="M523 405h-16l-339 -405h-205l484 548l-258 530h188l179 -401h16l337 401h205l-481 -539l256 -539h-181z" />
    <glyph glyph-name="y" unicode="y" horiz-adv-x="1112" 
d="M103 -392q-63 0 -124 16l30 143q43 -13 104 -13q56 0 103.5 40.5t101.5 140.5l39 73l-175 1070h171l128 -857h16l472 857h189l-686 -1196q-91 -159 -172.5 -216.5t-196.5 -57.5z" />
    <glyph glyph-name="z" unicode="z" horiz-adv-x="1104" 
d="M22 0l27 126l764 792l3 16h-594l32 144h826l-29 -129l-758 -789l-3 -16h593l-31 -144h-830z" />
    <glyph glyph-name="braceleft" unicode="{" horiz-adv-x="782" 
d="M250 293q11 53 11 87q0 73 -44 98.5t-144 25.5l41 191q121 0 181.5 47.5t85.5 165.5l59 274q37 171 140 247.5t277 76.5h49l-30 -141h-44q-104 0 -157.5 -52t-79.5 -173l-63 -295q-46 -216 -275 -238l-3 -16q96 -21 137.5 -62.5t41.5 -112.5q0 -34 -12 -92l-55 -266
q-11 -53 -11 -87q0 -142 151 -142h45l-29 -136h-48q-39 0 -75 5.5t-76 22.5t-69 43.5t-48 72.5t-19 105q0 46 12 104z" />
    <glyph glyph-name="bar" unicode="|" horiz-adv-x="742" 
d="M264 -307h-146l385 1813h146z" />
    <glyph glyph-name="braceright" unicode="}" horiz-adv-x="782" 
d="M557 906q-11 -53 -11 -87q0 -73 44 -98.5t144 -25.5l-41 -191q-121 0 -181.5 -47.5t-85.5 -165.5l-59 -274q-37 -171 -140 -247.5t-277 -76.5h-49l30 141h44q104 0 157.5 52t79.5 173l63 295q46 216 275 238l3 16q-96 21 -137.5 62.5t-41.5 112.5q0 34 12 92l55 266
q11 53 11 87q0 142 -151 142h-45l29 136h48q39 0 75 -5.5t76 -22.5t69 -43.5t48 -72.5t19 -105q0 -45 -12 -104z" />
    <glyph glyph-name="asciitilde" unicode="~" horiz-adv-x="1328" 
d="M861 380q-59 0 -109.5 22.5t-85 55t-66.5 65t-68 55t-74 22.5q-120 0 -170 -179h-155q15 63 41.5 120t68 108t103 81t135.5 30q50 0 93.5 -16.5t72.5 -40.5t59 -53t54.5 -53t56.5 -40.5t66 -16.5q120 0 169 179h155q-10 -50 -28 -96t-48 -91t-67.5 -78t-90 -53.5
t-112.5 -20.5z" />
    <glyph glyph-name="nonbreakingspace" unicode="&#xa0;" horiz-adv-x="578" 
 />
    <glyph glyph-name="exclamdown" unicode="&#xa1;" horiz-adv-x="636" 
d="M232 -342h-200l222 964h166zM411 1120q60 0 99.5 -39.5t39.5 -99.5t-39.5 -100t-99.5 -40t-99 40t-39 100t39 99.5t99 39.5z" />
    <glyph glyph-name="cent" unicode="&#xa2;" horiz-adv-x="1328" 
d="M587 370l160 754q-144 -14 -234 -141t-90 -320q0 -112 43.5 -188.5t120.5 -104.5zM1193 909h-169q-3 71 -45 126.5t-114 77.5l-160 -757q89 8 154.5 59.5t96.5 134.5h171q-38 -150 -165 -249t-289 -99h-1l-43 -202h-120l46 215q-150 34 -230 152t-80 290q0 173 68 315
t190.5 224t275.5 82h1l35 165h120l-38 -177q142 -31 219 -128.5t77 -221.5v-7z" />
    <glyph glyph-name="sterling" unicode="&#xa3;" horiz-adv-x="1328" 
d="M1298 1386l-36 -152q-112 52 -270 52q-104 0 -181 -31.5t-122.5 -89.5t-67 -133.5t-21.5 -169.5q0 -41 1 -65h482l-30 -144h-449v-5q0 -166 -74 -300.5t-192 -179.5l-1 -4h786l-33 -154h-1062l32 152q178 25 269 143.5t91 296.5q0 33 -1 51h-254l30 144h219v21
q0 301 155 464t433 163q89 0 170 -18.5t126 -40.5z" />
    <glyph glyph-name="currency" unicode="&#xa4;" horiz-adv-x="1328" 
d="M391 656q0 -109 77.5 -186.5t186.5 -77.5t186.5 77.5t77.5 186.5t-77.5 186.5t-186.5 77.5t-186.5 -77.5t-77.5 -186.5zM1231 1041l-235 -194q50 -89 50 -191q0 -142 -93 -253l109 -138l-123 -98l-110 139q-82 -41 -174 -41q-143 0 -252 93l-239 -198l-87 110l236 196
q-49 90 -49 190q0 143 93 252l-111 140l123 98l111 -141q81 42 175 42q142 0 252 -92l237 196z" />
    <glyph glyph-name="yen" unicode="&#xa5;" horiz-adv-x="1328" 
d="M1441 1422l-593 -723h279l-25 -120h-337l-34 -160h337l-26 -120h-336l-62 -299h-185l63 299h-338l26 120h337l33 160h-336l25 120h293l-300 723h190l258 -638h4l520 638h207z" />
    <glyph glyph-name="brokenbar" unicode="&#xa6;" horiz-adv-x="742" 
d="M498 794h-146l151 712h146zM264 -307h-146l142 668h146z" />
    <glyph glyph-name="section" unicode="&#xa7;" horiz-adv-x="1224" 
d="M546 447l92 -34q100 17 159.5 76.5t59.5 144.5q0 121 -125 166l-86 31q-103 -9 -172 -69.5t-69 -148.5q0 -114 141 -166zM505 -237q-165 0 -279 86t-123 222h177q18 -73 79.5 -118t153.5 -45q102 0 165.5 50t63.5 128q0 55 -27.5 93t-97.5 63l-145 53q-240 88 -240 294
q0 112 73 191.5t192 103.5l4 18q-83 48 -118.5 106.5t-35.5 142.5q0 147 108.5 236.5t276.5 89.5q161 0 263.5 -81t121.5 -214h-171q-14 67 -72.5 108t-144.5 41q-91 0 -150 -48t-59 -122q0 -103 141 -156l126 -47q126 -47 186.5 -114.5t60.5 -176.5t-69.5 -195t-190.5 -115
l-3 -12q81 -49 114.5 -107t33.5 -143q0 -146 -116.5 -239t-297.5 -93z" />
    <glyph glyph-name="dieresis" unicode="&#xa8;" horiz-adv-x="1024" 
d="M479 1286q-49 0 -84.5 35t-35.5 85t35.5 85t84.5 35t84.5 -35t35.5 -85t-35.5 -85t-84.5 -35zM913 1286q-49 0 -84.5 35t-35.5 85t35.5 85t84.5 35t84.5 -35t35.5 -85t-35.5 -85t-84.5 -35z" />
    <glyph glyph-name="copyright" unicode="&#xa9;" horiz-adv-x="1742" 
d="M841 -171q-199 0 -366.5 93t-264.5 254t-97 352q0 190 68 356t186.5 284.5t284.5 186.5t356 68q205 0 372 -91t262 -250.5t95 -355.5q0 -127 -31 -245t-87 -216.5t-137.5 -180t-180 -137.5t-216 -87t-244.5 -31zM858 -31q152 0 288 57.5t234 156t155.5 235.5t57.5 290
q0 248 -171 411.5t-430 163.5q-202 0 -371 -97.5t-266.5 -267t-97.5 -372.5q0 -161 79 -293.5t217 -208t305 -75.5zM1286 795h-132q-6 63 -60.5 104.5t-131.5 41.5q-120 0 -200.5 -103.5t-80.5 -257.5q0 -113 54.5 -179t148.5 -66q75 0 129 33t77 94h134
q-25 -110 -121.5 -177.5t-229.5 -67.5q-147 0 -237 95t-90 251q0 213 121 353.5t305 140.5q135 0 220 -71t94 -191z" />
    <glyph glyph-name="a.sups" unicode="&#xaa;" horiz-adv-x="803" 
d="M438 842q77 0 135 41t72 103l16 73l-184 -8q-83 -4 -129 -33.5t-45 -79.5q1 -42 39 -69t96 -27zM384 721q-97 0 -163 56.5t-67 140.5q-1 108 84 170.5t242 68.5l203 8l11 46q3 21 3 30q-2 46 -41.5 72t-108.5 26q-120 0 -152 -77h-149q24 94 108.5 148.5t204.5 54.5
q128 0 206.5 -56.5t79.5 -149.5q0 -31 -6 -58l-99 -468h-144l20 91h-12q-36 -48 -94.5 -75.5t-125.5 -27.5z" />
    <glyph glyph-name="guillemotleft" unicode="&#xab;" horiz-adv-x="1380" 
d="M604 145h-190l-262 416l2 8l439 416h219l-453 -432l-3 -16zM1072 145h-190l-262 416l2 8l439 416h219l-453 -432l-3 -16z" />
    <glyph glyph-name="logicalnot" unicode="&#xac;" horiz-adv-x="1328" 
d="M1145 651l-124 -585h-162l90 423h-754l34 162h916z" />
    <glyph glyph-name="registered" unicode="&#xae;" horiz-adv-x="1261" 
d="M558 739h-98l106 499h236q65 0 109 -39.5t44 -93.5q0 -70 -39.5 -114.5t-106.5 -55.5l96 -196h-110l-90 183h-108zM645 1149l-30 -143h124q109 0 109 83q0 26 -19.5 43t-56.5 17h-127zM722 449q-218 0 -370 152t-152 370q0 144 69.5 264t189.5 189t263 69
q108 0 204.5 -41t166 -110.5t110.5 -166t41 -204.5q0 -143 -69 -263t-189 -189.5t-264 -69.5zM719 553q176 0 298.5 121.5t122.5 296.5t-121 296.5t-297 121.5q-175 0 -296.5 -121.5t-121.5 -296.5t120.5 -296.5t294.5 -121.5z" />
    <glyph glyph-name="macron" unicode="&#xaf;" horiz-adv-x="1024" 
d="M1037 1472l-29 -136h-654l29 136h654z" />
    <glyph glyph-name="degree" unicode="&#xb0;" horiz-adv-x="940" 
d="M569 743q-140 0 -227.5 86t-87.5 220q0 145 98 248.5t242 103.5q140 0 227.5 -86t87.5 -220q0 -145 -98 -248.5t-242 -103.5zM569 883q81 0 135.5 59.5t54.5 152.5q0 76 -46 121t-119 45q-81 0 -135.5 -59.5t-54.5 -152.5q0 -76 46 -121t119 -45z" />
    <glyph glyph-name="plusminus" unicode="&#xb1;" horiz-adv-x="1328" 
d="M1072 66h-1017l32 149h1017zM757 628l-62 -295h-149l62 295h-434l32 149h434l63 295h149l-63 -295h434l-32 -149h-434z" />
    <glyph glyph-name="two.sups" unicode="&#xb2;" horiz-adv-x="801" 
d="M257 1349q11 116 104 191t227 75q124 0 206.5 -65.5t83.5 -164.5q1 -78 -53 -146.5t-210 -191.5l-223 -170l-3 -10h415l-28 -134h-634l25 119l359 283q122 98 160 143t37 91q-1 50 -43 82.5t-106 32.5t-111 -34t-60 -101h-146z" />
    <glyph glyph-name="three.sups" unicode="&#xb3;" horiz-adv-x="832" 
d="M424 1114l26 123h125q77 0 125.5 38.5t47.5 98.5q-1 49 -44 80t-111 31q-59 0 -106 -31t-62 -80h-146q23 110 112.5 175.5t215.5 65.5q127 0 210.5 -63t84.5 -159q1 -83 -57 -144.5t-150 -75.5l-2 -10q75 -16 116 -61.5t41 -115.5q2 -120 -95.5 -197.5t-251.5 -77.5
q-140 0 -232 69t-93 175q0 13 3 31h146l1 -2q-2 -60 48.5 -99t131.5 -39q87 0 138.5 41t49.5 109q-1 52 -49.5 85t-123.5 33h-99z" />
    <glyph glyph-name="acute" unicode="&#xb4;" horiz-adv-x="1024" 
d="M630 1228h-154l227 340h210z" />
    <glyph glyph-name="mugreek" unicode="&#x3bc;" horiz-adv-x="1273" 
d="M-37 -360l304 1438h175l-126 -595q-19 -91 -19 -138q0 -207 211 -207q120 0 221 94.5t130 233.5l130 612h172l-172 -809q-7 -33 -7 -59q0 -38 20.5 -53.5t70.5 -15.5q29 0 50 4l-31 -145q-41 -10 -87 -10q-98 0 -143.5 45t-45.5 138v6h-16q-54 -87 -145 -142.5
t-191 -55.5q-76 0 -134.5 40t-73.5 107h-16l-104 -488h-173z" />
    <glyph glyph-name="mugreek" unicode="&#xb5;" horiz-adv-x="1273" 
d="M-37 -360l304 1438h175l-126 -595q-19 -91 -19 -138q0 -207 211 -207q120 0 221 94.5t130 233.5l130 612h172l-172 -809q-7 -33 -7 -59q0 -38 20.5 -53.5t70.5 -15.5q29 0 50 4l-31 -145q-41 -10 -87 -10q-98 0 -143.5 45t-45.5 138v6h-16q-54 -87 -145 -142.5
t-191 -55.5q-76 0 -134.5 40t-73.5 107h-16l-104 -488h-173z" />
    <glyph glyph-name="paragraph" unicode="&#xb6;" horiz-adv-x="1224" 
d="M720 -220l354 1663h160l-354 -1663h-160zM568 -220h-160l178 834h-19q-164 0 -266 96t-102 250q0 103 45 193.5t119.5 153.5t174 99.5t206.5 36.5h178z" />
    <glyph glyph-name="periodcentered" unicode="&#xb7;" horiz-adv-x="608" 
d="M278 409q-53 0 -91.5 38.5t-38.5 91.5q0 54 38.5 92t91.5 38q54 0 92 -38t38 -92q0 -53 -38 -91.5t-92 -38.5z" />
    <glyph glyph-name="cedilla" unicode="&#xb8;" horiz-adv-x="1024" 
d="M160 -466l25 114q48 -16 112 -16q120 0 120 63q0 65 -129 65h-60l19 90l117 172h131v-22l-96 -138q75 0 128 -42t53 -121q0 -93 -74.5 -140.5t-190.5 -47.5q-86 0 -155 23z" />
    <glyph glyph-name="one.sups" unicode="&#xb9;" horiz-adv-x="643" 
d="M361 733l146 691h-10l-257 -148l34 161l270 156h154l-183 -860h-154z" />
    <glyph glyph-name="o.sups" unicode="&#xba;" horiz-adv-x="862" 
d="M521 848q97 0 165 86t66 207q-2 92 -48 143.5t-126 51.5q-106 0 -172 -84.5t-64 -217.5q1 -85 50 -135.5t129 -50.5zM590 1465q142 0 229.5 -84t88.5 -221q2 -190 -112 -315.5t-289 -125.5q-142 0 -230.5 84.5t-89.5 220.5q-2 192 111.5 316.5t291.5 124.5z" />
    <glyph glyph-name="guillemotright" unicode="&#xbb;" horiz-adv-x="1380" 
d="M786 985h190l262 -416l-2 -8l-439 -416h-219l453 432l3 16zM318 985h190l262 -416l-2 -8l-439 -416h-219l453 432l3 16z" />
    <glyph glyph-name="onequarter" unicode="&#xbc;" horiz-adv-x="1927" 
d="M329 583l146 691h-10l-257 -148l34 161l270 156h154l-183 -860h-154zM506 0h-165l1080 1443h165zM1468 0l34 158h-442l26 148q130 166 485 554h228l-120 -567h122l-28 -135h-123l-34 -158h-148zM1234 297l-1 -9h299l94 443h-9q-234 -248 -383 -434z" />
    <glyph glyph-name="onehalf" unicode="&#xbd;" horiz-adv-x="1975" 
d="M329 583l146 691h-10l-257 -148l34 161l270 156h154l-183 -860h-154zM506 0h-165l1080 1443h165zM1275 616q11 116 104 191t227 75q124 0 206.5 -65.5t83.5 -164.5q1 -78 -53 -146.5t-210 -191.5l-223 -170l-3 -10h415l-28 -134h-634l25 119l359 283q122 98 160 143
t37 91q-1 50 -43 82.5t-106 32.5t-111 -34t-60 -101h-146z" />
    <glyph glyph-name="threequarters" unicode="&#xbe;" horiz-adv-x="2116" 
d="M392 964l26 123h125q77 0 125.5 38.5t47.5 98.5q-1 49 -44 80t-111 31q-59 0 -106 -31t-62 -80h-146q23 110 112.5 175.5t215.5 65.5q127 0 210.5 -63t84.5 -159q1 -83 -57 -144.5t-150 -75.5l-2 -10q75 -16 116 -61.5t41 -115.5q2 -120 -95.5 -197.5t-251.5 -77.5
q-140 0 -232 69t-93 175q0 13 3 31h146l1 -2q-2 -60 48.5 -99t131.5 -39q87 0 138.5 41t49.5 109q-1 52 -49.5 85t-123.5 33h-99zM695 0h-165l1080 1443h165zM1657 0l34 158h-442l26 148q130 166 485 554h228l-120 -567h122l-28 -135h-123l-34 -158h-148zM1423 297l-1 -9
h299l94 443h-9q-234 -248 -383 -434z" />
    <glyph glyph-name="questiondown" unicode="&#xbf;" horiz-adv-x="1049" 
d="M862 13q-34 -169 -153.5 -268t-309.5 -99q-183 0 -298.5 96t-115.5 234q0 128 80.5 234t209.5 164q108 48 154 95.5t60 126.5l11 60h179l-18 -82q-27 -122 -86.5 -187t-181.5 -120q-112 -52 -164.5 -118.5t-52.5 -153.5q0 -80 62.5 -136t172.5 -56q102 0 175 55.5
t102 154.5h174zM653 1120q61 0 100 -39t39 -100t-39 -100.5t-100 -39.5t-99.5 39t-38.5 101q0 61 38.5 100t99.5 39z" />
    <glyph glyph-name="Agrave" unicode="&#xc0;" horiz-adv-x="1380" 
d="M829 1207l-362 -641h473l-95 641h-16zM1018 0l-58 413h-579l-232 -413h-193l845 1443h167l226 -1443h-176zM834 1575l-121 298h203l72 -298h-154z" />
    <glyph glyph-name="Aacute" unicode="&#xc1;" horiz-adv-x="1380" 
d="M829 1207l-362 -641h473l-95 641h-16zM1018 0l-58 413h-579l-232 -413h-193l845 1443h167l226 -1443h-176zM992 1575h-154l199 298h203z" />
    <glyph glyph-name="Acircumflex" unicode="&#xc2;" horiz-adv-x="1380" 
d="M829 1207l-362 -641h473l-95 641h-16zM1018 0l-58 413h-579l-232 -413h-193l845 1443h167l226 -1443h-176zM1062 1873l182 -298h-188l-101 195h-16l-190 -195h-191l302 298h202z" />
    <glyph glyph-name="Atilde" unicode="&#xc3;" horiz-adv-x="1380" 
d="M829 1207l-362 -641h473l-95 641h-16zM1018 0l-58 413h-579l-232 -413h-193l845 1443h167l226 -1443h-176zM577 1606q19 118 79 188t157 70q43 0 78 -15.5t57.5 -37.5t41 -44t39 -37.5t41.5 -15.5q33 0 54.5 29.5t35.5 94.5h142q-19 -118 -78.5 -188t-158.5 -70
q-44 0 -78.5 15.5t-56.5 37.5t-40.5 44t-38.5 37.5t-42 15.5q-33 0 -54.5 -29.5t-35.5 -94.5h-142z" />
    <glyph glyph-name="Adieresis" unicode="&#xc4;" horiz-adv-x="1380" 
d="M829 1207l-362 -641h473l-95 641h-16zM1018 0l-58 413h-579l-232 -413h-193l845 1443h167l226 -1443h-176zM731 1631q-49 0 -84.5 35.5t-35.5 84.5t35.5 84.5t84.5 35.5t84.5 -35.5t35.5 -84.5t-35.5 -84.5t-84.5 -35.5zM1165 1631q-49 0 -84.5 35.5t-35.5 84.5
t35.5 84.5t84.5 35.5t84.5 -35.5t35.5 -84.5t-35.5 -84.5t-84.5 -35.5z" />
    <glyph glyph-name="Aring" unicode="&#xc5;" horiz-adv-x="1380" 
d="M829 1207l-362 -641h473l-95 641h-16zM1018 0l-58 413h-579l-232 -413h-193l845 1443h167l226 -1443h-176zM959 1551q-87 0 -148 59.5t-61 146.5t61 146.5t148 59.5t148 -59.5t61 -146.5t-61 -146.5t-148 -59.5zM959 1652q45 0 75 30t30 75t-30 75t-75 30t-74.5 -30
t-29.5 -75t29.5 -75t74.5 -30z" />
    <glyph glyph-name="AE" unicode="&#xc6;" horiz-adv-x="1966" 
d="M1152 1292h-147l-455 -680h457zM877 0l98 459h-527l-307 -459h-187l958 1443h1110l-35 -162h-658l-100 -473h621l-34 -160h-621l-104 -486h658l-34 -162h-838z" />
    <glyph glyph-name="Ccedilla" unicode="&#xc7;" horiz-adv-x="1463" 
d="M1452 992h-183v2q-11 145 -113 230.5t-263 85.5q-155 0 -283.5 -97t-202.5 -266t-74 -374q0 -203 106 -321.5t287 -118.5q146 0 258 67.5t151 179.5h190q-49 -173 -188.5 -281t-341.5 -129l-75 -108q75 0 128 -42t53 -121q0 -93 -74.5 -140.5t-190.5 -47.5q-86 0 -155 23
l25 114q48 -16 112 -16q120 0 120 63q0 65 -129 65h-60l19 90l81 118q-229 20 -366 178.5t-137 407.5q0 197 58 368.5t158.5 293t241.5 191.5t303 70q235 0 390 -136.5t155 -342.5v-6z" />
    <glyph glyph-name="Egrave" unicode="&#xc8;" horiz-adv-x="1219" 
d="M998 162l-34 -162h-896l307 1443h896l-35 -162h-711l-100 -463h675l-34 -160h-674l-106 -496h712zM772 1575l-121 298h203l72 -298h-154z" />
    <glyph glyph-name="Eacute" unicode="&#xc9;" horiz-adv-x="1219" 
d="M998 162l-34 -162h-896l307 1443h896l-35 -162h-711l-100 -463h675l-34 -160h-674l-106 -496h712zM930 1575h-154l199 298h203z" />
    <glyph glyph-name="Ecircumflex" unicode="&#xca;" horiz-adv-x="1219" 
d="M998 162l-34 -162h-896l307 1443h896l-35 -162h-711l-100 -463h675l-34 -160h-674l-106 -496h712zM1000 1873l182 -298h-188l-101 195h-16l-190 -195h-191l302 298h202z" />
    <glyph glyph-name="Edieresis" unicode="&#xcb;" horiz-adv-x="1219" 
d="M998 162l-34 -162h-896l307 1443h896l-35 -162h-711l-100 -463h675l-34 -160h-674l-106 -496h712zM669 1631q-49 0 -84.5 35.5t-35.5 84.5t35.5 84.5t84.5 35.5t84.5 -35.5t35.5 -84.5t-35.5 -84.5t-84.5 -35.5zM1103 1631q-49 0 -84.5 35.5t-35.5 84.5t35.5 84.5
t84.5 35.5t84.5 -35.5t35.5 -84.5t-35.5 -84.5t-84.5 -35.5z" />
    <glyph glyph-name="Igrave" unicode="&#xcc;" horiz-adv-x="550" 
d="M252 0h-184l307 1443h184zM417 1575l-121 298h203l72 -298h-154z" />
    <glyph glyph-name="Iacute" unicode="&#xcd;" horiz-adv-x="550" 
d="M252 0h-184l307 1443h184zM575 1575h-154l199 298h203z" />
    <glyph glyph-name="Icircumflex" unicode="&#xce;" horiz-adv-x="550" 
d="M252 0h-184l307 1443h184zM645 1873l182 -298h-188l-101 195h-16l-190 -195h-191l302 298h202z" />
    <glyph glyph-name="Idieresis" unicode="&#xcf;" horiz-adv-x="550" 
d="M252 0h-184l307 1443h184zM314 1631q-50 0 -85 35.5t-35 84.5t35 84.5t85 35.5t85 -35.5t35 -84.5t-35 -84.5t-85 -35.5zM748 1631q-50 0 -85 35.5t-35 84.5t35 84.5t85 35.5t85 -35.5t35 -84.5t-35 -84.5t-85 -35.5z" />
    <glyph glyph-name="Eth" unicode="&#xd0;" horiz-adv-x="1486" 
d="M286 160h382q117 0 220 49t176 134t115 204.5t42 255.5q0 227 -120.5 353.5t-336.5 126.5h-239l-97 -458h322l-35 -162h-322zM375 1443h403q299 0 464 -167.5t165 -463.5q0 -171 -58 -322.5t-157.5 -258.5t-237.5 -169t-293 -62h-591l140 663h-148l34 162h148z" />
    <glyph glyph-name="Ntilde" unicode="&#xd1;" horiz-adv-x="1520" 
d="M250 0h-182l307 1443h177l534 -1153h16l245 1153h182l-307 -1443h-179l-533 1150h-16zM654 1606q19 118 79 188t157 70q43 0 78 -15.5t57.5 -37.5t41 -44t39 -37.5t41.5 -15.5q33 0 54.5 29.5t35.5 94.5h142q-19 -118 -78.5 -188t-158.5 -70q-44 0 -78.5 15.5t-56.5 37.5
t-40.5 44t-38.5 37.5t-42 15.5q-33 0 -54.5 -29.5t-35.5 -94.5h-142z" />
    <glyph glyph-name="Ograve" unicode="&#xd2;" horiz-adv-x="1579" 
d="M913 1310q-162 0 -294.5 -95.5t-207.5 -263t-75 -372.5q0 -200 113 -323t297 -123q163 0 294 94t205 261t74 376q0 199 -112.5 322.5t-293.5 123.5zM732 -34q-253 0 -419.5 169.5t-166.5 427.5q0 194 59.5 364t162.5 290.5t248 190t311 69.5t299.5 -77t208 -213.5
t74.5 -306.5q0 -261 -100 -470t-277.5 -326.5t-399.5 -117.5zM872 1573l-121 298h203l72 -298h-154z" />
    <glyph glyph-name="Oacute" unicode="&#xd3;" horiz-adv-x="1579" 
d="M913 1310q-162 0 -294.5 -95.5t-207.5 -263t-75 -372.5q0 -200 113 -323t297 -123q163 0 294 94t205 261t74 376q0 199 -112.5 322.5t-293.5 123.5zM732 -34q-253 0 -419.5 169.5t-166.5 427.5q0 194 59.5 364t162.5 290.5t248 190t311 69.5t299.5 -77t208 -213.5
t74.5 -306.5q0 -261 -100 -470t-277.5 -326.5t-399.5 -117.5zM1030 1573h-154l199 298h203z" />
    <glyph glyph-name="Ocircumflex" unicode="&#xd4;" horiz-adv-x="1579" 
d="M913 1310q-162 0 -294.5 -95.5t-207.5 -263t-75 -372.5q0 -200 113 -323t297 -123q163 0 294 94t205 261t74 376q0 199 -112.5 322.5t-293.5 123.5zM732 -34q-253 0 -419.5 169.5t-166.5 427.5q0 194 59.5 364t162.5 290.5t248 190t311 69.5t299.5 -77t208 -213.5
t74.5 -306.5q0 -261 -100 -470t-277.5 -326.5t-399.5 -117.5zM1100 1871l182 -298h-188l-101 195h-16l-190 -195h-191l302 298h202z" />
    <glyph glyph-name="Otilde" unicode="&#xd5;" horiz-adv-x="1579" 
d="M913 1310q-162 0 -294.5 -95.5t-207.5 -263t-75 -372.5q0 -200 113 -323t297 -123q163 0 294 94t205 261t74 376q0 199 -112.5 322.5t-293.5 123.5zM732 -34q-253 0 -419.5 169.5t-166.5 427.5q0 194 59.5 364t162.5 290.5t248 190t311 69.5t299.5 -77t208 -213.5
t74.5 -306.5q0 -261 -100 -470t-277.5 -326.5t-399.5 -117.5zM615 1604q19 118 79 188t157 70q43 0 78 -15.5t57.5 -37.5t41 -44t39 -37.5t41.5 -15.5q33 0 54.5 29.5t35.5 94.5h142q-19 -118 -78.5 -188t-158.5 -70q-44 0 -78.5 15.5t-56.5 37.5t-40.5 44t-38.5 37.5
t-42 15.5q-33 0 -54.5 -29.5t-35.5 -94.5h-142z" />
    <glyph glyph-name="Odieresis" unicode="&#xd6;" horiz-adv-x="1579" 
d="M913 1310q-162 0 -294.5 -95.5t-207.5 -263t-75 -372.5q0 -200 113 -323t297 -123q163 0 294 94t205 261t74 376q0 199 -112.5 322.5t-293.5 123.5zM732 -34q-253 0 -419.5 169.5t-166.5 427.5q0 194 59.5 364t162.5 290.5t248 190t311 69.5t299.5 -77t208 -213.5
t74.5 -306.5q0 -261 -100 -470t-277.5 -326.5t-399.5 -117.5zM769 1629q-49 0 -84.5 35.5t-35.5 84.5t35.5 84.5t84.5 35.5t84.5 -35.5t35.5 -84.5t-35.5 -84.5t-84.5 -35.5zM1203 1629q-49 0 -84.5 35.5t-35.5 84.5t35.5 84.5t84.5 35.5t84.5 -35.5t35.5 -84.5t-35.5 -84.5
t-84.5 -35.5z" />
    <glyph glyph-name="multiply" unicode="&#xd7;" horiz-adv-x="1328" 
d="M917 122l-263 341l-416 -341l-90 112l418 342l-264 341l121 99l263 -341l416 341l90 -112l-418 -342l264 -341z" />
    <glyph glyph-name="Oslash" unicode="&#xd8;" horiz-adv-x="1551" 
d="M1290 1044l-842 -786q114 -125 298 -125q163 0 294 94t205 261t74 376q0 98 -29 180zM376 370l851 793q-115 147 -314 147q-162 0 -294.5 -95.5t-207.5 -263t-75 -372.5q0 -115 40 -209zM1543 1280l-106 -99q72 -136 72 -301q0 -261 -100 -470t-277.5 -326.5
t-399.5 -117.5q-253 0 -418 168l-100 -94l-83 101l103 96q-88 145 -88 326q0 194 59.5 364t162.5 290.5t248 190t311 69.5q131 0 243.5 -49.5t191.5 -138.5l98 91z" />
    <glyph glyph-name="Ugrave" unicode="&#xd9;" horiz-adv-x="1524" 
d="M681 -34q-120 0 -216 34.5t-157.5 95.5t-95 142t-34.5 176q-1 60 13 130l188 899h184l-186 -887q-15 -68 -13 -133q5 -137 93 -214t256 -77q162 0 277.5 96t151.5 263l203 952h184l-210 -987q-50 -236 -211 -363t-427 -127zM903 1575l-121 298h203l72 -298h-154z" />
    <glyph glyph-name="Uacute" unicode="&#xda;" horiz-adv-x="1524" 
d="M681 -34q-120 0 -216 34.5t-157.5 95.5t-95 142t-34.5 176q-1 60 13 130l188 899h184l-186 -887q-15 -68 -13 -133q5 -137 93 -214t256 -77q162 0 277.5 96t151.5 263l203 952h184l-210 -987q-50 -236 -211 -363t-427 -127zM1061 1575h-154l199 298h203z" />
    <glyph glyph-name="Ucircumflex" unicode="&#xdb;" horiz-adv-x="1524" 
d="M681 -34q-120 0 -216 34.5t-157.5 95.5t-95 142t-34.5 176q-1 60 13 130l188 899h184l-186 -887q-15 -68 -13 -133q5 -137 93 -214t256 -77q162 0 277.5 96t151.5 263l203 952h184l-210 -987q-50 -236 -211 -363t-427 -127zM1131 1873l182 -298h-188l-101 195h-16
l-190 -195h-191l302 298h202z" />
    <glyph glyph-name="Udieresis" unicode="&#xdc;" horiz-adv-x="1524" 
d="M681 -34q-120 0 -216 34.5t-157.5 95.5t-95 142t-34.5 176q-1 60 13 130l188 899h184l-186 -887q-15 -68 -13 -133q5 -137 93 -214t256 -77q162 0 277.5 96t151.5 263l203 952h184l-210 -987q-50 -236 -211 -363t-427 -127zM800 1631q-50 0 -85 35.5t-35 84.5t35 84.5
t85 35.5t85 -35.5t35 -84.5t-35 -84.5t-85 -35.5zM1234 1631q-50 0 -85 35.5t-35 84.5t35 84.5t85 35.5t85 -35.5t35 -84.5t-35 -84.5t-85 -35.5z" />
    <glyph glyph-name="Yacute" unicode="&#xdd;" horiz-adv-x="1344" 
d="M650 0h-184l132 621l-336 822h187l268 -649h16l526 649h207l-692 -848zM971 1575h-154l199 298h203z" />
    <glyph glyph-name="Thorn" unicode="&#xde;" horiz-adv-x="1280" 
d="M69 0l307 1443h179l-57 -266h332q171 0 278.5 -99t107.5 -257q0 -212 -152.5 -342t-400.5 -130h-340l-74 -349h-180zM465 1017l-108 -508h295q178 0 277 78t99 218q0 99 -66.5 155.5t-192.5 56.5h-304z" />
    <glyph glyph-name="germandbls" unicode="&#xdf;" horiz-adv-x="1338" 
d="M284 0h-174l228 1072q35 166 156 259.5t299 93.5q170 0 283 -92.5t113 -232.5t-92 -235.5t-238 -108.5l-4 -18q146 -15 231.5 -98t85.5 -209q0 -194 -142.5 -321.5t-360.5 -127.5q-119 0 -208 34l33 152q34 -13 87.5 -22.5t96.5 -9.5q134 0 228 84t94 205
q0 106 -82.5 169t-219.5 63h-71l36 170h79q113 0 193 71t80 171q0 91 -64 147t-168 56q-109 0 -182.5 -65.5t-99.5 -185.5z" />
    <glyph glyph-name="agrave" unicode="&#xe0;" horiz-adv-x="1126" 
d="M435 130q121 0 214 71.5t117 181.5l27 124l-287 -14q-132 -7 -205 -58.5t-73 -136.5q0 -74 58 -121t149 -47zM381 -19q-141 0 -235.5 86t-94.5 212q0 159 120.5 251t344.5 102l306 14l16 73q6 33 6 51q0 82 -61 127.5t-170 45.5q-91 0 -152 -35t-87 -100h-182
q36 133 153.5 211t281.5 78q178 0 285 -82.5t107 -219.5q0 -43 -9 -88l-150 -707h-167l30 141h-16q-57 -75 -143 -117.5t-183 -42.5zM606 1228l-139 340h210l83 -340h-154z" />
    <glyph glyph-name="aacute" unicode="&#xe1;" horiz-adv-x="1126" 
d="M435 130q121 0 214 71.5t117 181.5l27 124l-287 -14q-132 -7 -205 -58.5t-73 -136.5q0 -74 58 -121t149 -47zM381 -19q-141 0 -235.5 86t-94.5 212q0 159 120.5 251t344.5 102l306 14l16 73q6 33 6 51q0 82 -61 127.5t-170 45.5q-91 0 -152 -35t-87 -100h-182
q36 133 153.5 211t281.5 78q178 0 285 -82.5t107 -219.5q0 -43 -9 -88l-150 -707h-167l30 141h-16q-57 -75 -143 -117.5t-183 -42.5zM746 1228h-154l227 340h210z" />
    <glyph glyph-name="acircumflex" unicode="&#xe2;" horiz-adv-x="1126" 
d="M435 130q121 0 214 71.5t117 181.5l27 124l-287 -14q-132 -7 -205 -58.5t-73 -136.5q0 -74 58 -121t149 -47zM381 -19q-141 0 -235.5 86t-94.5 212q0 159 120.5 251t344.5 102l306 14l16 73q6 33 6 51q0 82 -61 127.5t-170 45.5q-91 0 -152 -35t-87 -100h-182
q36 133 153.5 211t281.5 78q178 0 285 -82.5t107 -219.5q0 -43 -9 -88l-150 -707h-167l30 141h-16q-57 -75 -143 -117.5t-183 -42.5zM838 1568l182 -340h-188l-100 227h-16l-191 -227h-191l302 340h202z" />
    <glyph glyph-name="atilde" unicode="&#xe3;" horiz-adv-x="1126" 
d="M435 130q121 0 214 71.5t117 181.5l27 124l-287 -14q-132 -7 -205 -58.5t-73 -136.5q0 -74 58 -121t149 -47zM381 -19q-141 0 -235.5 86t-94.5 212q0 159 120.5 251t344.5 102l306 14l16 73q6 33 6 51q0 82 -61 127.5t-170 45.5q-91 0 -152 -35t-87 -100h-182
q36 133 153.5 211t281.5 78q178 0 285 -82.5t107 -219.5q0 -43 -9 -88l-150 -707h-167l30 141h-16q-57 -75 -143 -117.5t-183 -42.5zM341 1261q19 118 79 188t157 70q43 0 78 -15.5t57.5 -37.5t41 -44t39 -37.5t41.5 -15.5q33 0 54.5 29.5t35.5 94.5h142
q-19 -118 -78.5 -188t-158.5 -70q-44 0 -78.5 15.5t-56.5 37.5t-40.5 44t-38.5 37.5t-42 15.5q-33 0 -54.5 -29.5t-35.5 -94.5h-142z" />
    <glyph glyph-name="adieresis" unicode="&#xe4;" horiz-adv-x="1126" 
d="M435 130q121 0 214 71.5t117 181.5l27 124l-287 -14q-132 -7 -205 -58.5t-73 -136.5q0 -74 58 -121t149 -47zM381 -19q-141 0 -235.5 86t-94.5 212q0 159 120.5 251t344.5 102l306 14l16 73q6 33 6 51q0 82 -61 127.5t-170 45.5q-91 0 -152 -35t-87 -100h-182
q36 133 153.5 211t281.5 78q178 0 285 -82.5t107 -219.5q0 -43 -9 -88l-150 -707h-167l30 141h-16q-57 -75 -143 -117.5t-183 -42.5zM495 1286q-49 0 -84.5 35t-35.5 85t35.5 85t84.5 35t84.5 -35t35.5 -85t-35.5 -85t-84.5 -35zM929 1286q-49 0 -84.5 35t-35.5 85t35.5 85
t84.5 35t84.5 -35t35.5 -85t-35.5 -85t-84.5 -35z" />
    <glyph glyph-name="aring" unicode="&#xe5;" horiz-adv-x="1126" 
d="M435 130q121 0 214 71.5t117 181.5l27 124l-287 -14q-132 -7 -205 -58.5t-73 -136.5q0 -74 58 -121t149 -47zM381 -19q-141 0 -235.5 86t-94.5 212q0 159 120.5 251t344.5 102l306 14l16 73q6 33 6 51q0 82 -61 127.5t-170 45.5q-91 0 -152 -35t-87 -100h-182
q36 133 153.5 211t281.5 78q178 0 285 -82.5t107 -219.5q0 -43 -9 -88l-150 -707h-167l30 141h-16q-57 -75 -143 -117.5t-183 -42.5zM725 1228q-96 0 -164 66.5t-68 162.5t68 162.5t164 66.5t164 -66.5t68 -162.5t-68 -162.5t-164 -66.5zM725 1334q52 0 87 35t35 88t-35 88
t-87 35t-87 -35t-35 -88t35 -88t87 -35z" />
    <glyph glyph-name="ae" unicode="&#xe6;" horiz-adv-x="1866" 
d="M1218 -19q-126 0 -234 65.5t-151 174.5h-15q-59 -102 -173 -171t-244 -69q-154 0 -252 85t-98 213q0 160 120.5 251.5t344.5 101.5l306 14l16 73q6 33 6 51q0 82 -61 127.5t-170 45.5q-91 0 -152 -35t-87 -100h-182q36 133 153.5 211t281.5 78q121 0 211 -43t135 -125h16
q141 168 364 168q174 0 291.5 -116.5t118.5 -319.5q0 -86 -13 -162h-777q-2 -36 -2 -56q0 -80 23.5 -141t63 -95.5t86 -51.5t97.5 -17q197 0 271 137h183q-34 -129 -160.5 -211.5t-316.5 -82.5zM996 638h585q2 12 2 45q0 112 -64.5 187t-181.5 75q-122 0 -212.5 -83
t-128.5 -224zM435 130q121 0 214 71.5t117 181.5l27 124l-287 -14q-132 -7 -205 -58.5t-73 -136.5q0 -74 58 -121t149 -47z" />
    <glyph glyph-name="ccedilla" unicode="&#xe7;" horiz-adv-x="1135" 
d="M1088 748h-176q-8 84 -80.5 139t-175.5 55q-160 0 -267 -138t-107 -343q0 -150 72.5 -236.5t197.5 -86.5q100 0 172 44.5t103 125.5h179q-31 -141 -153 -230.5t-291 -96.5l-83 -119q75 0 128 -42t53 -121q0 -93 -74.5 -140.5t-190.5 -47.5q-86 0 -155 23l25 114
q48 -16 112 -16q120 0 120 63q0 65 -129 65h-60l19 90l97 143q-149 34 -236 152.5t-87 292.5q0 187 73 337.5t203.5 236t292.5 85.5q159 0 273.5 -84.5t139.5 -217.5q3 -15 5 -47z" />
    <glyph glyph-name="egrave" unicode="&#xe8;" horiz-adv-x="1176" 
d="M306 638h585q2 12 2 45q0 112 -64.5 187t-181.5 75q-122 0 -212.5 -83t-128.5 -224zM540 -19q-188 0 -313 120t-125 331q0 297 156.5 481t404.5 184q174 0 291.5 -116.5t118.5 -319.5q0 -86 -13 -162h-777q-2 -36 -2 -54q0 -80 23.5 -141t63 -96t86 -52.5t97.5 -17.5
q197 0 271 137h183q-34 -129 -158 -211.5t-307 -82.5zM623 1228l-139 340h210l83 -340h-154z" />
    <glyph glyph-name="eacute" unicode="&#xe9;" horiz-adv-x="1176" 
d="M306 638h585q2 12 2 45q0 112 -64.5 187t-181.5 75q-122 0 -212.5 -83t-128.5 -224zM540 -19q-188 0 -313 120t-125 331q0 297 156.5 481t404.5 184q174 0 291.5 -116.5t118.5 -319.5q0 -86 -13 -162h-777q-2 -36 -2 -54q0 -80 23.5 -141t63 -96t86 -52.5t97.5 -17.5
q197 0 271 137h183q-34 -129 -158 -211.5t-307 -82.5zM763 1228h-154l227 340h210z" />
    <glyph glyph-name="ecircumflex" unicode="&#xea;" horiz-adv-x="1176" 
d="M306 638h585q2 12 2 45q0 112 -64.5 187t-181.5 75q-122 0 -212.5 -83t-128.5 -224zM540 -19q-188 0 -313 120t-125 331q0 297 156.5 481t404.5 184q174 0 291.5 -116.5t118.5 -319.5q0 -86 -13 -162h-777q-2 -36 -2 -54q0 -80 23.5 -141t63 -96t86 -52.5t97.5 -17.5
q197 0 271 137h183q-34 -129 -158 -211.5t-307 -82.5zM855 1568l182 -340h-188l-100 227h-16l-191 -227h-191l302 340h202z" />
    <glyph glyph-name="edieresis" unicode="&#xeb;" horiz-adv-x="1176" 
d="M306 638h585q2 12 2 45q0 112 -64.5 187t-181.5 75q-122 0 -212.5 -83t-128.5 -224zM540 -19q-188 0 -313 120t-125 331q0 297 156.5 481t404.5 184q174 0 291.5 -116.5t118.5 -319.5q0 -86 -13 -162h-777q-2 -36 -2 -54q0 -80 23.5 -141t63 -96t86 -52.5t97.5 -17.5
q197 0 271 137h183q-34 -129 -158 -211.5t-307 -82.5zM512 1286q-50 0 -85 35t-35 85t35 85t85 35t85 -35t35 -85t-35 -85t-85 -35zM946 1286q-50 0 -85 35t-35 85t35 85t85 35t85 -35t35 -85t-35 -85t-85 -35z" />
    <glyph glyph-name="igrave" unicode="&#xec;" horiz-adv-x="516" 
d="M57 0l229 1078h172l-229 -1078h-172zM334 1228l-139 340h210l83 -340h-154z" />
    <glyph glyph-name="iacute" unicode="&#xed;" horiz-adv-x="516" 
d="M57 0l229 1078h172l-229 -1078h-172zM474 1228h-154l227 340h210z" />
    <glyph glyph-name="icircumflex" unicode="&#xee;" horiz-adv-x="516" 
d="M57 0l229 1078h172l-229 -1078h-172zM566 1568l182 -340h-188l-100 227h-16l-191 -227h-191l302 340h202z" />
    <glyph glyph-name="idieresis" unicode="&#xef;" horiz-adv-x="516" 
d="M57 0l229 1078h172l-229 -1078h-172zM223 1286q-49 0 -84.5 35t-35.5 85t35.5 85t84.5 35t84.5 -35t35.5 -85t-35.5 -85t-84.5 -35zM657 1286q-49 0 -84.5 35t-35.5 85t35.5 85t84.5 35t84.5 -35t35.5 -85t-35.5 -85t-84.5 -35z" />
    <glyph glyph-name="eth" unicode="&#xf0;" horiz-adv-x="1188" 
d="M532 129q106 0 198.5 67.5t146 178t53.5 232.5q0 129 -82.5 212.5t-206.5 83.5q-105 0 -192 -70.5t-133 -178t-46 -223.5q0 -146 74.5 -224t187.5 -78zM1164 1475l-27 -135l-180 -57q162 -203 162 -515q0 -155 -35 -292q-62 -231 -206 -367t-349 -136q-195 0 -318 122
t-123 336q0 160 68 304.5t190 235.5t267 91q117 0 213 -56t131 -144h15q-11 223 -152 378l-346 -109l29 135l211 67q-82 56 -179 88l26 122q179 -58 302 -163z" />
    <glyph glyph-name="ntilde" unicode="&#xf1;" horiz-adv-x="1198" 
d="M45 0l229 1078h167l-34 -161h16q126 180 327 180q150 0 241 -95t91 -229q0 -56 -14 -124l-138 -649h-175l132 619q13 63 13 105q0 99 -58.5 158.5t-164.5 59.5q-121 0 -205.5 -79t-111.5 -205l-140 -658h-175zM414 1261q19 118 79 188t157 70q43 0 78 -15.5t57.5 -37.5
t41 -44t39 -37.5t41.5 -15.5q33 0 54.5 29.5t35.5 94.5h142q-19 -118 -78.5 -188t-158.5 -70q-44 0 -78.5 15.5t-56.5 37.5t-40.5 44t-38.5 37.5t-42 15.5q-33 0 -54.5 -29.5t-35.5 -94.5h-142z" />
    <glyph glyph-name="ograve" unicode="&#xf2;" horiz-adv-x="1212" 
d="M563 136q99 0 183 64t132.5 173.5t48.5 238.5q0 154 -72 242t-199 88q-167 0 -270 -136.5t-103 -357.5q0 -140 77 -226t203 -86zM672 1097q196 0 317.5 -123t121.5 -321q0 -191 -73.5 -345t-204 -240.5t-292.5 -86.5q-196 0 -318.5 124t-122.5 322q0 294 160.5 482
t411.5 188zM632 1228l-139 340h210l83 -340h-154z" />
    <glyph glyph-name="oacute" unicode="&#xf3;" horiz-adv-x="1212" 
d="M563 136q99 0 183 64t132.5 173.5t48.5 238.5q0 154 -72 242t-199 88q-167 0 -270 -136.5t-103 -357.5q0 -140 77 -226t203 -86zM672 1097q196 0 317.5 -123t121.5 -321q0 -191 -73.5 -345t-204 -240.5t-292.5 -86.5q-196 0 -318.5 124t-122.5 322q0 294 160.5 482
t411.5 188zM772 1228h-154l227 340h210z" />
    <glyph glyph-name="ocircumflex" unicode="&#xf4;" horiz-adv-x="1212" 
d="M563 136q99 0 183 64t132.5 173.5t48.5 238.5q0 154 -72 242t-199 88q-167 0 -270 -136.5t-103 -357.5q0 -140 77 -226t203 -86zM672 1097q196 0 317.5 -123t121.5 -321q0 -191 -73.5 -345t-204 -240.5t-292.5 -86.5q-196 0 -318.5 124t-122.5 322q0 294 160.5 482
t411.5 188zM864 1568l182 -340h-188l-100 227h-16l-191 -227h-191l302 340h202z" />
    <glyph glyph-name="otilde" unicode="&#xf5;" horiz-adv-x="1212" 
d="M563 136q99 0 183 64t132.5 173.5t48.5 238.5q0 154 -72 242t-199 88q-167 0 -270 -136.5t-103 -357.5q0 -140 77 -226t203 -86zM672 1097q196 0 317.5 -123t121.5 -321q0 -191 -73.5 -345t-204 -240.5t-292.5 -86.5q-196 0 -318.5 124t-122.5 322q0 294 160.5 482
t411.5 188zM367 1261q19 118 79 188t157 70q43 0 78 -15.5t57.5 -37.5t41 -44t39 -37.5t41.5 -15.5q33 0 54.5 29.5t35.5 94.5h142q-19 -118 -78.5 -188t-158.5 -70q-44 0 -78.5 15.5t-56.5 37.5t-40.5 44t-38.5 37.5t-42 15.5q-33 0 -54.5 -29.5t-35.5 -94.5h-142z" />
    <glyph glyph-name="odieresis" unicode="&#xf6;" horiz-adv-x="1212" 
d="M563 136q99 0 183 64t132.5 173.5t48.5 238.5q0 154 -72 242t-199 88q-167 0 -270 -136.5t-103 -357.5q0 -140 77 -226t203 -86zM672 1097q196 0 317.5 -123t121.5 -321q0 -191 -73.5 -345t-204 -240.5t-292.5 -86.5q-196 0 -318.5 124t-122.5 322q0 294 160.5 482
t411.5 188zM521 1286q-49 0 -84.5 35t-35.5 85t35.5 85t84.5 35t84.5 -35t35.5 -85t-35.5 -85t-84.5 -35zM955 1286q-49 0 -84.5 35t-35.5 85t35.5 85t84.5 35t84.5 -35t35.5 -85t-35.5 -85t-84.5 -35z" />
    <glyph glyph-name="divide" unicode="&#xf7;" horiz-adv-x="1328" 
d="M1137 493h-966l32 152h966zM741 812q-54 0 -90 35.5t-36 89.5t36 89.5t90 35.5q53 0 88.5 -35.5t35.5 -89.5q0 -55 -35.5 -90t-88.5 -35zM590 98q-54 0 -90 35.5t-36 89.5t36 89.5t90 35.5q53 0 88.5 -35.5t35.5 -89.5q0 -55 -35 -90t-89 -35z" />
    <glyph glyph-name="oslash" unicode="&#xf8;" horiz-adv-x="1212" 
d="M896 785l-518 -581q73 -68 185 -68q99 0 183 64t132.5 173.5t48.5 238.5q0 99 -31 173zM312 297l521 580q-70 65 -177 65q-167 0 -270 -136.5t-103 -357.5q0 -84 29 -151zM1135 1054l-109 -123q85 -115 85 -278q0 -191 -73.5 -345t-204 -240.5t-292.5 -86.5
q-165 0 -281 91l-97 -109l-89 69l108 121q-82 115 -82 274q0 294 160.5 482t411.5 188q163 0 279 -89l98 110z" />
    <glyph glyph-name="ugrave" unicode="&#xf9;" horiz-adv-x="1195" 
d="M1151 1078l-229 -1078h-166l33 146h-16q-48 -74 -133 -119.5t-201 -45.5q-145 0 -233.5 88.5t-88.5 224.5q0 67 15 140l135 644h175l-131 -619q-14 -68 -14 -121q0 -103 51.5 -152.5t157.5 -49.5q127 0 216 81.5t117 212.5l138 648h174zM663 1228l-139 340h210l83 -340
h-154z" />
    <glyph glyph-name="uacute" unicode="&#xfa;" horiz-adv-x="1195" 
d="M1151 1078l-229 -1078h-166l33 146h-16q-48 -74 -133 -119.5t-201 -45.5q-145 0 -233.5 88.5t-88.5 224.5q0 67 15 140l135 644h175l-131 -619q-14 -68 -14 -121q0 -103 51.5 -152.5t157.5 -49.5q127 0 216 81.5t117 212.5l138 648h174zM803 1228h-154l227 340h210z" />
    <glyph glyph-name="ucircumflex" unicode="&#xfb;" horiz-adv-x="1195" 
d="M1151 1078l-229 -1078h-166l33 146h-16q-48 -74 -133 -119.5t-201 -45.5q-145 0 -233.5 88.5t-88.5 224.5q0 67 15 140l135 644h175l-131 -619q-14 -68 -14 -121q0 -103 51.5 -152.5t157.5 -49.5q127 0 216 81.5t117 212.5l138 648h174zM895 1568l182 -340h-188l-100 227
h-16l-191 -227h-191l302 340h202z" />
    <glyph glyph-name="udieresis" unicode="&#xfc;" horiz-adv-x="1195" 
d="M1151 1078l-229 -1078h-166l33 146h-16q-48 -74 -133 -119.5t-201 -45.5q-145 0 -233.5 88.5t-88.5 224.5q0 67 15 140l135 644h175l-131 -619q-14 -68 -14 -121q0 -103 51.5 -152.5t157.5 -49.5q127 0 216 81.5t117 212.5l138 648h174zM552 1286q-50 0 -85 35t-35 85
t35 85t85 35t85 -35t35 -85t-35 -85t-85 -35zM986 1286q-50 0 -85 35t-35 85t35 85t85 35t85 -35t35 -85t-35 -85t-85 -35z" />
    <glyph glyph-name="yacute" unicode="&#xfd;" horiz-adv-x="1112" 
d="M103 -392q-63 0 -124 16l30 143q43 -13 104 -13q56 0 103.5 40.5t101.5 140.5l39 73l-175 1070h171l128 -857h16l472 857h189l-686 -1196q-91 -159 -172.5 -216.5t-196.5 -57.5zM773 1228h-154l227 340h210z" />
    <glyph glyph-name="thorn" unicode="&#xfe;" horiz-adv-x="1260" 
d="M598 136q165 0 275 148t110 370q0 136 -68.5 212t-190.5 76q-167 0 -282 -147t-115 -361q0 -137 73 -217.5t198 -80.5zM272 199l-121 -559h-173l397 1866h172l-120 -575h16q123 166 338 166q163 0 272.5 -118.5t109.5 -298.5q0 -194 -72.5 -354.5t-199.5 -252.5t-280 -92
q-116 0 -205 60.5t-118 157.5h-16z" />
    <glyph glyph-name="ydieresis" unicode="&#xff;" horiz-adv-x="1112" 
d="M103 -392q-63 0 -124 16l30 143q43 -13 104 -13q56 0 103.5 40.5t101.5 140.5l39 73l-175 1070h171l128 -857h16l472 857h189l-686 -1196q-91 -159 -172.5 -216.5t-196.5 -57.5zM522 1286q-50 0 -85 35t-35 85t35 85t85 35t85 -35t35 -85t-35 -85t-85 -35zM956 1286
q-50 0 -85 35t-35 85t35 85t85 35t85 -35t35 -85t-35 -85t-85 -35z" />
    <glyph glyph-name="Amacron" unicode="&#x100;" horiz-adv-x="1380" 
d="M829 1207l-362 -641h473l-95 641h-16zM1018 0l-58 413h-579l-232 -413h-193l845 1443h167l226 -1443h-176zM1286 1817l-29 -136h-654l29 136h654z" />
    <glyph glyph-name="amacron" unicode="&#x101;" horiz-adv-x="1126" 
d="M435 130q121 0 214 71.5t117 181.5l27 124l-287 -14q-132 -7 -205 -58.5t-73 -136.5q0 -74 58 -121t149 -47zM381 -19q-141 0 -235.5 86t-94.5 212q0 159 120.5 251t344.5 102l306 14l16 73q6 33 6 51q0 82 -61 127.5t-170 45.5q-91 0 -152 -35t-87 -100h-182
q36 133 153.5 211t281.5 78q178 0 285 -82.5t107 -219.5q0 -43 -9 -88l-150 -707h-167l30 141h-16q-57 -75 -143 -117.5t-183 -42.5zM1050 1472l-29 -136h-654l29 136h654z" />
    <glyph glyph-name="Abreve" unicode="&#x102;" horiz-adv-x="1380" 
d="M829 1207l-362 -641h473l-95 641h-16zM1018 0l-58 413h-579l-232 -413h-193l845 1443h167l226 -1443h-176zM919 1575q-146 0 -232.5 79t-85.5 220l145 -1q0 -78 48.5 -124t130.5 -46q79 0 135 43.5t77 126.5h151q-26 -137 -124 -217.5t-245 -80.5z" />
    <glyph glyph-name="abreve" unicode="&#x103;" horiz-adv-x="1126" 
d="M435 130q121 0 214 71.5t117 181.5l27 124l-287 -14q-132 -7 -205 -58.5t-73 -136.5q0 -74 58 -121t149 -47zM381 -19q-141 0 -235.5 86t-94.5 212q0 159 120.5 251t344.5 102l306 14l16 73q6 33 6 51q0 82 -61 127.5t-170 45.5q-91 0 -152 -35t-87 -100h-182
q36 133 153.5 211t281.5 78q178 0 285 -82.5t107 -219.5q0 -43 -9 -88l-150 -707h-167l30 141h-16q-57 -75 -143 -117.5t-183 -42.5zM707 1228q-64 0 -117 15.5t-88 42t-61.5 61.5t-36.5 72.5t-14 76t7 72.5h143q-12 -89 33 -150.5t142 -61.5q88 0 147.5 55t72.5 157h149
q-15 -154 -115.5 -247t-261.5 -93z" />
    <glyph glyph-name="Aogonek" unicode="&#x104;" horiz-adv-x="1380" 
d="M1102 -288l-29 -134q-33 -10 -73 -10q-105 0 -172.5 55t-67.5 139q0 83 65 154t189 113l-54 384h-579l-232 -413h-193l845 1443h167l226 -1443l-39 -12q-103 -32 -160.5 -80.5t-57.5 -107.5q0 -42 34 -66.5t93 -24.5q23 0 38 3zM829 1207l-362 -641h473l-95 641h-16z" />
    <glyph glyph-name="aogonek" unicode="&#x105;" horiz-adv-x="1126" 
d="M793 507l-287 -14q-132 -7 -205 -58.5t-73 -136.5q0 -74 58 -121t149 -47q121 0 214 71.5t117 181.5zM374 808h-182q36 133 153.5 211t281.5 78q178 0 285 -82.5t107 -219.5q0 -43 -9 -88l-150 -707q-94 -41 -157 -98.5t-63 -116.5q0 -35 24 -55.5t70 -20.5q29 0 66 8
l-30 -142q-33 -10 -80 -10q-87 0 -151 50t-64 136q0 77 57 145.5t164 119.5l27 125h-16q-57 -75 -143 -117.5t-183 -42.5q-141 0 -235.5 86t-94.5 212q0 159 120.5 251t344.5 102l306 14l16 73q6 33 6 51q0 82 -61 127.5t-170 45.5q-91 0 -152 -35t-87 -100z" />
    <glyph glyph-name="Cacute" unicode="&#x106;" horiz-adv-x="1463" 
d="M1269 992v2q-11 145 -113 230.5t-263 85.5q-155 0 -283.5 -97t-202.5 -266t-74 -374q0 -203 106 -321.5t287 -118.5q146 0 258 67.5t151 179.5h190q-54 -193 -219 -303.5t-400 -110.5q-252 0 -406 161.5t-154 426.5q0 197 58 368.5t158.5 293t241.5 191.5t303 70
q235 0 390 -136.5t155 -342.5v-6h-183zM1006 1577h-154l199 298h203z" />
    <glyph glyph-name="cacute" unicode="&#x107;" horiz-adv-x="1135" 
d="M670 1097q159 0 273.5 -84.5t139.5 -217.5q3 -15 5 -47h-176q-8 84 -80.5 139t-175.5 55q-160 0 -267 -138t-107 -343q0 -150 72.5 -236.5t197.5 -86.5q100 0 172 44.5t103 125.5h179q-33 -147 -162 -237t-307 -90q-197 0 -316.5 125t-119.5 332q0 187 73 337.5
t203.5 236t292.5 85.5zM788 1228h-154l227 340h210z" />
    <glyph glyph-name="Ccircumflex" unicode="&#x108;" horiz-adv-x="1463" 
d="M1269 992v2q-11 145 -113 230.5t-263 85.5q-155 0 -283.5 -97t-202.5 -266t-74 -374q0 -203 106 -321.5t287 -118.5q146 0 258 67.5t151 179.5h190q-54 -193 -219 -303.5t-400 -110.5q-252 0 -406 161.5t-154 426.5q0 197 58 368.5t158.5 293t241.5 191.5t303 70
q235 0 390 -136.5t155 -342.5v-6h-183zM1076 1875l182 -298h-188l-101 195h-16l-190 -195h-191l302 298h202z" />
    <glyph glyph-name="ccircumflex" unicode="&#x109;" horiz-adv-x="1135" 
d="M670 1097q159 0 273.5 -84.5t139.5 -217.5q3 -15 5 -47h-176q-8 84 -80.5 139t-175.5 55q-160 0 -267 -138t-107 -343q0 -150 72.5 -236.5t197.5 -86.5q100 0 172 44.5t103 125.5h179q-33 -147 -162 -237t-307 -90q-197 0 -316.5 125t-119.5 332q0 187 73 337.5
t203.5 236t292.5 85.5zM880 1568l182 -340h-188l-100 227h-16l-191 -227h-191l302 340h202z" />
    <glyph glyph-name="Cdotaccent" unicode="&#x10a;" horiz-adv-x="1463" 
d="M1269 992v2q-11 145 -113 230.5t-263 85.5q-155 0 -283.5 -97t-202.5 -266t-74 -374q0 -203 106 -321.5t287 -118.5q146 0 258 67.5t151 179.5h190q-54 -193 -219 -303.5t-400 -110.5q-252 0 -406 161.5t-154 426.5q0 197 58 368.5t158.5 293t241.5 191.5t303 70
q235 0 390 -136.5t155 -342.5v-6h-183zM960 1633q-50 0 -85 35.5t-35 84.5t35 84.5t85 35.5t85 -35.5t35 -84.5t-35 -84.5t-85 -35.5z" />
    <glyph glyph-name="cdotaccent" unicode="&#x10b;" horiz-adv-x="1135" 
d="M670 1097q159 0 273.5 -84.5t139.5 -217.5q3 -15 5 -47h-176q-8 84 -80.5 139t-175.5 55q-160 0 -267 -138t-107 -343q0 -150 72.5 -236.5t197.5 -86.5q100 0 172 44.5t103 125.5h179q-33 -147 -162 -237t-307 -90q-197 0 -316.5 125t-119.5 332q0 187 73 337.5
t203.5 236t292.5 85.5zM752 1286q-50 0 -85 35t-35 85t35 85t85 35t85 -35t35 -85t-35 -85t-85 -35z" />
    <glyph glyph-name="Ccaron" unicode="&#x10c;" horiz-adv-x="1463" 
d="M1269 992v2q-11 145 -113 230.5t-263 85.5q-155 0 -283.5 -97t-202.5 -266t-74 -374q0 -203 106 -321.5t287 -118.5q146 0 258 67.5t151 179.5h190q-54 -193 -219 -303.5t-400 -110.5q-252 0 -406 161.5t-154 426.5q0 197 58 368.5t158.5 293t241.5 191.5t303 70
q235 0 390 -136.5t155 -342.5v-6h-183zM817 1577l-182 298h188l101 -195h16l190 195h191l-302 -298h-202z" />
    <glyph glyph-name="ccaron" unicode="&#x10d;" horiz-adv-x="1135" 
d="M670 1097q159 0 273.5 -84.5t139.5 -217.5q3 -15 5 -47h-176q-8 84 -80.5 139t-175.5 55q-160 0 -267 -138t-107 -343q0 -150 72.5 -236.5t197.5 -86.5q100 0 172 44.5t103 125.5h179q-33 -147 -162 -237t-307 -90q-197 0 -316.5 125t-119.5 332q0 187 73 337.5
t203.5 236t292.5 85.5zM630 1228l-182 340h188l100 -227h16l191 227h191l-302 -340h-202z" />
    <glyph glyph-name="Dcaron" unicode="&#x10e;" horiz-adv-x="1486" 
d="M375 1443h403q299 0 464 -167.5t165 -463.5q0 -171 -58 -322.5t-157.5 -258.5t-237.5 -169t-293 -62h-591zM525 1283l-239 -1123h382q117 0 220 49t176 134t115 204.5t42 255.5q0 227 -120.5 353.5t-336.5 126.5h-239zM646 1575l-182 298h188l101 -195h16l190 195h191
l-302 -298h-202z" />
    <glyph glyph-name="dcaron" unicode="&#x10f;" horiz-adv-x="1372" 
d="M1432 1568h178l-162 -490h-120zM490 -19q-166 0 -279 120.5t-113 316.5q0 192 74 348t201 243.5t281 87.5q116 0 205 -60.5t118 -157.5h16l133 627h175l-320 -1506h-166l31 147h-16q-59 -77 -148.5 -121.5t-191.5 -44.5zM545 136q110 0 200 67t141.5 183.5t51.5 257.5
q0 137 -73 217.5t-198 80.5q-166 0 -277.5 -141t-111.5 -357q0 -137 74 -222.5t193 -85.5z" />
    <glyph glyph-name="Dcroat" unicode="&#x110;" horiz-adv-x="1486" 
d="M286 160h382q117 0 220 49t176 134t115 204.5t42 255.5q0 227 -120.5 353.5t-336.5 126.5h-239l-97 -458h322l-35 -162h-322zM375 1443h403q299 0 464 -167.5t165 -463.5q0 -171 -58 -322.5t-157.5 -258.5t-237.5 -169t-293 -62h-591l140 663h-148l34 162h148z" />
    <glyph glyph-name="dcroat" unicode="&#x111;" horiz-adv-x="1265" 
d="M545 136q110 0 200 67t141.5 183.5t51.5 257.5q0 137 -73 217.5t-198 80.5q-166 0 -277.5 -141t-111.5 -357q0 -137 74 -222.5t193 -85.5zM1465 1421l-31 -144h-182l-271 -1277h-166l31 147h-16q-59 -77 -148.5 -121.5t-191.5 -44.5q-166 0 -279 120.5t-113 316.5
q0 192 74 348t201 243.5t281 87.5q116 0 205 -60.5t118 -157.5h16l84 398h-228l31 144h228l18 85h175l-18 -85h182z" />
    <glyph glyph-name="Emacron" unicode="&#x112;" horiz-adv-x="1219" 
d="M998 162l-34 -162h-896l307 1443h896l-35 -162h-711l-100 -463h675l-34 -160h-674l-106 -496h712zM1224 1817l-29 -136h-654l29 136h654z" />
    <glyph glyph-name="emacron" unicode="&#x113;" horiz-adv-x="1176" 
d="M306 638h585q2 12 2 45q0 112 -64.5 187t-181.5 75q-122 0 -212.5 -83t-128.5 -224zM540 -19q-188 0 -313 120t-125 331q0 297 156.5 481t404.5 184q174 0 291.5 -116.5t118.5 -319.5q0 -86 -13 -162h-777q-2 -36 -2 -54q0 -80 23.5 -141t63 -96t86 -52.5t97.5 -17.5
q197 0 271 137h183q-34 -129 -158 -211.5t-307 -82.5zM1067 1472l-29 -136h-654l29 136h654z" />
    <glyph glyph-name="Ebreve" unicode="&#x114;" horiz-adv-x="1219" 
d="M998 162l-34 -162h-896l307 1443h896l-35 -162h-711l-100 -463h675l-34 -160h-674l-106 -496h712zM857 1575q-146 0 -232.5 79t-85.5 220l145 -1q0 -78 48.5 -124t130.5 -46q79 0 135 43.5t77 126.5h151q-26 -137 -124 -217.5t-245 -80.5z" />
    <glyph glyph-name="ebreve" unicode="&#x115;" horiz-adv-x="1176" 
d="M306 638h585q2 12 2 45q0 112 -64.5 187t-181.5 75q-122 0 -212.5 -83t-128.5 -224zM540 -19q-188 0 -313 120t-125 331q0 297 156.5 481t404.5 184q174 0 291.5 -116.5t118.5 -319.5q0 -86 -13 -162h-777q-2 -36 -2 -54q0 -80 23.5 -141t63 -96t86 -52.5t97.5 -17.5
q197 0 271 137h183q-34 -129 -158 -211.5t-307 -82.5zM724 1228q-64 0 -117 15.5t-88 42t-61.5 61.5t-36.5 72.5t-14 76t7 72.5h143q-12 -89 33 -150.5t142 -61.5q88 0 147.5 55t72.5 157h149q-15 -154 -115.5 -247t-261.5 -93z" />
    <glyph glyph-name="Edotaccent" unicode="&#x116;" horiz-adv-x="1219" 
d="M998 162l-34 -162h-896l307 1443h896l-35 -162h-711l-100 -463h675l-34 -160h-674l-106 -496h712zM884 1631q-50 0 -85 35.5t-35 84.5t35 84.5t85 35.5t85 -35.5t35 -84.5t-35 -84.5t-85 -35.5z" />
    <glyph glyph-name="edotaccent" unicode="&#x117;" horiz-adv-x="1176" 
d="M306 638h585q2 12 2 45q0 112 -64.5 187t-181.5 75q-122 0 -212.5 -83t-128.5 -224zM540 -19q-188 0 -313 120t-125 331q0 297 156.5 481t404.5 184q174 0 291.5 -116.5t118.5 -319.5q0 -86 -13 -162h-777q-2 -36 -2 -54q0 -80 23.5 -141t63 -96t86 -52.5t97.5 -17.5
q197 0 271 137h183q-34 -129 -158 -211.5t-307 -82.5zM727 1286q-49 0 -84.5 35t-35.5 85t35.5 85t84.5 35t84.5 -35t35.5 -85t-35.5 -85t-84.5 -35z" />
    <glyph glyph-name="Eogonek" unicode="&#x118;" horiz-adv-x="1219" 
d="M68 0l307 1443h896l-35 -162h-711l-100 -463h675l-34 -160h-674l-106 -496h712l-34 -160l-45 -14q-103 -32 -160.5 -80.5t-57.5 -107.5q0 -42 34 -66.5t93 -24.5q23 0 38 3l-29 -134q-33 -10 -73 -10q-105 0 -172.5 55t-67.5 139q0 71 48 129.5t133 92.5l3 16h-640z" />
    <glyph glyph-name="eogonek" unicode="&#x119;" horiz-adv-x="1176" 
d="M668 -432q-105 0 -172.5 54.5t-67.5 139.5q0 59 43 117t110 89l4 20q-23 -7 -45 -7q-197 0 -317.5 124.5t-120.5 326.5q0 295 156 480t405 185q181 0 295 -121t115 -315q0 -90 -13 -162h-777q0 -10 -0.5 -22t-1 -19t-0.5 -13q0 -139 74 -223t196 -84q197 0 271 137h183
q-35 -134 -181 -225q-219 -138 -219 -250q0 -42 34 -66.5t93 -24.5q23 0 38 3l-29 -134q-40 -10 -73 -10zM306 638h585q2 12 2 45q0 118 -67.5 190t-178.5 72q-120 0 -211 -82t-130 -225z" />
    <glyph glyph-name="Ecaron" unicode="&#x11a;" horiz-adv-x="1219" 
d="M998 162l-34 -162h-896l307 1443h896l-35 -162h-711l-100 -463h675l-34 -160h-674l-106 -496h712zM741 1575l-182 298h188l101 -195h16l190 195h191l-302 -298h-202z" />
    <glyph glyph-name="ecaron" unicode="&#x11b;" horiz-adv-x="1176" 
d="M306 638h585q2 12 2 45q0 112 -64.5 187t-181.5 75q-122 0 -212.5 -83t-128.5 -224zM540 -19q-188 0 -313 120t-125 331q0 297 156.5 481t404.5 184q174 0 291.5 -116.5t118.5 -319.5q0 -86 -13 -162h-777q-2 -36 -2 -54q0 -80 23.5 -141t63 -96t86 -52.5t97.5 -17.5
q197 0 271 137h183q-34 -129 -158 -211.5t-307 -82.5zM605 1228l-182 340h188l100 -227h16l191 227h191l-302 -340h-202z" />
    <glyph glyph-name="Gcircumflex" unicode="&#x11c;" horiz-adv-x="1525" 
d="M1436 736l-42 -196q-60 -280 -232.5 -427t-440.5 -147q-257 0 -415.5 164t-158.5 432q0 195 57.5 365.5t158 291t242 189.5t303.5 69q225 0 377.5 -126t166.5 -323q1 -8 1 -36h-183q-11 146 -112.5 232t-263.5 86q-156 0 -284.5 -95.5t-202 -263t-73.5 -370.5
q0 -208 111 -328t302 -120q172 0 298.5 107t161.5 283l11 55h-400l34 158h584zM1074 1873l182 -298h-188l-101 195h-16l-190 -195h-191l302 298h202z" />
    <glyph glyph-name="gcircumflex" unicode="&#x11d;" horiz-adv-x="1247" 
d="M448 -413q-182 0 -304.5 90t-132.5 217h183q12 -68 83 -113t185 -45q139 0 221 65t108 177l47 200h-16q-116 -162 -326 -162q-167 0 -279.5 120.5t-112.5 310.5q0 141 41 263t112.5 206.5t170.5 132.5t212 48q114 0 209.5 -61.5t127.5 -156.5h16l42 199h167l-244 -1130
q-36 -167 -169.5 -264t-340.5 -97zM549 168q165 0 273 132.5t108 343.5q0 137 -75 217.5t-202 80.5q-162 0 -265.5 -128.5t-103.5 -340.5q0 -143 71 -224t194 -81zM889 1568l182 -340h-188l-100 227h-16l-191 -227h-191l302 340h202z" />
    <glyph glyph-name="Gbreve" unicode="&#x11e;" horiz-adv-x="1525" 
d="M1436 736l-42 -196q-60 -280 -232.5 -427t-440.5 -147q-257 0 -415.5 164t-158.5 432q0 195 57.5 365.5t158 291t242 189.5t303.5 69q225 0 377.5 -126t166.5 -323q1 -8 1 -36h-183q-11 146 -112.5 232t-263.5 86q-156 0 -284.5 -95.5t-202 -263t-73.5 -370.5
q0 -208 111 -328t302 -120q172 0 298.5 107t161.5 283l11 55h-400l34 158h584zM931 1575q-146 0 -232.5 79t-85.5 220l145 -1q0 -78 48.5 -124t130.5 -46q79 0 135 43.5t77 126.5h151q-26 -137 -124 -217.5t-245 -80.5z" />
    <glyph glyph-name="gbreve" unicode="&#x11f;" horiz-adv-x="1247" 
d="M448 -413q-182 0 -304.5 90t-132.5 217h183q12 -68 83 -113t185 -45q139 0 221 65t108 177l47 200h-16q-116 -162 -326 -162q-167 0 -279.5 120.5t-112.5 310.5q0 141 41 263t112.5 206.5t170.5 132.5t212 48q114 0 209.5 -61.5t127.5 -156.5h16l42 199h167l-244 -1130
q-36 -167 -169.5 -264t-340.5 -97zM549 168q165 0 273 132.5t108 343.5q0 137 -75 217.5t-202 80.5q-162 0 -265.5 -128.5t-103.5 -340.5q0 -143 71 -224t194 -81zM758 1228q-64 0 -117 15.5t-88 42t-61.5 61.5t-36.5 72.5t-14 76t7 72.5h143q-12 -89 33 -150.5t142 -61.5
q88 0 147.5 55t72.5 157h149q-15 -154 -115.5 -247t-261.5 -93z" />
    <glyph glyph-name="Gdotaccent" unicode="&#x120;" horiz-adv-x="1525" 
d="M1436 736l-42 -196q-60 -280 -232.5 -427t-440.5 -147q-257 0 -415.5 164t-158.5 432q0 195 57.5 365.5t158 291t242 189.5t303.5 69q225 0 377.5 -126t166.5 -323q1 -8 1 -36h-183q-11 146 -112.5 232t-263.5 86q-156 0 -284.5 -95.5t-202 -263t-73.5 -370.5
q0 -208 111 -328t302 -120q172 0 298.5 107t161.5 283l11 55h-400l34 158h584zM958 1631q-50 0 -85 35.5t-35 84.5t35 84.5t85 35.5t85 -35.5t35 -84.5t-35 -84.5t-85 -35.5z" />
    <glyph glyph-name="gdotaccent" unicode="&#x121;" horiz-adv-x="1247" 
d="M448 -413q-182 0 -304.5 90t-132.5 217h183q12 -68 83 -113t185 -45q139 0 221 65t108 177l47 200h-16q-116 -162 -326 -162q-167 0 -279.5 120.5t-112.5 310.5q0 141 41 263t112.5 206.5t170.5 132.5t212 48q114 0 209.5 -61.5t127.5 -156.5h16l42 199h167l-244 -1130
q-36 -167 -169.5 -264t-340.5 -97zM549 168q165 0 273 132.5t108 343.5q0 137 -75 217.5t-202 80.5q-162 0 -265.5 -128.5t-103.5 -340.5q0 -143 71 -224t194 -81zM761 1286q-49 0 -84.5 35t-35.5 85t35.5 85t84.5 35t84.5 -35t35.5 -85t-35.5 -85t-84.5 -35z" />
    <glyph glyph-name="Gcommaaccent" unicode="&#x122;" horiz-adv-x="1525" 
d="M1436 736l-42 -196q-60 -280 -232.5 -427t-440.5 -147q-257 0 -415.5 164t-158.5 432q0 195 57.5 365.5t158 291t242 189.5t303.5 69q225 0 377.5 -126t166.5 -323q1 -8 1 -36h-183q-11 146 -112.5 232t-263.5 86q-156 0 -284.5 -95.5t-202 -263t-73.5 -370.5
q0 -208 111 -328t302 -120q172 0 298.5 107t161.5 283l11 55h-400l34 158h584zM606 -494h-127l141 377h182z" />
    <glyph glyph-name="gcommaaccent" unicode="&#x123;" horiz-adv-x="1247" 
d="M830 1605h127l-141 -377h-182zM448 -413q-182 0 -304.5 90t-132.5 217h183q12 -68 83 -113t185 -45q139 0 221 65t108 177l47 200h-16q-116 -162 -326 -162q-167 0 -279.5 120.5t-112.5 310.5q0 141 41 263t112.5 206.5t170.5 132.5t212 48q114 0 209.5 -61.5
t127.5 -156.5h16l42 199h167l-244 -1130q-36 -167 -169.5 -264t-340.5 -97zM549 168q165 0 273 132.5t108 343.5q0 137 -75 217.5t-202 80.5q-162 0 -265.5 -128.5t-103.5 -340.5q0 -143 71 -224t194 -81z" />
    <glyph glyph-name="Hcircumflex" unicode="&#x124;" horiz-adv-x="1522" 
d="M1224 0h-185l140 657h-788l-140 -657h-183l307 1443h184l-133 -624h788l133 624h184zM1130 1873l182 -298h-188l-101 195h-16l-190 -195h-191l302 298h202z" />
    <glyph glyph-name="hcircumflex" unicode="&#x125;" horiz-adv-x="1216" 
d="M55 0l322 1506h175l-127 -589h16q58 84 133.5 132t189.5 48q153 0 244.5 -95t91.5 -229q0 -56 -14 -124l-138 -649h-175l132 619q13 63 13 105q0 100 -59 159t-168 59q-124 0 -209 -79t-112 -205l-140 -658h-175zM641 1936l182 -298h-188l-101 195h-16l-190 -195h-191
l302 298h202z" />
    <glyph glyph-name="Hbar" unicode="&#x126;" horiz-adv-x="1522" 
d="M1214 819l52 246h-788l-52 -246h788zM1640 1227l-35 -162h-154l-227 -1065h-185l140 657h-788l-140 -657h-183l227 1065h-135l35 162h134l46 216h184l-46 -216h788l46 216h184l-46 -216h155z" />
    <glyph glyph-name="hbar" unicode="&#x127;" horiz-adv-x="1216" 
d="M425 917h16q58 84 133.5 132t189.5 48q153 0 244.5 -95t91.5 -229q0 -56 -14 -124l-138 -649h-175l132 619q13 63 13 105q0 100 -59 159t-168 59q-124 0 -209 -79t-112 -205l-140 -658h-175l273 1277h-144l31 144h144l18 85h175l-18 -85h261l-31 -144h-261z" />
    <glyph glyph-name="Itilde" unicode="&#x128;" horiz-adv-x="550" 
d="M252 0h-184l307 1443h184zM160 1606q19 118 79 188t157 70q43 0 78 -15.5t57.5 -37.5t41 -44t39 -37.5t41.5 -15.5q33 0 54.5 29.5t35.5 94.5h142q-19 -118 -78.5 -188t-158.5 -70q-44 0 -78.5 15.5t-56.5 37.5t-40.5 44t-38.5 37.5t-42 15.5q-33 0 -54.5 -29.5
t-35.5 -94.5h-142z" />
    <glyph glyph-name="itilde" unicode="&#x129;" horiz-adv-x="516" 
d="M57 0l229 1078h172l-229 -1078h-172zM69 1261q19 118 79 188t157 70q43 0 78 -15.5t57.5 -37.5t41 -44t39 -37.5t41.5 -15.5q33 0 54.5 29.5t35.5 94.5h142q-19 -118 -78.5 -188t-158.5 -70q-44 0 -78.5 15.5t-56.5 37.5t-40.5 44t-38.5 37.5t-42 15.5q-33 0 -54.5 -29.5
t-35.5 -94.5h-142z" />
    <glyph glyph-name="Imacron" unicode="&#x12a;" horiz-adv-x="550" 
d="M252 0h-184l307 1443h184zM869 1817l-29 -136h-654l29 136h654z" />
    <glyph glyph-name="imacron" unicode="&#x12b;" horiz-adv-x="516" 
d="M57 0l229 1078h172l-229 -1078h-172zM700 1472l-25 -136h-556l25 136h556z" />
    <glyph glyph-name="Ibreve" unicode="&#x12c;" horiz-adv-x="550" 
d="M252 0h-184l307 1443h184zM502 1575q-146 0 -232.5 79t-85.5 220l145 -1q0 -78 48.5 -124t130.5 -46q79 0 135 43.5t77 126.5h151q-26 -137 -124 -217.5t-245 -80.5z" />
    <glyph glyph-name="ibreve" unicode="&#x12d;" horiz-adv-x="516" 
d="M57 0l229 1078h172l-229 -1078h-172zM435 1228q-64 0 -117 15.5t-88 42t-61.5 61.5t-36.5 72.5t-14 76t7 72.5h143q-12 -89 33 -150.5t142 -61.5q88 0 147.5 55t72.5 157h149q-15 -154 -115.5 -247t-261.5 -93z" />
    <glyph glyph-name="Iogonek" unicode="&#x12e;" horiz-adv-x="550" 
d="M104 -432q-105 0 -172.5 55t-67.5 139q0 75 55 142t149 96l307 1443h184l-309 -1452l-11 -3q-198 -62 -198 -188q0 -42 34 -66.5t93 -24.5q23 0 38 3l-29 -134q-33 -10 -73 -10z" />
    <glyph glyph-name="iogonek" unicode="&#x12f;" horiz-adv-x="516" 
d="M154 -422q-33 -10 -73 -10q-105 0 -172.5 55t-67.5 139q0 76 58.5 147.5t159.5 100.5l227 1068h172l-231 -1088l-11 -3q-99 -27 -148.5 -76t-49.5 -111q0 -42 34 -66.5t93 -24.5q23 0 38 3zM445 1297q-49 0 -84.5 35.5t-35.5 84.5t35.5 84.5t84.5 35.5t84.5 -35.5
t35.5 -84.5t-35.5 -84.5t-84.5 -35.5z" />
    <glyph glyph-name="Idotaccent" unicode="&#x130;" horiz-adv-x="550" 
d="M252 0h-184l307 1443h184zM529 1631q-49 0 -84.5 35.5t-35.5 84.5t35.5 84.5t84.5 35.5t84.5 -35.5t35.5 -84.5t-35.5 -84.5t-84.5 -35.5z" />
    <glyph glyph-name="dotlessi" unicode="&#x131;" horiz-adv-x="516" 
d="M57 0l229 1078h172l-229 -1078h-172z" />
    <glyph glyph-name="IJ" unicode="&#x132;" horiz-adv-x="1652" 
d="M252 0h-184l307 1443h184zM591 337h181q2 -94 62 -148t161 -54q208 0 265 269l221 1039h179l-228 -1080q-40 -191 -157.5 -294t-301.5 -103q-174 0 -283.5 106.5t-98.5 264.5z" />
    <glyph glyph-name="ij" unicode="&#x133;" horiz-adv-x="1032" 
d="M57 0l229 1078h172l-229 -1078h-172zM438 1286q-50 0 -85 35t-35 85t35 85t85 35t85 -35t35 -85t-35 -85t-85 -35zM975 1078l-246 -1157q-32 -151 -115.5 -221t-229.5 -70q-52 0 -85 5l35 152q23 -4 55 -4q76 0 115 36t58 125l241 1134h172zM955 1286q-49 0 -84.5 35
t-35.5 85t35.5 85t84.5 35t84.5 -35t35.5 -85t-35.5 -85t-84.5 -35z" />
    <glyph glyph-name="Jcircumflex" unicode="&#x134;" horiz-adv-x="1102" 
d="M41 337h181q2 -94 62 -148t161 -54q208 0 265 269l221 1039h179l-228 -1080q-40 -191 -157.5 -294t-301.5 -103q-174 0 -283.5 106.5t-98.5 264.5zM1197 1873l182 -298h-188l-101 195h-16l-190 -195h-191l302 298h202z" />
    <glyph glyph-name="jcircumflex" unicode="&#x135;" horiz-adv-x="516" 
d="M459 1078l-246 -1157q-32 -151 -115.5 -221t-229.5 -70q-52 0 -85 5l35 152q23 -4 55 -4q76 0 115 36t58 125l241 1134h172zM567 1568l182 -340h-188l-100 227h-16l-191 -227h-191l302 340h202z" />
    <glyph glyph-name="Kcommaaccent" unicode="&#x136;" horiz-adv-x="1349" 
d="M249 0h-180l307 1443h179l-149 -701h16l772 701h235l-702 -635l449 -808h-210l-381 697l-229 -204zM460 -494h-127l141 377h182z" />
    <glyph glyph-name="kcommaaccent" unicode="&#x137;" horiz-adv-x="1086" 
d="M229 0h-174l320 1506h174l-185 -870h16l546 442h227l-565 -465l363 -613h-201l-301 516l-130 -94zM360 -494h-127l141 377h182z" />
    <glyph glyph-name="Lacute" unicode="&#x139;" horiz-adv-x="1164" 
d="M980 162l-34 -162h-878l307 1443h184l-273 -1281h694zM574 1575h-154l199 298h203z" />
    <glyph glyph-name="lacute" unicode="&#x13a;" horiz-adv-x="516" 
d="M55 0l320 1506h176l-320 -1506h-176zM570 1638h-154l199 298h203z" />
    <glyph glyph-name="Lcommaaccent" unicode="&#x13b;" horiz-adv-x="1164" 
d="M980 162l-34 -162h-878l307 1443h184l-273 -1281h694zM379 -494h-127l141 377h182z" />
    <glyph glyph-name="lcommaaccent" unicode="&#x13c;" horiz-adv-x="516" 
d="M55 0l320 1506h176l-320 -1506h-176zM15 -494h-127l141 377h182z" />
    <glyph glyph-name="Lcaron" unicode="&#x13d;" horiz-adv-x="1164" 
d="M980 162l-34 -162h-878l307 1443h184l-273 -1281h694zM864 1568h178l-167 -520h-120z" />
    <glyph glyph-name="lcaron" unicode="&#x13e;" horiz-adv-x="646" 
d="M55 0l320 1506h176l-320 -1506h-176zM706 1568h178l-162 -490h-120z" />
    <glyph glyph-name="Lslash" unicode="&#x141;" horiz-adv-x="1164" 
d="M286 162h694l-34 -162h-878l153 718l-181 -75l30 143l181 75l124 582h184l-106 -498l317 132l-30 -143l-318 -132z" />
    <glyph glyph-name="lslash" unicode="&#x142;" horiz-adv-x="516" 
d="M571 994l-30 -143l-142 -62l-168 -789h-176l150 705l-136 -59l30 143l136 59l140 658h176l-122 -574z" />
    <glyph glyph-name="Nacute" unicode="&#x143;" horiz-adv-x="1520" 
d="M250 0h-182l307 1443h177l534 -1153h16l245 1153h182l-307 -1443h-179l-533 1150h-16zM1069 1575h-154l199 298h203z" />
    <glyph glyph-name="nacute" unicode="&#x144;" horiz-adv-x="1198" 
d="M45 0l229 1078h167l-34 -161h16q126 180 327 180q150 0 241 -95t91 -229q0 -56 -14 -124l-138 -649h-175l132 619q13 63 13 105q0 99 -58.5 158.5t-164.5 59.5q-121 0 -205.5 -79t-111.5 -205l-140 -658h-175zM819 1228h-154l227 340h210z" />
    <glyph glyph-name="Ncommaaccent" unicode="&#x145;" horiz-adv-x="1520" 
d="M250 0h-182l307 1443h177l534 -1153h16l245 1153h182l-307 -1443h-179l-533 1150h-16zM517 -494h-127l141 377h182z" />
    <glyph glyph-name="ncommaaccent" unicode="&#x146;" horiz-adv-x="1198" 
d="M45 0l229 1078h167l-34 -161h16q126 180 327 180q150 0 241 -95t91 -229q0 -56 -14 -124l-138 -649h-175l132 619q13 63 13 105q0 99 -58.5 158.5t-164.5 59.5q-121 0 -205.5 -79t-111.5 -205l-140 -658h-175zM359 -494h-127l141 377h182z" />
    <glyph glyph-name="Ncaron" unicode="&#x147;" horiz-adv-x="1520" 
d="M250 0h-182l307 1443h177l534 -1153h16l245 1153h182l-307 -1443h-179l-533 1150h-16zM880 1575l-182 298h188l101 -195h16l190 195h191l-302 -298h-202z" />
    <glyph glyph-name="ncaron" unicode="&#x148;" horiz-adv-x="1198" 
d="M45 0l229 1078h167l-34 -161h16q126 180 327 180q150 0 241 -95t91 -229q0 -56 -14 -124l-138 -649h-175l132 619q13 63 13 105q0 99 -58.5 158.5t-164.5 59.5q-121 0 -205.5 -79t-111.5 -205l-140 -658h-175zM661 1228l-182 340h188l100 -227h16l191 227h191l-302 -340
h-202z" />
    <glyph glyph-name="Omacron" unicode="&#x14c;" horiz-adv-x="1579" 
d="M913 1310q-162 0 -294.5 -95.5t-207.5 -263t-75 -372.5q0 -200 113 -323t297 -123q163 0 294 94t205 261t74 376q0 199 -112.5 322.5t-293.5 123.5zM732 -34q-253 0 -419.5 169.5t-166.5 427.5q0 194 59.5 364t162.5 290.5t248 190t311 69.5t299.5 -77t208 -213.5
t74.5 -306.5q0 -261 -100 -470t-277.5 -326.5t-399.5 -117.5zM1324 1815l-29 -136h-654l29 136h654z" />
    <glyph glyph-name="omacron" unicode="&#x14d;" horiz-adv-x="1212" 
d="M563 136q99 0 183 64t132.5 173.5t48.5 238.5q0 154 -72 242t-199 88q-167 0 -270 -136.5t-103 -357.5q0 -140 77 -226t203 -86zM672 1097q196 0 317.5 -123t121.5 -321q0 -191 -73.5 -345t-204 -240.5t-292.5 -86.5q-196 0 -318.5 124t-122.5 322q0 294 160.5 482
t411.5 188zM1076 1472l-29 -136h-654l29 136h654z" />
    <glyph glyph-name="Obreve" unicode="&#x14e;" horiz-adv-x="1579" 
d="M913 1310q-162 0 -294.5 -95.5t-207.5 -263t-75 -372.5q0 -200 113 -323t297 -123q163 0 294 94t205 261t74 376q0 199 -112.5 322.5t-293.5 123.5zM732 -34q-253 0 -419.5 169.5t-166.5 427.5q0 194 59.5 364t162.5 290.5t248 190t311 69.5t299.5 -77t208 -213.5
t74.5 -306.5q0 -261 -100 -470t-277.5 -326.5t-399.5 -117.5zM957 1573q-146 0 -232.5 79t-85.5 220l145 -1q0 -78 48.5 -124t130.5 -46q79 0 135 43.5t77 126.5h151q-26 -137 -124 -217.5t-245 -80.5z" />
    <glyph glyph-name="obreve" unicode="&#x14f;" horiz-adv-x="1212" 
d="M563 136q99 0 183 64t132.5 173.5t48.5 238.5q0 154 -72 242t-199 88q-167 0 -270 -136.5t-103 -357.5q0 -140 77 -226t203 -86zM672 1097q196 0 317.5 -123t121.5 -321q0 -191 -73.5 -345t-204 -240.5t-292.5 -86.5q-196 0 -318.5 124t-122.5 322q0 294 160.5 482
t411.5 188zM733 1228q-64 0 -117 15.5t-88 42t-61.5 61.5t-36.5 72.5t-14 76t7 72.5h143q-12 -89 33 -150.5t142 -61.5q88 0 147.5 55t72.5 157h149q-15 -154 -115.5 -247t-261.5 -93z" />
    <glyph glyph-name="Ohungarumlaut" unicode="&#x150;" horiz-adv-x="1579" 
d="M913 1310q-162 0 -294.5 -95.5t-207.5 -263t-75 -372.5q0 -200 113 -323t297 -123q163 0 294 94t205 261t74 376q0 199 -112.5 322.5t-293.5 123.5zM732 -34q-253 0 -419.5 169.5t-166.5 427.5q0 194 59.5 364t162.5 290.5t248 190t311 69.5t299.5 -77t208 -213.5
t74.5 -306.5q0 -261 -100 -470t-277.5 -326.5t-399.5 -117.5zM845 1573h-141l141 298h190zM1174 1573h-154l199 298h203z" />
    <glyph glyph-name="ohungarumlaut" unicode="&#x151;" horiz-adv-x="1212" 
d="M563 136q99 0 183 64t132.5 173.5t48.5 238.5q0 154 -72 242t-199 88q-167 0 -270 -136.5t-103 -357.5q0 -140 77 -226t203 -86zM672 1097q196 0 317.5 -123t121.5 -321q0 -191 -73.5 -345t-204 -240.5t-292.5 -86.5q-196 0 -318.5 124t-122.5 322q0 294 160.5 482
t411.5 188zM449 1228l161 340h197l-217 -340h-141zM765 1228l227 340h210l-283 -340h-154z" />
    <glyph glyph-name="OE" unicode="&#x152;" horiz-adv-x="2325" 
d="M1166 0l30 140l-16 -1q-178 -173 -448 -173q-253 0 -419.5 169.5t-166.5 427.5q0 194 59.5 364t162.5 290.5t248 190t311 69.5q162 0 288 -77.5t189 -202.5l17 1l52 245h896l-35 -162h-711l-100 -463h675l-34 -160h-674l-106 -496h712l-34 -162h-896zM1319 864
q0 199 -112.5 322.5t-293.5 123.5q-162 0 -294 -95t-207.5 -263t-75.5 -373q0 -200 113.5 -323t296.5 -123q163 0 294 94t205 261t74 376z" />
    <glyph glyph-name="oe" unicode="&#x153;" horiz-adv-x="1991" 
d="M1355 -19q-129 0 -226.5 57t-151.5 165h-16q-156 -222 -423 -222q-195 0 -316.5 123.5t-121.5 322.5q0 294 160.5 482t411.5 188q130 0 225 -60t144 -172h16q71 113 178 172.5t243 59.5q181 0 295 -121t115 -315q0 -90 -13 -162h-777q-2 -52 -2 -56q0 -138 74 -221.5
t196 -83.5q197 0 271 137h183q-35 -134 -162 -214t-303 -80zM1121 638h585q2 12 2 45q0 118 -67.5 190t-178.5 72q-120 0 -211 -82t-130 -225zM283 448q0 -140 77 -226t203 -86q99 0 183 64t132.5 173.5t48.5 238.5q0 154 -72 242t-199 88q-167 0 -270 -136.5t-103 -357.5z
" />
    <glyph glyph-name="Racute" unicode="&#x154;" horiz-adv-x="1338" 
d="M68 0l307 1443h499q196 0 313.5 -104t117.5 -278q0 -168 -105.5 -294t-281.5 -168l207 -599h-196l-188 571h-368l-121 -571h-184zM525 1283l-118 -552h348q159 0 259.5 87.5t100.5 225.5q0 110 -66.5 174.5t-179.5 64.5h-344zM886 1575h-154l199 298h203z" />
    <glyph glyph-name="racute" unicode="&#x155;" horiz-adv-x="791" 
d="M37 0l229 1078h166l-29 -137h16q104 156 289 156q87 0 126 -15l-37 -165q-58 13 -136 13q-130 0 -206.5 -71t-108.5 -222l-135 -637h-174zM616 1228h-154l227 340h210z" />
    <glyph glyph-name="Rcommaaccent" unicode="&#x156;" horiz-adv-x="1338" 
d="M68 0l307 1443h499q196 0 313.5 -104t117.5 -278q0 -168 -105.5 -294t-281.5 -168l207 -599h-196l-188 571h-368l-121 -571h-184zM525 1283l-118 -552h348q159 0 259.5 87.5t100.5 225.5q0 110 -66.5 174.5t-179.5 64.5h-344zM463 -494h-127l141 377h182z" />
    <glyph glyph-name="rcommaaccent" unicode="&#x157;" horiz-adv-x="791" 
d="M37 0l229 1078h166l-29 -137h16q104 156 289 156q87 0 126 -15l-37 -165q-58 13 -136 13q-130 0 -206.5 -71t-108.5 -222l-135 -637h-174zM5 -494h-127l141 377h182z" />
    <glyph glyph-name="Rcaron" unicode="&#x158;" horiz-adv-x="1338" 
d="M68 0l307 1443h499q196 0 313.5 -104t117.5 -278q0 -168 -105.5 -294t-281.5 -168l207 -599h-196l-188 571h-368l-121 -571h-184zM525 1283l-118 -552h348q159 0 259.5 87.5t100.5 225.5q0 110 -66.5 174.5t-179.5 64.5h-344zM697 1575l-182 298h188l101 -195h16l190 195
h191l-302 -298h-202z" />
    <glyph glyph-name="rcaron" unicode="&#x159;" horiz-adv-x="791" 
d="M37 0l229 1078h166l-29 -137h16q104 156 289 156q87 0 126 -15l-37 -165q-58 13 -136 13q-130 0 -206.5 -71t-108.5 -222l-135 -637h-174zM458 1228l-182 340h188l100 -227h16l191 227h191l-302 -340h-202z" />
    <glyph glyph-name="Sacute" unicode="&#x15a;" horiz-adv-x="1276" 
d="M64 400h182q26 -125 126.5 -198t246.5 -73q149 0 241.5 70.5t92.5 185.5q0 89 -61.5 150t-201.5 110l-137 48q-148 52 -229.5 149t-81.5 221q0 178 145.5 296t363.5 118q206 0 348 -118t158 -302h-181q-28 122 -116.5 189.5t-219.5 67.5q-134 0 -221 -66.5t-87 -168.5
q0 -77 57 -134t175 -100l130 -47q178 -64 264 -160t86 -230q0 -196 -150.5 -319t-389.5 -123q-222 0 -366.5 116t-173.5 318zM909 1575h-154l199 298h203z" />
    <glyph glyph-name="sacute" unicode="&#x15b;" horiz-adv-x="1052" 
d="M172 775q0 143 114.5 232.5t289.5 89.5q169 0 276 -80t129 -215h-171q-17 70 -80 109.5t-157 39.5q-99 0 -163.5 -45t-64.5 -115q0 -97 151 -146l146 -47q135 -43 196 -112.5t61 -178.5q0 -142 -123 -234t-311 -92q-177 0 -293.5 85t-128.5 223h177q21 -73 87.5 -118
t165.5 -45q109 0 179 47t70 121q0 103 -135 146l-165 53q-127 41 -188.5 108.5t-61.5 173.5zM697 1228h-154l227 340h210z" />
    <glyph glyph-name="Scircumflex" unicode="&#x15c;" horiz-adv-x="1276" 
d="M64 400h182q26 -125 126.5 -198t246.5 -73q149 0 241.5 70.5t92.5 185.5q0 89 -61.5 150t-201.5 110l-137 48q-148 52 -229.5 149t-81.5 221q0 178 145.5 296t363.5 118q206 0 348 -118t158 -302h-181q-28 122 -116.5 189.5t-219.5 67.5q-134 0 -221 -66.5t-87 -168.5
q0 -77 57 -134t175 -100l130 -47q178 -64 264 -160t86 -230q0 -196 -150.5 -319t-389.5 -123q-222 0 -366.5 116t-173.5 318zM979 1873l182 -298h-188l-101 195h-16l-190 -195h-191l302 298h202z" />
    <glyph glyph-name="scircumflex" unicode="&#x15d;" horiz-adv-x="1052" 
d="M172 775q0 143 114.5 232.5t289.5 89.5q169 0 276 -80t129 -215h-171q-17 70 -80 109.5t-157 39.5q-99 0 -163.5 -45t-64.5 -115q0 -97 151 -146l146 -47q135 -43 196 -112.5t61 -178.5q0 -142 -123 -234t-311 -92q-177 0 -293.5 85t-128.5 223h177q21 -73 87.5 -118
t165.5 -45q109 0 179 47t70 121q0 103 -135 146l-165 53q-127 41 -188.5 108.5t-61.5 173.5zM789 1568l182 -340h-188l-100 227h-16l-191 -227h-191l302 340h202z" />
    <glyph glyph-name="Scedilla" unicode="&#x15e;" horiz-adv-x="1276" 
d="M664 845l130 -47q178 -64 264 -160t86 -230q0 -178 -126.5 -297.5t-333.5 -140.5l-75 -108q75 0 128 -42t53 -121q0 -93 -74.5 -140.5t-190.5 -47.5q-86 0 -155 23l25 114q48 -16 112 -16q120 0 120 63q0 65 -129 65h-60l19 90l81 119q-195 17 -321 131t-153 300h182
q26 -125 126.5 -198t246.5 -73q149 0 241.5 70.5t92.5 185.5q0 89 -61.5 150t-201.5 110l-137 48q-148 52 -229.5 149t-81.5 221q0 178 145.5 296t363.5 118q206 0 348 -118t158 -302h-181q-28 122 -116.5 189.5t-219.5 67.5q-134 0 -221 -66.5t-87 -168.5q0 -77 57 -134
t175 -100z" />
    <glyph glyph-name="scedilla" unicode="&#x15f;" horiz-adv-x="1052" 
d="M496 645l146 -47q135 -43 196 -112.5t61 -178.5q0 -128 -102 -217t-265 -106l-85 -122q75 0 128 -42t53 -121q0 -93 -74.5 -140.5t-190.5 -47.5q-86 0 -155 23l25 114q48 -16 112 -16q120 0 120 63q0 65 -129 65h-60l19 90l92 136q-147 18 -240.5 100t-103.5 203h177
q21 -73 87.5 -118t165.5 -45q109 0 179 47t70 121q0 103 -135 146l-165 53q-127 41 -188.5 108.5t-61.5 173.5q0 143 114.5 232.5t289.5 89.5q169 0 276 -80t129 -215h-171q-17 70 -80 109.5t-157 39.5q-99 0 -163.5 -45t-64.5 -115q0 -97 151 -146z" />
    <glyph glyph-name="Scaron" unicode="&#x160;" horiz-adv-x="1276" 
d="M64 400h182q26 -125 126.5 -198t246.5 -73q149 0 241.5 70.5t92.5 185.5q0 89 -61.5 150t-201.5 110l-137 48q-148 52 -229.5 149t-81.5 221q0 178 145.5 296t363.5 118q206 0 348 -118t158 -302h-181q-28 122 -116.5 189.5t-219.5 67.5q-134 0 -221 -66.5t-87 -168.5
q0 -77 57 -134t175 -100l130 -47q178 -64 264 -160t86 -230q0 -196 -150.5 -319t-389.5 -123q-222 0 -366.5 116t-173.5 318zM720 1575l-182 298h188l101 -195h16l190 195h191l-302 -298h-202z" />
    <glyph glyph-name="scaron" unicode="&#x161;" horiz-adv-x="1052" 
d="M172 775q0 143 114.5 232.5t289.5 89.5q169 0 276 -80t129 -215h-171q-17 70 -80 109.5t-157 39.5q-99 0 -163.5 -45t-64.5 -115q0 -97 151 -146l146 -47q135 -43 196 -112.5t61 -178.5q0 -142 -123 -234t-311 -92q-177 0 -293.5 85t-128.5 223h177q21 -73 87.5 -118
t165.5 -45q109 0 179 47t70 121q0 103 -135 146l-165 53q-127 41 -188.5 108.5t-61.5 173.5zM539 1228l-182 340h188l100 -227h16l191 227h191l-302 -340h-202z" />
    <glyph glyph-name="Tcedilla" unicode="&#x162;" horiz-adv-x="1291" 
d="M282 1443h1110l-34 -162h-463l-272 -1281l-96 -138q75 0 128 -42t53 -121q0 -93 -74.5 -140.5t-190.5 -47.5q-86 0 -155 23l25 114q48 -16 112 -16q120 0 120 63q0 65 -129 65h-60l19 90l102 150h-38l272 1281h-463z" />
    <glyph glyph-name="tcedilla" unicode="&#x163;" horiz-adv-x="744" 
d="M491 934l-123 -578q-12 -57 -12 -97q0 -116 136 -116q44 0 75 4l-31 -146q-39 -9 -107 -9q-23 0 -35 1l-91 -131q75 0 128 -42t53 -121q0 -93 -74.5 -140.5t-190.5 -47.5q-86 0 -155 23l25 114q48 -16 112 -16q120 0 120 63q0 65 -129 65h-60l19 90l117 172h14
q-111 56 -111 188q0 40 11 93l135 631h-181l30 144h182l57 279h175l-59 -279h245l-32 -144h-243z" />
    <glyph glyph-name="Tcaron" unicode="&#x164;" horiz-adv-x="1291" 
d="M623 0h-184l272 1281h-463l34 162h1110l-34 -162h-463zM759 1575l-182 298h188l101 -195h16l190 195h191l-302 -298h-202z" />
    <glyph glyph-name="tcaron" unicode="&#x165;" horiz-adv-x="744" 
d="M429 -8q-117 0 -187.5 56t-70.5 162q0 40 11 93l135 631h-181l30 144h182l57 279h175l-59 -279h245l-32 -144h-243l-123 -578q-12 -57 -12 -97q0 -116 136 -116q44 0 75 4l-31 -146q-39 -9 -107 -9zM784 1720h178l-162 -490h-120z" />
    <glyph glyph-name="Tbar" unicode="&#x166;" horiz-adv-x="1291" 
d="M1358 1281h-463l-101 -478h323l-35 -162h-323l-136 -641h-184l136 641h-326l35 162h326l101 478h-463l34 162h1110z" />
    <glyph glyph-name="tbar" unicode="&#x167;" horiz-adv-x="744" 
d="M734 934h-243l-60 -281h221l-32 -144h-219l-33 -153q-12 -57 -12 -97q0 -116 136 -116q44 0 75 4l-31 -146q-39 -9 -107 -9q-117 0 -187.5 56t-70.5 162q0 40 11 93l44 206h-176l32 144h175l60 281h-181l30 144h182l57 279h175l-59 -279h245z" />
    <glyph glyph-name="Utilde" unicode="&#x168;" horiz-adv-x="1524" 
d="M681 -34q-120 0 -216 34.5t-157.5 95.5t-95 142t-34.5 176q-1 60 13 130l188 899h184l-186 -887q-15 -68 -13 -133q5 -137 93 -214t256 -77q162 0 277.5 96t151.5 263l203 952h184l-210 -987q-50 -236 -211 -363t-427 -127zM646 1606q19 118 79 188t157 70q43 0 78 -15.5
t57.5 -37.5t41 -44t39 -37.5t41.5 -15.5q33 0 54.5 29.5t35.5 94.5h142q-19 -118 -78.5 -188t-158.5 -70q-44 0 -78.5 15.5t-56.5 37.5t-40.5 44t-38.5 37.5t-42 15.5q-33 0 -54.5 -29.5t-35.5 -94.5h-142z" />
    <glyph glyph-name="utilde" unicode="&#x169;" horiz-adv-x="1195" 
d="M1151 1078l-229 -1078h-166l33 146h-16q-48 -74 -133 -119.5t-201 -45.5q-145 0 -233.5 88.5t-88.5 224.5q0 67 15 140l135 644h175l-131 -619q-14 -68 -14 -121q0 -103 51.5 -152.5t157.5 -49.5q127 0 216 81.5t117 212.5l138 648h174zM398 1261q19 118 79 188t157 70
q43 0 78 -15.5t57.5 -37.5t41 -44t39 -37.5t41.5 -15.5q33 0 54.5 29.5t35.5 94.5h142q-19 -118 -78.5 -188t-158.5 -70q-44 0 -78.5 15.5t-56.5 37.5t-40.5 44t-38.5 37.5t-42 15.5q-33 0 -54.5 -29.5t-35.5 -94.5h-142z" />
    <glyph glyph-name="Umacron" unicode="&#x16a;" horiz-adv-x="1524" 
d="M681 -34q-120 0 -216 34.5t-157.5 95.5t-95 142t-34.5 176q-1 60 13 130l188 899h184l-186 -887q-15 -68 -13 -133q5 -137 93 -214t256 -77q162 0 277.5 96t151.5 263l203 952h184l-210 -987q-50 -236 -211 -363t-427 -127zM1355 1817l-29 -136h-654l29 136h654z" />
    <glyph glyph-name="umacron" unicode="&#x16b;" horiz-adv-x="1195" 
d="M1151 1078l-229 -1078h-166l33 146h-16q-48 -74 -133 -119.5t-201 -45.5q-145 0 -233.5 88.5t-88.5 224.5q0 67 15 140l135 644h175l-131 -619q-14 -68 -14 -121q0 -103 51.5 -152.5t157.5 -49.5q127 0 216 81.5t117 212.5l138 648h174zM1107 1472l-29 -136h-654l29 136
h654z" />
    <glyph glyph-name="Ubreve" unicode="&#x16c;" horiz-adv-x="1524" 
d="M681 -34q-120 0 -216 34.5t-157.5 95.5t-95 142t-34.5 176q-1 60 13 130l188 899h184l-186 -887q-15 -68 -13 -133q5 -137 93 -214t256 -77q162 0 277.5 96t151.5 263l203 952h184l-210 -987q-50 -236 -211 -363t-427 -127zM988 1575q-146 0 -232.5 79t-85.5 220l145 -1
q0 -78 48.5 -124t130.5 -46q79 0 135 43.5t77 126.5h151q-26 -137 -124 -217.5t-245 -80.5z" />
    <glyph glyph-name="ubreve" unicode="&#x16d;" horiz-adv-x="1195" 
d="M1151 1078l-229 -1078h-166l33 146h-16q-48 -74 -133 -119.5t-201 -45.5q-145 0 -233.5 88.5t-88.5 224.5q0 67 15 140l135 644h175l-131 -619q-14 -68 -14 -121q0 -103 51.5 -152.5t157.5 -49.5q127 0 216 81.5t117 212.5l138 648h174zM764 1228q-64 0 -117 15.5t-88 42
t-61.5 61.5t-36.5 72.5t-14 76t7 72.5h143q-12 -89 33 -150.5t142 -61.5q88 0 147.5 55t72.5 157h149q-15 -154 -115.5 -247t-261.5 -93z" />
    <glyph glyph-name="Uring" unicode="&#x16e;" horiz-adv-x="1524" 
d="M681 -34q-120 0 -216 34.5t-157.5 95.5t-95 142t-34.5 176q-1 60 13 130l188 899h184l-186 -887q-15 -68 -13 -133q5 -137 93 -214t256 -77q162 0 277.5 96t151.5 263l203 952h184l-210 -987q-50 -236 -211 -363t-427 -127zM1028 1551q-87 0 -148 59.5t-61 146.5
t61 146.5t148 59.5t148 -59.5t61 -146.5t-61 -146.5t-148 -59.5zM1028 1652q45 0 75 30t30 75t-30 75t-75 30t-74.5 -30t-29.5 -75t29.5 -75t74.5 -30z" />
    <glyph glyph-name="uring" unicode="&#x16f;" horiz-adv-x="1195" 
d="M1151 1078l-229 -1078h-166l33 146h-16q-48 -74 -133 -119.5t-201 -45.5q-145 0 -233.5 88.5t-88.5 224.5q0 67 15 140l135 644h175l-131 -619q-14 -68 -14 -121q0 -103 51.5 -152.5t157.5 -49.5q127 0 216 81.5t117 212.5l138 648h174zM782 1228q-96 0 -164 66.5
t-68 162.5t68 162.5t164 66.5t164 -66.5t68 -162.5t-68 -162.5t-164 -66.5zM782 1334q52 0 87 35t35 88t-35 88t-87 35t-87 -35t-35 -88t35 -88t87 -35z" />
    <glyph glyph-name="Uhungarumlaut" unicode="&#x170;" horiz-adv-x="1524" 
d="M681 -34q-120 0 -216 34.5t-157.5 95.5t-95 142t-34.5 176q-1 60 13 130l188 899h184l-186 -887q-15 -68 -13 -133q5 -137 93 -214t256 -77q162 0 277.5 96t151.5 263l203 952h184l-210 -987q-50 -236 -211 -363t-427 -127zM876 1575h-141l141 298h190zM1205 1575h-154
l199 298h203z" />
    <glyph glyph-name="uhungarumlaut" unicode="&#x171;" horiz-adv-x="1195" 
d="M1151 1078l-229 -1078h-166l33 146h-16q-48 -74 -133 -119.5t-201 -45.5q-145 0 -233.5 88.5t-88.5 224.5q0 67 15 140l135 644h175l-131 -619q-14 -68 -14 -121q0 -103 51.5 -152.5t157.5 -49.5q127 0 216 81.5t117 212.5l138 648h174zM480 1228l161 340h197l-217 -340
h-141zM796 1228l227 340h210l-283 -340h-154z" />
    <glyph glyph-name="Uogonek" unicode="&#x172;" horiz-adv-x="1524" 
d="M924 -422q-37 -10 -73 -10q-105 0 -172.5 54.5t-67.5 139.5q0 59 41.5 111.5t109.5 84.5l5 22q-37 -14 -86 -14q-237 0 -370 127t-133 323q0 64 13 128l188 899h184l-186 -887q-13 -61 -13 -121q0 -145 88 -224t261 -79q162 0 277.5 96t151.5 263l203 952h184l-210 -987
q-32 -147 -113 -256t-199 -169q-101 -52 -160 -114.5t-59 -116.5q0 -42 34 -66.5t93 -24.5q23 0 38 3z" />
    <glyph glyph-name="uogonek" unicode="&#x173;" horiz-adv-x="1195" 
d="M828 -422q-40 -10 -73 -10q-105 0 -172.5 54.5t-67.5 139.5q0 162 244 250l30 134h-16q-48 -74 -133 -119.5t-201 -45.5q-145 0 -233.5 88.5t-88.5 224.5q0 67 15 140l135 644h175l-131 -619q-14 -68 -14 -121q0 -103 51.5 -152.5t157.5 -49.5q127 0 216 81.5t117 212.5
l138 648h174l-231 -1088l-8 -3q-220 -83 -220 -187q0 -42 34 -66.5t93 -24.5q23 0 38 3z" />
    <glyph glyph-name="Wcircumflex" unicode="&#x174;" horiz-adv-x="1982" 
d="M1106 1139l-560 -1139h-177l-87 1443h165l58 -1173h12l572 1173h162l94 -1173h12l541 1173h186l-692 -1443h-177l-97 1139h-12zM1360 1873l182 -298h-188l-101 195h-16l-190 -195h-191l302 298h202z" />
    <glyph glyph-name="wcircumflex" unicode="&#x175;" horiz-adv-x="1586" 
d="M1632 1078l-532 -1078h-175l-70 827h-16l-411 -827h-174l-72 1078h157l49 -853h16l411 853h175l57 -862h16l396 862h173zM1095 1568l182 -340h-188l-100 227h-16l-191 -227h-191l302 340h202z" />
    <glyph glyph-name="Ycircumflex" unicode="&#x176;" horiz-adv-x="1344" 
d="M650 0h-184l132 621l-336 822h187l268 -649h16l526 649h207l-692 -848zM1041 1873l182 -298h-188l-101 195h-16l-190 -195h-191l302 298h202z" />
    <glyph glyph-name="ycircumflex" unicode="&#x177;" horiz-adv-x="1112" 
d="M103 -392q-63 0 -124 16l30 143q43 -13 104 -13q56 0 103.5 40.5t101.5 140.5l39 73l-175 1070h171l128 -857h16l472 857h189l-686 -1196q-91 -159 -172.5 -216.5t-196.5 -57.5zM865 1568l182 -340h-188l-100 227h-16l-191 -227h-191l302 340h202z" />
    <glyph glyph-name="Ydieresis" unicode="&#x178;" horiz-adv-x="1344" 
d="M650 0h-184l132 621l-336 822h187l268 -649h16l526 649h207l-692 -848zM710 1631q-50 0 -85 35.5t-35 84.5t35 84.5t85 35.5t85 -35.5t35 -84.5t-35 -84.5t-85 -35.5zM1144 1631q-50 0 -85 35.5t-35 84.5t35 84.5t85 35.5t85 -35.5t35 -84.5t-35 -84.5t-85 -35.5z" />
    <glyph glyph-name="Zacute" unicode="&#x179;" horiz-adv-x="1355" 
d="M29 0l27 128l1048 1137l4 16h-779l34 162h1022l-27 -128l-1045 -1137l-3 -16h820l-34 -162h-1067zM971 1575h-154l199 298h203z" />
    <glyph glyph-name="zacute" unicode="&#x17a;" horiz-adv-x="1104" 
d="M22 0l27 126l764 792l3 16h-594l32 144h826l-29 -129l-758 -789l-3 -16h593l-31 -144h-830zM769 1228h-154l227 340h210z" />
    <glyph glyph-name="Zdotaccent" unicode="&#x17b;" horiz-adv-x="1355" 
d="M29 0l27 128l1048 1137l4 16h-779l34 162h1022l-27 -128l-1045 -1137l-3 -16h820l-34 -162h-1067zM925 1631q-49 0 -84.5 35.5t-35.5 84.5t35.5 84.5t84.5 35.5t84.5 -35.5t35.5 -84.5t-35.5 -84.5t-84.5 -35.5z" />
    <glyph glyph-name="zdotaccent" unicode="&#x17c;" horiz-adv-x="1104" 
d="M22 0l27 126l764 792l3 16h-594l32 144h826l-29 -129l-758 -789l-3 -16h593l-31 -144h-830zM733 1286q-49 0 -84.5 35t-35.5 85t35.5 85t84.5 35t84.5 -35t35.5 -85t-35.5 -85t-84.5 -35z" />
    <glyph glyph-name="Zcaron" unicode="&#x17d;" horiz-adv-x="1355" 
d="M29 0l27 128l1048 1137l4 16h-779l34 162h1022l-27 -128l-1045 -1137l-3 -16h820l-34 -162h-1067zM782 1575l-182 298h188l101 -195h16l190 195h191l-302 -298h-202z" />
    <glyph glyph-name="zcaron" unicode="&#x17e;" horiz-adv-x="1104" 
d="M22 0l27 126l764 792l3 16h-594l32 144h826l-29 -129l-758 -789l-3 -16h593l-31 -144h-830zM611 1228l-182 340h188l100 -227h16l191 227h191l-302 -340h-202z" />
    <glyph glyph-name="uni04D8" unicode="&#x4d8;" horiz-adv-x="1535" 
d="M744 -34q-270 0 -427 162.5t-157 436.5q0 83 18 194h1075q3 48 3 63q0 233 -107 361t-301 128q-265 0 -400 -229h-196q75 185 234.5 290t367.5 105q276 0 434.5 -169.5t158.5 -459.5q0 -255 -90.5 -457t-251 -313.5t-361.5 -111.5zM745 132q97 0 178 36t139 101t98 147
t64 181h-869q-3 -22 -3 -39q0 -204 102.5 -315t290.5 -111z" />
    <glyph glyph-name="uni04D8" unicode="&#x18f;" horiz-adv-x="1535" 
d="M744 -34q-270 0 -427 162.5t-157 436.5q0 83 18 194h1075q3 48 3 63q0 233 -107 361t-301 128q-265 0 -400 -229h-196q75 185 234.5 290t367.5 105q276 0 434.5 -169.5t158.5 -459.5q0 -255 -90.5 -457t-251 -313.5t-361.5 -111.5zM745 132q97 0 178 36t139 101t98 147
t64 181h-869q-3 -22 -3 -39q0 -204 102.5 -315t290.5 -111z" />
    <glyph glyph-name="florin" unicode="&#x192;" horiz-adv-x="1328" 
d="M669 874l79 215q69 187 179.5 271.5t285.5 84.5q56 0 117.5 -13.5t100.5 -33.5l-34 -149q-73 40 -182 40q-115 0 -187 -52.5t-112 -162.5l-73 -200h367l-30 -144h-389l-134 -366q-71 -196 -179 -281t-281 -85q-56 0 -118 15.5t-103 37.5l35 159q33 -24 86.5 -38.5
t103.5 -14.5q110 0 178 55t113 176l125 342h-336l30 144h358z" />
    <glyph glyph-name="Ohorn" unicode="&#x1a0;" horiz-adv-x="1594" 
d="M1319 864q0 199 -112.5 322.5t-293.5 123.5q-162 0 -294.5 -95.5t-207.5 -263t-75 -372.5q0 -200 113 -323t297 -123q163 0 294 94t205 261t74 376zM1509 880q0 -261 -100 -470t-277.5 -326.5t-399.5 -117.5q-253 0 -419.5 169.5t-166.5 427.5q0 194 59.5 364
t162.5 290.5t248 190t311 69.5q57 0 177.5 -19t230.5 -19q77 0 117 27t52 86l26 124h160l-33 -156q-20 -97 -86.5 -148t-160.5 -51q-35 0 -85 8l-6 -9q92 -72 141 -187.5t49 -252.5z" />
    <glyph glyph-name="ohorn" unicode="&#x1a1;" horiz-adv-x="1271" 
d="M1111 653q0 -191 -73.5 -345t-204 -240.5t-292.5 -86.5q-196 0 -318.5 124t-122.5 322q0 294 160.5 482t411.5 188q46 0 143 -12.5t144 -12.5q74 0 107.5 24t47.5 89l30 140h160l-37 -172q-21 -98 -76.5 -148.5t-140.5 -50.5q-20 0 -44 8l-6 -8q51 -50 81 -131.5
t30 -169.5zM283 448q0 -140 77 -226t203 -86q99 0 183 64t132.5 173.5t48.5 238.5q0 154 -72 242t-199 88q-167 0 -270 -136.5t-103 -357.5z" />
    <glyph glyph-name="Uhorn" unicode="&#x1af;" horiz-adv-x="1670" 
d="M681 -34q-237 0 -370 126.5t-133 321.5q0 66 13 130l188 899h184l-186 -887q-13 -61 -13 -133q0 -136 90 -213.5t259 -77.5q162 0 277.5 96t151.5 263l203 952h171q67 0 97.5 23.5t40.5 70.5l29 139h160l-36 -169q-19 -91 -81 -138.5t-153 -47.5h-71l-183 -865
q-50 -235 -211 -362.5t-427 -127.5z" />
    <glyph glyph-name="uhorn" unicode="&#x1b0;" horiz-adv-x="1366" 
d="M773 146q-48 -74 -133 -119.5t-201 -45.5q-145 0 -233.5 88.5t-88.5 224.5q0 67 15 140l135 644h175l-131 -619q-14 -68 -14 -121q0 -103 51.5 -152.5t157.5 -49.5q127 0 216 81.5t117 212.5l138 648h144q68 0 98.5 21t39.5 67l34 159h160l-41 -189q-20 -91 -82 -138.5
t-152 -47.5h-54l-202 -950h-166l33 146h-16z" />
    <glyph glyph-name="uni01C4" unicode="&#x1c4;" horiz-adv-x="2841" 
d="M375 1443h403q299 0 464 -167.5t165 -463.5q0 -171 -58 -322.5t-157.5 -258.5t-237.5 -169t-293 -62h-591zM525 1283l-239 -1123h382q117 0 220 49t176 134t115 204.5t42 255.5q0 227 -120.5 353.5t-336.5 126.5h-239zM1515 0l27 128l1048 1137l4 16h-779l34 162h1022
l-27 -128l-1045 -1137l-3 -16h820l-34 -162h-1067zM2268 1575l-182 298h188l101 -195h16l190 195h191l-302 -298h-202z" />
    <glyph glyph-name="uni01C5" unicode="&#x1c5;" horiz-adv-x="2590" 
d="M375 1443h403q299 0 464 -167.5t165 -463.5q0 -171 -58 -322.5t-157.5 -258.5t-237.5 -169t-293 -62h-591zM525 1283l-239 -1123h382q117 0 220 49t176 134t115 204.5t42 255.5q0 227 -120.5 353.5t-336.5 126.5h-239zM1508 0l27 126l764 792l3 16h-594l32 144h826
l-29 -129l-758 -789l-3 -16h593l-31 -144h-830zM2097 1228l-182 340h188l100 -227h16l191 227h191l-302 -340h-202z" />
    <glyph glyph-name="uni01C6" unicode="&#x1c6;" horiz-adv-x="2369" 
d="M490 -19q-166 0 -279 120.5t-113 316.5q0 192 74 348t201 243.5t281 87.5q116 0 205 -60.5t118 -157.5h16l133 627h175l-320 -1506h-166l31 147h-16q-59 -77 -148.5 -121.5t-191.5 -44.5zM545 136q110 0 200 67t141.5 183.5t51.5 257.5q0 137 -73 217.5t-198 80.5
q-166 0 -277.5 -141t-111.5 -357q0 -137 74 -222.5t193 -85.5zM1287 0l27 126l764 792l3 16h-594l32 144h826l-29 -129l-758 -789l-3 -16h593l-31 -144h-830zM1876 1228l-182 340h188l100 -227h16l191 227h191l-302 -340h-202z" />
    <glyph glyph-name="uni01C7" unicode="&#x1c7;" horiz-adv-x="2266" 
d="M980 162l-34 -162h-878l307 1443h184l-273 -1281h694zM1205 337h181q2 -94 62 -148t161 -54q208 0 265 269l221 1039h179l-228 -1080q-40 -191 -157.5 -294t-301.5 -103q-174 0 -283.5 106.5t-98.5 264.5z" />
    <glyph glyph-name="uni01C8" unicode="&#x1c8;" horiz-adv-x="1680" 
d="M980 162l-34 -162h-878l307 1443h184l-273 -1281h694zM1623 1078l-246 -1157q-32 -151 -115.5 -221t-229.5 -70q-52 0 -85 5l35 152q23 -4 55 -4q76 0 115 36t58 125l241 1134h172zM1603 1286q-49 0 -84.5 35t-35.5 85t35.5 85t84.5 35t84.5 -35t35.5 -85t-35.5 -85
t-84.5 -35z" />
    <glyph glyph-name="uni01C9" unicode="&#x1c9;" horiz-adv-x="1032" 
d="M55 0l320 1506h176l-320 -1506h-176zM975 1078l-246 -1157q-32 -151 -115.5 -221t-229.5 -70q-52 0 -85 5l35 152q23 -4 55 -4q76 0 115 36t58 125l241 1134h172zM955 1286q-49 0 -84.5 35t-35.5 85t35.5 85t84.5 35t84.5 -35t35.5 -85t-35.5 -85t-84.5 -35z" />
    <glyph glyph-name="uni01CA" unicode="&#x1ca;" horiz-adv-x="2622" 
d="M250 0h-182l307 1443h177l534 -1153h16l245 1153h182l-307 -1443h-179l-533 1150h-16zM1561 337h181q2 -94 62 -148t161 -54q208 0 265 269l221 1039h179l-228 -1080q-40 -191 -157.5 -294t-301.5 -103q-174 0 -283.5 106.5t-98.5 264.5z" />
    <glyph glyph-name="uni01CB" unicode="&#x1cb;" horiz-adv-x="2036" 
d="M250 0h-182l307 1443h177l534 -1153h16l245 1153h182l-307 -1443h-179l-533 1150h-16zM1979 1078l-246 -1157q-32 -151 -115.5 -221t-229.5 -70q-52 0 -85 5l35 152q23 -4 55 -4q76 0 115 36t58 125l241 1134h172zM1959 1286q-49 0 -84.5 35t-35.5 85t35.5 85t84.5 35
t84.5 -35t35.5 -85t-35.5 -85t-84.5 -35z" />
    <glyph glyph-name="uni01CC" unicode="&#x1cc;" horiz-adv-x="1714" 
d="M45 0l229 1078h167l-34 -161h16q126 180 327 180q150 0 241 -95t91 -229q0 -56 -14 -124l-138 -649h-175l132 619q13 63 13 105q0 99 -58.5 158.5t-164.5 59.5q-121 0 -205.5 -79t-111.5 -205l-140 -658h-175zM1657 1078l-246 -1157q-32 -151 -115.5 -221t-229.5 -70
q-52 0 -85 5l35 152q23 -4 55 -4q76 0 115 36t58 125l241 1134h172zM1637 1286q-49 0 -84.5 35t-35.5 85t35.5 85t84.5 35t84.5 -35t35.5 -85t-35.5 -85t-84.5 -35z" />
    <glyph glyph-name="Acaron" unicode="&#x1cd;" horiz-adv-x="1380" 
d="M829 1207l-362 -641h473l-95 641h-16zM1018 0l-58 413h-579l-232 -413h-193l845 1443h167l226 -1443h-176zM803 1575l-182 298h188l101 -195h16l190 195h191l-302 -298h-202z" />
    <glyph glyph-name="acaron" unicode="&#x1ce;" horiz-adv-x="1126" 
d="M435 130q121 0 214 71.5t117 181.5l27 124l-287 -14q-132 -7 -205 -58.5t-73 -136.5q0 -74 58 -121t149 -47zM381 -19q-141 0 -235.5 86t-94.5 212q0 159 120.5 251t344.5 102l306 14l16 73q6 33 6 51q0 82 -61 127.5t-170 45.5q-91 0 -152 -35t-87 -100h-182
q36 133 153.5 211t281.5 78q178 0 285 -82.5t107 -219.5q0 -43 -9 -88l-150 -707h-167l30 141h-16q-57 -75 -143 -117.5t-183 -42.5zM588 1228l-182 340h188l100 -227h16l191 227h191l-302 -340h-202z" />
    <glyph glyph-name="Icaron" unicode="&#x1cf;" horiz-adv-x="550" 
d="M252 0h-184l307 1443h184zM386 1575l-182 298h188l101 -195h16l190 195h191l-302 -298h-202z" />
    <glyph glyph-name="icaron" unicode="&#x1d0;" horiz-adv-x="516" 
d="M57 0l229 1078h172l-229 -1078h-172zM316 1228l-182 340h188l100 -227h16l191 227h191l-302 -340h-202z" />
    <glyph glyph-name="Ocaron" unicode="&#x1d1;" horiz-adv-x="1579" 
d="M913 1310q-162 0 -294.5 -95.5t-207.5 -263t-75 -372.5q0 -200 113 -323t297 -123q163 0 294 94t205 261t74 376q0 199 -112.5 322.5t-293.5 123.5zM732 -34q-253 0 -419.5 169.5t-166.5 427.5q0 194 59.5 364t162.5 290.5t248 190t311 69.5t299.5 -77t208 -213.5
t74.5 -306.5q0 -261 -100 -470t-277.5 -326.5t-399.5 -117.5zM841 1573l-182 298h188l101 -195h16l190 195h191l-302 -298h-202z" />
    <glyph glyph-name="ocaron" unicode="&#x1d2;" horiz-adv-x="1212" 
d="M563 136q99 0 183 64t132.5 173.5t48.5 238.5q0 154 -72 242t-199 88q-167 0 -270 -136.5t-103 -357.5q0 -140 77 -226t203 -86zM672 1097q196 0 317.5 -123t121.5 -321q0 -191 -73.5 -345t-204 -240.5t-292.5 -86.5q-196 0 -318.5 124t-122.5 322q0 294 160.5 482
t411.5 188zM614 1228l-182 340h188l100 -227h16l191 227h191l-302 -340h-202z" />
    <glyph glyph-name="Ucaron" unicode="&#x1d3;" horiz-adv-x="1524" 
d="M681 -34q-120 0 -216 34.5t-157.5 95.5t-95 142t-34.5 176q-1 60 13 130l188 899h184l-186 -887q-15 -68 -13 -133q5 -137 93 -214t256 -77q162 0 277.5 96t151.5 263l203 952h184l-210 -987q-50 -236 -211 -363t-427 -127zM872 1575l-182 298h188l101 -195h16l190 195
h191l-302 -298h-202z" />
    <glyph glyph-name="ucaron" unicode="&#x1d4;" horiz-adv-x="1195" 
d="M1151 1078l-229 -1078h-166l33 146h-16q-48 -74 -133 -119.5t-201 -45.5q-145 0 -233.5 88.5t-88.5 224.5q0 67 15 140l135 644h175l-131 -619q-14 -68 -14 -121q0 -103 51.5 -152.5t157.5 -49.5q127 0 216 81.5t117 212.5l138 648h174zM645 1228l-182 340h188l100 -227
h16l191 227h191l-302 -340h-202z" />
    <glyph glyph-name="Udieresismacron" unicode="&#x1d5;" horiz-adv-x="1524" 
d="M681 -34q-120 0 -216 34.5t-157.5 95.5t-95 142t-34.5 176q-1 60 13 130l188 899h184l-186 -887q-15 -68 -13 -133q5 -137 93 -214t256 -77q162 0 277.5 96t151.5 263l203 952h184l-210 -987q-50 -236 -211 -363t-427 -127zM808 1809q49 0 83 -34t34 -83t-34 -83t-83 -34
t-83 34t-34 83t34 83t83 34zM1422 2062l-28 -130h-674l28 130h674zM1212 1809q49 0 83 -34t34 -83t-34 -83t-83 -34t-83 34t-34 83t34 83t83 34z" />
    <glyph glyph-name="udieresismacron" unicode="&#x1d6;" horiz-adv-x="1195" 
d="M1151 1078l-229 -1078h-166l33 146h-16q-48 -74 -133 -119.5t-201 -45.5q-145 0 -233.5 88.5t-88.5 224.5q0 67 15 140l135 644h175l-131 -619q-14 -68 -14 -121q0 -103 51.5 -152.5t157.5 -49.5q127 0 216 81.5t117 212.5l138 648h174zM555 1228q-49 0 -83 34t-34 83
t34 83t83 34t83 -34t34 -83t-34 -83t-83 -34zM959 1228q-49 0 -83 34t-34 83t34 83t83 34t83 -34t34 -83t-34 -83t-83 -34zM1178 1806l-29 -136h-654l29 136h654z" />
    <glyph glyph-name="Udieresisacute" unicode="&#x1d7;" horiz-adv-x="1524" 
d="M681 -34q-120 0 -216 34.5t-157.5 95.5t-95 142t-34.5 176q-1 60 13 130l188 899h184l-186 -887q-15 -68 -13 -133q5 -137 93 -214t256 -77q162 0 277.5 96t151.5 263l203 952h184l-210 -987q-50 -236 -211 -363t-427 -127zM919 1873l277 222h227l-328 -222h-176z
M805 1575q-50 0 -85.5 35.5t-35.5 85.5t35.5 85.5t85.5 35.5t85.5 -35.5t35.5 -85.5t-35.5 -85.5t-85.5 -35.5zM1209 1575q-50 0 -85.5 35.5t-35.5 85.5t35.5 85.5t85.5 35.5t85.5 -35.5t35.5 -85.5t-35.5 -85.5t-85.5 -35.5z" />
    <glyph glyph-name="udieresisacute" unicode="&#x1d8;" horiz-adv-x="1195" 
d="M1151 1078l-229 -1078h-166l33 146h-16q-48 -74 -133 -119.5t-201 -45.5q-145 0 -233.5 88.5t-88.5 224.5q0 67 15 140l135 644h175l-131 -619q-14 -68 -14 -121q0 -103 51.5 -152.5t157.5 -49.5q127 0 216 81.5t117 212.5l138 648h174zM682 1575l253 298h198l-281 -298
h-170zM552 1286q-50 0 -85 35t-35 85t35 85t85 35t85 -35t35 -85t-35 -85t-85 -35zM986 1286q-50 0 -85 35t-35 85t35 85t85 35t85 -35t35 -85t-35 -85t-85 -35z" />
    <glyph glyph-name="Udieresiscaron" unicode="&#x1d9;" horiz-adv-x="1524" 
d="M681 -34q-120 0 -216 34.5t-157.5 95.5t-95 142t-34.5 176q-1 60 13 130l188 899h184l-186 -887q-15 -68 -13 -133q5 -137 93 -214t256 -77q162 0 277.5 96t151.5 263l203 952h184l-210 -987q-50 -236 -211 -363t-427 -127zM952 1862l-244 233h212l135 -136h16l192 136
h233l-342 -233h-202zM805 1809q49 0 83 -34t34 -83t-34 -83t-83 -34t-83 34t-34 83t34 83t83 34zM1209 1809q49 0 83 -34t34 -83t-34 -83t-83 -34t-83 34t-34 83t34 83t83 34z" />
    <glyph glyph-name="udieresiscaron" unicode="&#x1da;" horiz-adv-x="1195" 
d="M1151 1078l-229 -1078h-166l33 146h-16q-48 -74 -133 -119.5t-201 -45.5q-145 0 -233.5 88.5t-88.5 224.5q0 67 15 140l135 644h175l-131 -619q-14 -68 -14 -121q0 -103 51.5 -152.5t157.5 -49.5q127 0 216 81.5t117 212.5l138 648h174zM555 1228q-49 0 -83 34t-34 83
t34 83t83 34t83 -34t34 -83t-34 -83t-83 -34zM959 1228q-49 0 -83 34t-34 83t34 83t83 34t83 -34t34 -83t-34 -83t-83 -34zM664 1575l-198 320h184l118 -207h16l205 207h211l-334 -320h-202z" />
    <glyph glyph-name="Udieresisgrave" unicode="&#x1db;" horiz-adv-x="1524" 
d="M681 -34q-120 0 -216 34.5t-157.5 95.5t-95 142t-34.5 176q-1 60 13 130l188 899h184l-186 -887q-15 -68 -13 -133q5 -137 93 -214t256 -77q162 0 277.5 96t151.5 263l203 952h184l-210 -987q-50 -236 -211 -363t-427 -127zM1103 1873h-176l-234 222h227zM805 1575
q-50 0 -85.5 35.5t-35.5 85.5t35.5 85.5t85.5 35.5t85.5 -35.5t35.5 -85.5t-35.5 -85.5t-85.5 -35.5zM1209 1575q-50 0 -85.5 35.5t-35.5 85.5t35.5 85.5t85.5 35.5t85.5 -35.5t35.5 -85.5t-35.5 -85.5t-85.5 -35.5z" />
    <glyph glyph-name="udieresisgrave" unicode="&#x1dc;" horiz-adv-x="1195" 
d="M1151 1078l-229 -1078h-166l33 146h-16q-48 -74 -133 -119.5t-201 -45.5q-145 0 -233.5 88.5t-88.5 224.5q0 67 15 140l135 644h175l-131 -619q-14 -68 -14 -121q0 -103 51.5 -152.5t157.5 -49.5q127 0 216 81.5t117 212.5l138 648h174zM852 1575h-170l-155 298h198z
M552 1286q-50 0 -85 35t-35 85t35 85t85 35t85 -35t35 -85t-35 -85t-85 -35zM986 1286q-50 0 -85 35t-35 85t35 85t85 35t85 -35t35 -85t-35 -85t-85 -35z" />
    <glyph glyph-name="uni04D9" unicode="&#x4d9;" horiz-adv-x="1198" 
d="M351 799h-172q53 137 165.5 217.5t277.5 80.5q217 0 338.5 -124t121.5 -341q0 -290 -155.5 -470.5t-405.5 -180.5q-190 0 -301 119.5t-111 323.5q0 89 16 165h777l2 35q0 147 -77.5 230.5t-216.5 83.5q-92 0 -161.5 -40t-97.5 -99zM537 133q126 0 220 86.5t123 230.5
h-595q-3 -22 -3 -33q0 -129 69.5 -206.5t185.5 -77.5z" />
    <glyph glyph-name="uni04D9" unicode="&#x259;" horiz-adv-x="1198" 
d="M351 799h-172q53 137 165.5 217.5t277.5 80.5q217 0 338.5 -124t121.5 -341q0 -290 -155.5 -470.5t-405.5 -180.5q-190 0 -301 119.5t-111 323.5q0 89 16 165h777l2 35q0 147 -77.5 230.5t-216.5 83.5q-92 0 -161.5 -40t-97.5 -99zM537 133q126 0 220 86.5t123 230.5
h-595q-3 -22 -3 -33q0 -129 69.5 -206.5t185.5 -77.5z" />
    <glyph glyph-name="uni04D9" unicode="&#x1dd;" horiz-adv-x="1198" 
d="M351 799h-172q53 137 165.5 217.5t277.5 80.5q217 0 338.5 -124t121.5 -341q0 -290 -155.5 -470.5t-405.5 -180.5q-190 0 -301 119.5t-111 323.5q0 89 16 165h777l2 35q0 147 -77.5 230.5t-216.5 83.5q-92 0 -161.5 -40t-97.5 -99zM537 133q126 0 220 86.5t123 230.5
h-595q-3 -22 -3 -33q0 -129 69.5 -206.5t185.5 -77.5z" />
    <glyph glyph-name="Adieresismacron" unicode="&#x1de;" horiz-adv-x="1380" 
d="M829 1207l-362 -641h473l-95 641h-16zM1018 0l-58 413h-579l-232 -413h-193l845 1443h167l226 -1443h-176zM739 1809q49 0 83 -34t34 -83t-34 -83t-83 -34t-83 34t-34 83t34 83t83 34zM1353 2062l-28 -130h-674l28 130h674zM1143 1809q49 0 83 -34t34 -83t-34 -83
t-83 -34t-83 34t-34 83t34 83t83 34z" />
    <glyph glyph-name="adieresismacron" unicode="&#x1df;" horiz-adv-x="1126" 
d="M435 130q121 0 214 71.5t117 181.5l27 124l-287 -14q-132 -7 -205 -58.5t-73 -136.5q0 -74 58 -121t149 -47zM381 -19q-141 0 -235.5 86t-94.5 212q0 159 120.5 251t344.5 102l306 14l16 73q6 33 6 51q0 82 -61 127.5t-170 45.5q-91 0 -152 -35t-87 -100h-182
q36 133 153.5 211t281.5 78q178 0 285 -82.5t107 -219.5q0 -43 -9 -88l-150 -707h-167l30 141h-16q-57 -75 -143 -117.5t-183 -42.5zM498 1228q-49 0 -83 34t-34 83t34 83t83 34t83 -34t34 -83t-34 -83t-83 -34zM902 1228q-49 0 -83 34t-34 83t34 83t83 34t83 -34t34 -83
t-34 -83t-83 -34zM1121 1806l-29 -136h-654l29 136h654z" />
    <glyph glyph-name="Adotmacron" unicode="&#x1e0;" horiz-adv-x="1380" 
d="M829 1207l-362 -641h473l-95 641h-16zM1018 0l-58 413h-579l-232 -413h-193l845 1443h167l226 -1443h-176zM938 1577q-50 0 -84.5 34.5t-34.5 84.5t34.5 84.5t84.5 34.5t84.5 -34.5t34.5 -84.5t-34.5 -84.5t-84.5 -34.5zM1353 2062l-28 -130h-674l28 130h674z" />
    <glyph glyph-name="adotmacron" unicode="&#x1e1;" horiz-adv-x="1126" 
d="M435 130q121 0 214 71.5t117 181.5l27 124l-287 -14q-132 -7 -205 -58.5t-73 -136.5q0 -74 58 -121t149 -47zM381 -19q-141 0 -235.5 86t-94.5 212q0 159 120.5 251t344.5 102l306 14l16 73q6 33 6 51q0 82 -61 127.5t-170 45.5q-91 0 -152 -35t-87 -100h-182
q36 133 153.5 211t281.5 78q178 0 285 -82.5t107 -219.5q0 -43 -9 -88l-150 -707h-167l30 141h-16q-57 -75 -143 -117.5t-183 -42.5zM697 1228q-50 0 -84.5 34.5t-34.5 84.5t34.5 84.5t84.5 34.5t84.5 -34.5t34.5 -84.5t-34.5 -84.5t-84.5 -34.5zM1121 1806l-29 -136h-654
l29 136h654z" />
    <glyph glyph-name="AEmacron" unicode="&#x1e2;" horiz-adv-x="1966" 
d="M1152 1292h-147l-455 -680h457zM877 0l98 459h-527l-307 -459h-187l958 1443h1110l-35 -162h-658l-100 -473h621l-34 -160h-621l-104 -486h658l-34 -162h-838zM1725 1817l-29 -136h-654l29 136h654z" />
    <glyph glyph-name="aemacron" unicode="&#x1e3;" horiz-adv-x="1866" 
d="M1218 -19q-126 0 -234 65.5t-151 174.5h-15q-59 -102 -173 -171t-244 -69q-154 0 -252 85t-98 213q0 160 120.5 251.5t344.5 101.5l306 14l16 73q6 33 6 51q0 82 -61 127.5t-170 45.5q-91 0 -152 -35t-87 -100h-182q36 133 153.5 211t281.5 78q121 0 211 -43t135 -125h16
q141 168 364 168q174 0 291.5 -116.5t118.5 -319.5q0 -86 -13 -162h-777q-2 -36 -2 -56q0 -80 23.5 -141t63 -95.5t86 -51.5t97.5 -17q197 0 271 137h183q-34 -129 -160.5 -211.5t-316.5 -82.5zM996 638h585q2 12 2 45q0 112 -64.5 187t-181.5 75q-122 0 -212.5 -83
t-128.5 -224zM435 130q121 0 214 71.5t117 181.5l27 124l-287 -14q-132 -7 -205 -58.5t-73 -136.5q0 -74 58 -121t149 -47zM1419 1472l-29 -136h-654l29 136h654z" />
    <glyph glyph-name="Gcaron" unicode="&#x1e6;" horiz-adv-x="1525" 
d="M1436 736l-42 -196q-60 -280 -232.5 -427t-440.5 -147q-257 0 -415.5 164t-158.5 432q0 195 57.5 365.5t158 291t242 189.5t303.5 69q225 0 377.5 -126t166.5 -323q1 -8 1 -36h-183q-11 146 -112.5 232t-263.5 86q-156 0 -284.5 -95.5t-202 -263t-73.5 -370.5
q0 -208 111 -328t302 -120q172 0 298.5 107t161.5 283l11 55h-400l34 158h584zM815 1575l-182 298h188l101 -195h16l190 195h191l-302 -298h-202z" />
    <glyph glyph-name="gcaron" unicode="&#x1e7;" horiz-adv-x="1247" 
d="M448 -413q-182 0 -304.5 90t-132.5 217h183q12 -68 83 -113t185 -45q139 0 221 65t108 177l47 200h-16q-116 -162 -326 -162q-167 0 -279.5 120.5t-112.5 310.5q0 141 41 263t112.5 206.5t170.5 132.5t212 48q114 0 209.5 -61.5t127.5 -156.5h16l42 199h167l-244 -1130
q-36 -167 -169.5 -264t-340.5 -97zM549 168q165 0 273 132.5t108 343.5q0 137 -75 217.5t-202 80.5q-162 0 -265.5 -128.5t-103.5 -340.5q0 -143 71 -224t194 -81zM639 1228l-182 340h188l100 -227h16l191 227h191l-302 -340h-202z" />
    <glyph glyph-name="Kcaron" unicode="&#x1e8;" horiz-adv-x="1349" 
d="M249 0h-180l307 1443h179l-149 -701h16l772 701h235l-702 -635l449 -808h-210l-381 697l-229 -204zM753 1575l-182 298h188l101 -195h16l190 195h191l-302 -298h-202z" />
    <glyph glyph-name="kcaron" unicode="&#x1e9;" horiz-adv-x="1086" 
d="M229 0h-174l320 1506h174l-185 -870h16l546 442h227l-565 -465l363 -613h-201l-301 516l-130 -94zM380 1638l-182 298h188l101 -195h16l190 195h191l-302 -298h-202z" />
    <glyph glyph-name="Oogonek" unicode="&#x1ea;" horiz-adv-x="1579" 
d="M967 -422q-38 -10 -73 -10q-105 0 -172.5 54.5t-67.5 139.5q0 58 40.5 111t110.5 85l4 20q-32 -12 -77 -12q-253 0 -419.5 169.5t-166.5 427.5q0 194 59.5 364t162.5 290.5t248 190t311 69.5t299.5 -77t208 -213.5t74.5 -306.5q0 -264 -122.5 -491.5t-335.5 -357.5
q-118 -72 -169 -125.5t-51 -105.5q0 -42 34 -66.5t93 -24.5q23 0 38 3zM1319 864q0 199 -112.5 322.5t-293.5 123.5q-162 0 -294.5 -95.5t-207.5 -263t-75 -372.5q0 -200 113 -323t297 -123q163 0 294 94t205 261t74 376z" />
    <glyph glyph-name="oogonek" unicode="&#x1eb;" horiz-adv-x="1212" 
d="M751 -422q-38 -10 -73 -10q-105 0 -172.5 54.5t-67.5 139.5q0 59 43.5 117t111.5 89l4 20q-37 -7 -56 -7q-196 0 -318.5 124t-122.5 322q0 294 160.5 482t411.5 188q196 0 317.5 -123t121.5 -321q0 -182 -68 -332.5t-190 -239.5q-124 -90 -181 -157.5t-57 -123.5
q0 -42 34 -66.5t93 -24.5q23 0 38 3zM283 448q0 -140 77 -226t203 -86q99 0 183 64t132.5 173.5t48.5 238.5q0 154 -72 242t-199 88q-167 0 -270 -136.5t-103 -357.5z" />
    <glyph glyph-name="Oogonekmacron" unicode="&#x1ec;" horiz-adv-x="1579" 
d="M967 -422q-38 -10 -73 -10q-105 0 -172.5 54.5t-67.5 139.5q0 58 40.5 111t110.5 85l4 20q-32 -12 -77 -12q-253 0 -419.5 169.5t-166.5 427.5q0 194 59.5 364t162.5 290.5t248 190t311 69.5t299.5 -77t208 -213.5t74.5 -306.5q0 -264 -122.5 -491.5t-335.5 -357.5
q-118 -72 -169 -125.5t-51 -105.5q0 -42 34 -66.5t93 -24.5q23 0 38 3zM1319 864q0 199 -112.5 322.5t-293.5 123.5q-162 0 -294.5 -95.5t-207.5 -263t-75 -372.5q0 -200 113 -323t297 -123q163 0 294 94t205 261t74 376zM1325 1817l-29 -136h-654l29 136h654z" />
    <glyph glyph-name="oogonekmacron" unicode="&#x1ed;" horiz-adv-x="1212" 
d="M751 -422q-38 -10 -73 -10q-105 0 -172.5 54.5t-67.5 139.5q0 59 43.5 117t111.5 89l4 20q-37 -7 -56 -7q-196 0 -318.5 124t-122.5 322q0 294 160.5 482t411.5 188q196 0 317.5 -123t121.5 -321q0 -182 -68 -332.5t-190 -239.5q-124 -90 -181 -157.5t-57 -123.5
q0 -42 34 -66.5t93 -24.5q23 0 38 3zM283 448q0 -140 77 -226t203 -86q99 0 183 64t132.5 173.5t48.5 238.5q0 154 -72 242t-199 88q-167 0 -270 -136.5t-103 -357.5zM1076 1472l-29 -136h-654l29 136h654z" />
    <glyph glyph-name="uni01F1" unicode="&#x1f1;" horiz-adv-x="2841" 
d="M375 1443h403q299 0 464 -167.5t165 -463.5q0 -171 -58 -322.5t-157.5 -258.5t-237.5 -169t-293 -62h-591zM525 1283l-239 -1123h382q117 0 220 49t176 134t115 204.5t42 255.5q0 227 -120.5 353.5t-336.5 126.5h-239zM1515 0l27 128l1048 1137l4 16h-779l34 162h1022
l-27 -128l-1045 -1137l-3 -16h820l-34 -162h-1067z" />
    <glyph glyph-name="uni01F2" unicode="&#x1f2;" horiz-adv-x="2590" 
d="M375 1443h403q299 0 464 -167.5t165 -463.5q0 -171 -58 -322.5t-157.5 -258.5t-237.5 -169t-293 -62h-591zM525 1283l-239 -1123h382q117 0 220 49t176 134t115 204.5t42 255.5q0 227 -120.5 353.5t-336.5 126.5h-239zM1508 0l27 126l764 792l3 16h-594l32 144h826
l-29 -129l-758 -789l-3 -16h593l-31 -144h-830z" />
    <glyph glyph-name="uni01F3" unicode="&#x1f3;" horiz-adv-x="2369" 
d="M490 -19q-166 0 -279 120.5t-113 316.5q0 192 74 348t201 243.5t281 87.5q116 0 205 -60.5t118 -157.5h16l133 627h175l-320 -1506h-166l31 147h-16q-59 -77 -148.5 -121.5t-191.5 -44.5zM545 136q110 0 200 67t141.5 183.5t51.5 257.5q0 137 -73 217.5t-198 80.5
q-166 0 -277.5 -141t-111.5 -357q0 -137 74 -222.5t193 -85.5zM1287 0l27 126l764 792l3 16h-594l32 144h826l-29 -129l-758 -789l-3 -16h593l-31 -144h-830z" />
    <glyph glyph-name="Gacute" unicode="&#x1f4;" horiz-adv-x="1525" 
d="M1436 736l-42 -196q-60 -280 -232.5 -427t-440.5 -147q-257 0 -415.5 164t-158.5 432q0 195 57.5 365.5t158 291t242 189.5t303.5 69q225 0 377.5 -126t166.5 -323q1 -8 1 -36h-183q-11 146 -112.5 232t-263.5 86q-156 0 -284.5 -95.5t-202 -263t-73.5 -370.5
q0 -208 111 -328t302 -120q172 0 298.5 107t161.5 283l11 55h-400l34 158h584zM1004 1575h-154l199 298h203z" />
    <glyph glyph-name="gacute" unicode="&#x1f5;" horiz-adv-x="1247" 
d="M448 -413q-182 0 -304.5 90t-132.5 217h183q12 -68 83 -113t185 -45q139 0 221 65t108 177l47 200h-16q-116 -162 -326 -162q-167 0 -279.5 120.5t-112.5 310.5q0 141 41 263t112.5 206.5t170.5 132.5t212 48q114 0 209.5 -61.5t127.5 -156.5h16l42 199h167l-244 -1130
q-36 -167 -169.5 -264t-340.5 -97zM549 168q165 0 273 132.5t108 343.5q0 137 -75 217.5t-202 80.5q-162 0 -265.5 -128.5t-103.5 -340.5q0 -143 71 -224t194 -81zM797 1228h-154l227 340h210z" />
    <glyph glyph-name="Ngrave" unicode="&#x1f8;" horiz-adv-x="1520" 
d="M250 0h-182l307 1443h177l534 -1153h16l245 1153h182l-307 -1443h-179l-533 1150h-16zM911 1575l-121 298h203l72 -298h-154z" />
    <glyph glyph-name="ngrave" unicode="&#x1f9;" horiz-adv-x="1198" 
d="M45 0l229 1078h167l-34 -161h16q126 180 327 180q150 0 241 -95t91 -229q0 -56 -14 -124l-138 -649h-175l132 619q13 63 13 105q0 99 -58.5 158.5t-164.5 59.5q-121 0 -205.5 -79t-111.5 -205l-140 -658h-175zM679 1228l-139 340h210l83 -340h-154z" />
    <glyph glyph-name="Aringacute" unicode="&#x1fa;" horiz-adv-x="1380" 
d="M829 1207l-362 -641h473l-95 641h-16zM1018 0l-58 413h-579l-232 -413h-193l845 1443h167l226 -1443h-176zM945 1533q-84 0 -143 57.5t-59 140.5t59 140.5t143 57.5t143 -57.5t59 -140.5t-59 -140.5t-143 -57.5zM945 1628q43 0 71.5 29.5t28.5 72.5t-28.5 72.5
t-71.5 29.5t-71.5 -29.5t-28.5 -72.5t28.5 -72.5t71.5 -29.5zM1015 2173h187l-174 -181h-161z" />
    <glyph glyph-name="aringacute" unicode="&#x1fb;" horiz-adv-x="1126" 
d="M435 130q121 0 214 71.5t117 181.5l27 124l-287 -14q-132 -7 -205 -58.5t-73 -136.5q0 -74 58 -121t149 -47zM381 -19q-141 0 -235.5 86t-94.5 212q0 159 120.5 251t344.5 102l306 14l16 73q6 33 6 51q0 82 -61 127.5t-170 45.5q-91 0 -152 -35t-87 -100h-182
q36 133 153.5 211t281.5 78q178 0 285 -82.5t107 -219.5q0 -43 -9 -88l-150 -707h-167l30 141h-16q-57 -75 -143 -117.5t-183 -42.5zM627 1683l214 226h199l-242 -226h-171zM712 1200q-84 0 -143 58t-59 140t59 140t143 58t143 -58t59 -140t-59 -140t-143 -58zM612 1397
q0 -43 29 -72.5t71 -29.5t71 29.5t29 72.5t-29 72.5t-71 29.5t-71 -29.5t-29 -72.5z" />
    <glyph glyph-name="AEacute" unicode="&#x1fc;" horiz-adv-x="1966" 
d="M1152 1292h-147l-455 -680h457zM877 0l98 459h-527l-307 -459h-187l958 1443h1110l-35 -162h-658l-100 -473h621l-34 -160h-621l-104 -486h658l-34 -162h-838zM1431 1575h-154l199 298h203z" />
    <glyph glyph-name="aeacute" unicode="&#x1fd;" horiz-adv-x="1866" 
d="M1218 -19q-126 0 -234 65.5t-151 174.5h-15q-59 -102 -173 -171t-244 -69q-154 0 -252 85t-98 213q0 160 120.5 251.5t344.5 101.5l306 14l16 73q6 33 6 51q0 82 -61 127.5t-170 45.5q-91 0 -152 -35t-87 -100h-182q36 133 153.5 211t281.5 78q121 0 211 -43t135 -125h16
q141 168 364 168q174 0 291.5 -116.5t118.5 -319.5q0 -86 -13 -162h-777q-2 -36 -2 -56q0 -80 23.5 -141t63 -95.5t86 -51.5t97.5 -17q197 0 271 137h183q-34 -129 -160.5 -211.5t-316.5 -82.5zM996 638h585q2 12 2 45q0 112 -64.5 187t-181.5 75q-122 0 -212.5 -83
t-128.5 -224zM435 130q121 0 214 71.5t117 181.5l27 124l-287 -14q-132 -7 -205 -58.5t-73 -136.5q0 -74 58 -121t149 -47zM1115 1228h-154l227 340h210z" />
    <glyph glyph-name="Oslashacute" unicode="&#x1fe;" horiz-adv-x="1551" 
d="M1278 1871l-248 -298h-154l199 298h203zM1290 1044l-842 -786q114 -125 298 -125q163 0 294 94t205 261t74 376q0 98 -29 180zM376 370l851 793q-115 147 -314 147q-162 0 -294.5 -95.5t-207.5 -263t-75 -372.5q0 -115 40 -209zM1543 1280l-106 -99q72 -136 72 -301
q0 -261 -100 -470t-277.5 -326.5t-399.5 -117.5q-253 0 -418 168l-100 -94l-83 101l103 96q-88 145 -88 326q0 194 59.5 364t162.5 290.5t248 190t311 69.5q131 0 243.5 -49.5t191.5 -138.5l98 91z" />
    <glyph glyph-name="oslashacute" unicode="&#x1ff;" horiz-adv-x="1212" 
d="M1055 1568l-283 -340h-154l227 340h210zM896 785l-518 -581q73 -68 185 -68q99 0 183 64t132.5 173.5t48.5 238.5q0 99 -31 173zM312 297l521 580q-70 65 -177 65q-167 0 -270 -136.5t-103 -357.5q0 -84 29 -151zM1135 1054l-109 -123q85 -115 85 -278q0 -191 -73.5 -345
t-204 -240.5t-292.5 -86.5q-165 0 -281 91l-97 -109l-89 69l108 121q-82 115 -82 274q0 294 160.5 482t411.5 188q163 0 279 -89l98 110z" />
    <glyph glyph-name="Adblgrave" unicode="&#x200;" horiz-adv-x="1380" 
d="M829 1207l-362 -641h473l-95 641h-16zM1018 0l-58 413h-579l-232 -413h-193l845 1443h167l226 -1443h-176zM1019 1575l-63 298h190l14 -298h-141zM690 1575l-121 298h203l72 -298h-154z" />
    <glyph glyph-name="adblgrave" unicode="&#x201;" horiz-adv-x="1126" 
d="M435 130q121 0 214 71.5t117 181.5l27 124l-287 -14q-132 -7 -205 -58.5t-73 -136.5q0 -74 58 -121t149 -47zM381 -19q-141 0 -235.5 86t-94.5 212q0 159 120.5 251t344.5 102l306 14l16 73q6 33 6 51q0 82 -61 127.5t-170 45.5q-91 0 -152 -35t-87 -100h-182
q36 133 153.5 211t281.5 78q178 0 285 -82.5t107 -219.5q0 -43 -9 -88l-150 -707h-167l30 141h-16q-57 -75 -143 -117.5t-183 -42.5zM929 1228h-141l-73 340h197zM613 1228h-154l-139 340h210z" />
    <glyph glyph-name="Ainvertedbreve" unicode="&#x202;" horiz-adv-x="1380" 
d="M829 1207l-362 -641h473l-95 641h-16zM1018 0l-58 413h-579l-232 -413h-193l845 1443h167l226 -1443h-176zM907 1874q146 0 232.5 -79t85.5 -220l-145 1q0 78 -48.5 124t-130.5 46q-79 0 -135 -43.5t-77 -126.5h-151q26 137 124 217.5t245 80.5z" />
    <glyph glyph-name="ainvertedbreve" unicode="&#x203;" horiz-adv-x="1126" 
d="M435 130q121 0 214 71.5t117 181.5l27 124l-287 -14q-132 -7 -205 -58.5t-73 -136.5q0 -74 58 -121t149 -47zM381 -19q-141 0 -235.5 86t-94.5 212q0 159 120.5 251t344.5 102l306 14l16 73q6 33 6 51q0 82 -61 127.5t-170 45.5q-91 0 -152 -35t-87 -100h-182
q36 133 153.5 211t281.5 78q178 0 285 -82.5t107 -219.5q0 -43 -9 -88l-150 -707h-167l30 141h-16q-57 -75 -143 -117.5t-183 -42.5zM705 1568q64 0 117 -15.5t88 -42t61.5 -61.5t36.5 -72.5t14 -76t-7 -72.5h-143q12 89 -33 150.5t-142 61.5q-88 0 -147.5 -55t-72.5 -157
h-149q15 154 115.5 247t261.5 93z" />
    <glyph glyph-name="Edblgrave" unicode="&#x204;" horiz-adv-x="1219" 
d="M998 162l-34 -162h-896l307 1443h896l-35 -162h-711l-100 -463h675l-34 -160h-674l-106 -496h712zM957 1575l-63 298h190l14 -298h-141zM628 1575l-121 298h203l72 -298h-154z" />
    <glyph glyph-name="edblgrave" unicode="&#x205;" horiz-adv-x="1176" 
d="M306 638h585q2 12 2 45q0 112 -64.5 187t-181.5 75q-122 0 -212.5 -83t-128.5 -224zM540 -19q-188 0 -313 120t-125 331q0 297 156.5 481t404.5 184q174 0 291.5 -116.5t118.5 -319.5q0 -86 -13 -162h-777q-2 -36 -2 -54q0 -80 23.5 -141t63 -96t86 -52.5t97.5 -17.5
q197 0 271 137h183q-34 -129 -158 -211.5t-307 -82.5zM946 1228h-141l-73 340h197zM630 1228h-154l-139 340h210z" />
    <glyph glyph-name="Einvertedbreve" unicode="&#x206;" horiz-adv-x="1219" 
d="M998 162l-34 -162h-896l307 1443h896l-35 -162h-711l-100 -463h675l-34 -160h-674l-106 -496h712zM845 1874q146 0 232.5 -79t85.5 -220l-145 1q0 78 -48.5 124t-130.5 46q-79 0 -135 -43.5t-77 -126.5h-151q26 137 124 217.5t245 80.5z" />
    <glyph glyph-name="einvertedbreve" unicode="&#x207;" horiz-adv-x="1176" 
d="M306 638h585q2 12 2 45q0 112 -64.5 187t-181.5 75q-122 0 -212.5 -83t-128.5 -224zM540 -19q-188 0 -313 120t-125 331q0 297 156.5 481t404.5 184q174 0 291.5 -116.5t118.5 -319.5q0 -86 -13 -162h-777q-2 -36 -2 -54q0 -80 23.5 -141t63 -96t86 -52.5t97.5 -17.5
q197 0 271 137h183q-34 -129 -158 -211.5t-307 -82.5zM722 1568q64 0 117 -15.5t88 -42t61.5 -61.5t36.5 -72.5t14 -76t-7 -72.5h-143q12 89 -33 150.5t-142 61.5q-88 0 -147.5 -55t-72.5 -157h-149q15 154 115.5 247t261.5 93z" />
    <glyph glyph-name="Idblgrave" unicode="&#x208;" horiz-adv-x="550" 
d="M252 0h-184l307 1443h184zM602 1575l-63 298h190l14 -298h-141zM273 1575l-121 298h203l72 -298h-154z" />
    <glyph glyph-name="idblgrave" unicode="&#x209;" horiz-adv-x="516" 
d="M57 0l229 1078h172l-229 -1078h-172zM657 1228h-141l-73 340h197zM341 1228h-154l-139 340h210z" />
    <glyph glyph-name="Iinvertedbreve" unicode="&#x20a;" horiz-adv-x="550" 
d="M252 0h-184l307 1443h184zM490 1874q146 0 232.5 -79t85.5 -220l-145 1q0 78 -48.5 124t-130.5 46q-79 0 -135 -43.5t-77 -126.5h-151q26 137 124 217.5t245 80.5z" />
    <glyph glyph-name="iinvertedbreve" unicode="&#x20b;" horiz-adv-x="516" 
d="M57 0l229 1078h172l-229 -1078h-172zM433 1568q64 0 117 -15.5t88 -42t61.5 -61.5t36.5 -72.5t14 -76t-7 -72.5h-143q12 89 -33 150.5t-142 61.5q-88 0 -147.5 -55t-72.5 -157h-149q15 154 115.5 247t261.5 93z" />
    <glyph glyph-name="Odblgrave" unicode="&#x20c;" horiz-adv-x="1579" 
d="M913 1310q-162 0 -294.5 -95.5t-207.5 -263t-75 -372.5q0 -200 113 -323t297 -123q163 0 294 94t205 261t74 376q0 199 -112.5 322.5t-293.5 123.5zM732 -34q-253 0 -419.5 169.5t-166.5 427.5q0 194 59.5 364t162.5 290.5t248 190t311 69.5t299.5 -77t208 -213.5
t74.5 -306.5q0 -261 -100 -470t-277.5 -326.5t-399.5 -117.5zM1057 1573l-63 298h190l14 -298h-141zM728 1573l-121 298h203l72 -298h-154z" />
    <glyph glyph-name="odblgrave" unicode="&#x20d;" horiz-adv-x="1212" 
d="M563 136q99 0 183 64t132.5 173.5t48.5 238.5q0 154 -72 242t-199 88q-167 0 -270 -136.5t-103 -357.5q0 -140 77 -226t203 -86zM672 1097q196 0 317.5 -123t121.5 -321q0 -191 -73.5 -345t-204 -240.5t-292.5 -86.5q-196 0 -318.5 124t-122.5 322q0 294 160.5 482
t411.5 188zM955 1228h-141l-73 340h197zM639 1228h-154l-139 340h210z" />
    <glyph glyph-name="Oinvertedbreve" unicode="&#x20e;" horiz-adv-x="1579" 
d="M913 1310q-162 0 -294.5 -95.5t-207.5 -263t-75 -372.5q0 -200 113 -323t297 -123q163 0 294 94t205 261t74 376q0 199 -112.5 322.5t-293.5 123.5zM732 -34q-253 0 -419.5 169.5t-166.5 427.5q0 194 59.5 364t162.5 290.5t248 190t311 69.5t299.5 -77t208 -213.5
t74.5 -306.5q0 -261 -100 -470t-277.5 -326.5t-399.5 -117.5zM945 1872q146 0 232.5 -79t85.5 -220l-145 1q0 78 -48.5 124t-130.5 46q-79 0 -135 -43.5t-77 -126.5h-151q26 137 124 217.5t245 80.5z" />
    <glyph glyph-name="oinvertedbreve" unicode="&#x20f;" horiz-adv-x="1212" 
d="M563 136q99 0 183 64t132.5 173.5t48.5 238.5q0 154 -72 242t-199 88q-167 0 -270 -136.5t-103 -357.5q0 -140 77 -226t203 -86zM672 1097q196 0 317.5 -123t121.5 -321q0 -191 -73.5 -345t-204 -240.5t-292.5 -86.5q-196 0 -318.5 124t-122.5 322q0 294 160.5 482
t411.5 188zM731 1568q64 0 117 -15.5t88 -42t61.5 -61.5t36.5 -72.5t14 -76t-7 -72.5h-143q12 89 -33 150.5t-142 61.5q-88 0 -147.5 -55t-72.5 -157h-149q15 154 115.5 247t261.5 93z" />
    <glyph glyph-name="Rdblgrave" unicode="&#x210;" horiz-adv-x="1338" 
d="M68 0l307 1443h499q196 0 313.5 -104t117.5 -278q0 -168 -105.5 -294t-281.5 -168l207 -599h-196l-188 571h-368l-121 -571h-184zM525 1283l-118 -552h348q159 0 259.5 87.5t100.5 225.5q0 110 -66.5 174.5t-179.5 64.5h-344zM913 1575l-63 298h190l14 -298h-141z
M584 1575l-121 298h203l72 -298h-154z" />
    <glyph glyph-name="rdblgrave" unicode="&#x211;" horiz-adv-x="791" 
d="M37 0l229 1078h166l-29 -137h16q104 156 289 156q87 0 126 -15l-37 -165q-58 13 -136 13q-130 0 -206.5 -71t-108.5 -222l-135 -637h-174zM799 1228h-141l-73 340h197zM483 1228h-154l-139 340h210z" />
    <glyph glyph-name="Rinvertedbreve" unicode="&#x212;" horiz-adv-x="1338" 
d="M68 0l307 1443h499q196 0 313.5 -104t117.5 -278q0 -168 -105.5 -294t-281.5 -168l207 -599h-196l-188 571h-368l-121 -571h-184zM525 1283l-118 -552h348q159 0 259.5 87.5t100.5 225.5q0 110 -66.5 174.5t-179.5 64.5h-344zM801 1874q146 0 232.5 -79t85.5 -220l-145 1
q0 78 -48.5 124t-130.5 46q-79 0 -135 -43.5t-77 -126.5h-151q26 137 124 217.5t245 80.5z" />
    <glyph glyph-name="rinvertedbreve" unicode="&#x213;" horiz-adv-x="791" 
d="M37 0l229 1078h166l-29 -137h16q104 156 289 156q87 0 126 -15l-37 -165q-58 13 -136 13q-130 0 -206.5 -71t-108.5 -222l-135 -637h-174zM575 1568q64 0 117 -15.5t88 -42t61.5 -61.5t36.5 -72.5t14 -76t-7 -72.5h-143q12 89 -33 150.5t-142 61.5q-88 0 -147.5 -55
t-72.5 -157h-149q15 154 115.5 247t261.5 93z" />
    <glyph glyph-name="Udblgrave" unicode="&#x214;" horiz-adv-x="1524" 
d="M681 -34q-120 0 -216 34.5t-157.5 95.5t-95 142t-34.5 176q-1 60 13 130l188 899h184l-186 -887q-15 -68 -13 -133q5 -137 93 -214t256 -77q162 0 277.5 96t151.5 263l203 952h184l-210 -987q-50 -236 -211 -363t-427 -127zM1088 1575l-63 298h190l14 -298h-141z
M759 1575l-121 298h203l72 -298h-154z" />
    <glyph glyph-name="udblgrave" unicode="&#x215;" horiz-adv-x="1195" 
d="M1151 1078l-229 -1078h-166l33 146h-16q-48 -74 -133 -119.5t-201 -45.5q-145 0 -233.5 88.5t-88.5 224.5q0 67 15 140l135 644h175l-131 -619q-14 -68 -14 -121q0 -103 51.5 -152.5t157.5 -49.5q127 0 216 81.5t117 212.5l138 648h174zM986 1228h-141l-73 340h197z
M670 1228h-154l-139 340h210z" />
    <glyph glyph-name="Uinvertedbreve" unicode="&#x216;" horiz-adv-x="1524" 
d="M681 -34q-120 0 -216 34.5t-157.5 95.5t-95 142t-34.5 176q-1 60 13 130l188 899h184l-186 -887q-15 -68 -13 -133q5 -137 93 -214t256 -77q162 0 277.5 96t151.5 263l203 952h184l-210 -987q-50 -236 -211 -363t-427 -127zM976 1874q146 0 232.5 -79t85.5 -220l-145 1
q0 78 -48.5 124t-130.5 46q-79 0 -135 -43.5t-77 -126.5h-151q26 137 124 217.5t245 80.5z" />
    <glyph glyph-name="uinvertedbreve" unicode="&#x217;" horiz-adv-x="1195" 
d="M1151 1078l-229 -1078h-166l33 146h-16q-48 -74 -133 -119.5t-201 -45.5q-145 0 -233.5 88.5t-88.5 224.5q0 67 15 140l135 644h175l-131 -619q-14 -68 -14 -121q0 -103 51.5 -152.5t157.5 -49.5q127 0 216 81.5t117 212.5l138 648h174zM762 1568q64 0 117 -15.5t88 -42
t61.5 -61.5t36.5 -72.5t14 -76t-7 -72.5h-143q12 89 -33 150.5t-142 61.5q-88 0 -147.5 -55t-72.5 -157h-149q15 154 115.5 247t261.5 93z" />
    <glyph glyph-name="Scommaaccent" unicode="&#x218;" horiz-adv-x="1276" 
d="M64 400h182q26 -125 126.5 -198t246.5 -73q149 0 241.5 70.5t92.5 185.5q0 89 -61.5 150t-201.5 110l-137 48q-148 52 -229.5 149t-81.5 221q0 178 145.5 296t363.5 118q206 0 348 -118t158 -302h-181q-28 122 -116.5 189.5t-219.5 67.5q-134 0 -221 -66.5t-87 -168.5
q0 -77 57 -134t175 -100l130 -47q178 -64 264 -160t86 -230q0 -196 -150.5 -319t-389.5 -123q-222 0 -366.5 116t-173.5 318zM479 -494h-127l141 377h182z" />
    <glyph glyph-name="scommaaccent" unicode="&#x219;" horiz-adv-x="1052" 
d="M172 775q0 143 114.5 232.5t289.5 89.5q169 0 276 -80t129 -215h-171q-17 70 -80 109.5t-157 39.5q-99 0 -163.5 -45t-64.5 -115q0 -97 151 -146l146 -47q135 -43 196 -112.5t61 -178.5q0 -142 -123 -234t-311 -92q-177 0 -293.5 85t-128.5 223h177q21 -73 87.5 -118
t165.5 -45q109 0 179 47t70 121q0 103 -135 146l-165 53q-127 41 -188.5 108.5t-61.5 173.5zM317 -494h-127l141 377h182z" />
    <glyph glyph-name="Tcommaaccent" unicode="&#x21a;" horiz-adv-x="1291" 
d="M623 0h-184l272 1281h-463l34 162h1110l-34 -162h-463zM402 -494h-127l141 377h182z" />
    <glyph glyph-name="tcommaaccent" unicode="&#x21b;" horiz-adv-x="744" 
d="M429 -8q-117 0 -187.5 56t-70.5 162q0 40 11 93l135 631h-181l30 144h182l57 279h175l-59 -279h245l-32 -144h-243l-123 -578q-12 -57 -12 -97q0 -116 136 -116q44 0 75 4l-31 -146q-39 -9 -107 -9zM173 -494h-127l141 377h182z" />
    <glyph glyph-name="Hcaron" unicode="&#x21e;" horiz-adv-x="1522" 
d="M1224 0h-185l140 657h-788l-140 -657h-183l307 1443h184l-133 -624h788l133 624h184zM871 1575l-182 298h188l101 -195h16l190 195h191l-302 -298h-202z" />
    <glyph glyph-name="hcaron" unicode="&#x21f;" horiz-adv-x="1216" 
d="M55 0l322 1506h175l-127 -589h16q58 84 133.5 132t189.5 48q153 0 244.5 -95t91.5 -229q0 -56 -14 -124l-138 -649h-175l132 619q13 63 13 105q0 100 -59 159t-168 59q-124 0 -209 -79t-112 -205l-140 -658h-175zM382 1638l-182 298h188l101 -195h16l190 195h191
l-302 -298h-202z" />
    <glyph glyph-name="Adotaccent" unicode="&#x226;" horiz-adv-x="1380" 
d="M829 1207l-362 -641h473l-95 641h-16zM1018 0l-58 413h-579l-232 -413h-193l845 1443h167l226 -1443h-176zM946 1631q-50 0 -85 35.5t-35 84.5t35 84.5t85 35.5t85 -35.5t35 -84.5t-35 -84.5t-85 -35.5z" />
    <glyph glyph-name="adotaccent" unicode="&#x227;" horiz-adv-x="1126" 
d="M435 130q121 0 214 71.5t117 181.5l27 124l-287 -14q-132 -7 -205 -58.5t-73 -136.5q0 -74 58 -121t149 -47zM381 -19q-141 0 -235.5 86t-94.5 212q0 159 120.5 251t344.5 102l306 14l16 73q6 33 6 51q0 82 -61 127.5t-170 45.5q-91 0 -152 -35t-87 -100h-182
q36 133 153.5 211t281.5 78q178 0 285 -82.5t107 -219.5q0 -43 -9 -88l-150 -707h-167l30 141h-16q-57 -75 -143 -117.5t-183 -42.5zM710 1286q-50 0 -85 35t-35 85t35 85t85 35t85 -35t35 -85t-35 -85t-85 -35z" />
    <glyph glyph-name="Ecedilla" unicode="&#x228;" horiz-adv-x="1219" 
d="M1236 1281h-711l-100 -463h675l-34 -160h-674l-106 -496h712l-34 -162h-350l-96 -138q75 0 128 -42t53 -121q0 -93 -74.5 -140.5t-190.5 -47.5q-86 0 -155 23l25 114q48 -16 112 -16q120 0 120 63q0 65 -129 65h-60l19 90l102 150h-400l307 1443h896z" />
    <glyph glyph-name="ecedilla" unicode="&#x229;" horiz-adv-x="1176" 
d="M306 638h585q2 12 2 45q0 112 -64.5 187t-181.5 75q-122 0 -212.5 -83t-128.5 -224zM1060 499h-777q-2 -36 -2 -54q0 -80 23.5 -141t63 -96t86 -52.5t97.5 -17.5q197 0 271 137h183q-29 -112 -128 -190t-246 -98l-87 -125q75 0 128 -42t53 -121q0 -93 -74.5 -140.5
t-190.5 -47.5q-86 0 -155 23l25 114q48 -16 112 -16q120 0 120 63q0 65 -129 65h-60l19 90l91 134q-167 18 -274 136t-107 312q0 297 156.5 481t404.5 184q174 0 291.5 -116.5t118.5 -319.5q0 -86 -13 -162z" />
    <glyph glyph-name="Odieresismacron" unicode="&#x22a;" horiz-adv-x="1579" 
d="M913 1310q-162 0 -294.5 -95.5t-207.5 -263t-75 -372.5q0 -200 113 -323t297 -123q163 0 294 94t205 261t74 376q0 199 -112.5 322.5t-293.5 123.5zM732 -34q-253 0 -419.5 169.5t-166.5 427.5q0 194 59.5 364t162.5 290.5t248 190t311 69.5t299.5 -77t208 -213.5
t74.5 -306.5q0 -261 -100 -470t-277.5 -326.5t-399.5 -117.5zM777 1807q49 0 83 -34t34 -83t-34 -83t-83 -34t-83 34t-34 83t34 83t83 34zM1391 2060l-28 -130h-674l28 130h674zM1181 1807q49 0 83 -34t34 -83t-34 -83t-83 -34t-83 34t-34 83t34 83t83 34z" />
    <glyph glyph-name="odieresismacron" unicode="&#x22b;" horiz-adv-x="1212" 
d="M563 136q99 0 183 64t132.5 173.5t48.5 238.5q0 154 -72 242t-199 88q-167 0 -270 -136.5t-103 -357.5q0 -140 77 -226t203 -86zM672 1097q196 0 317.5 -123t121.5 -321q0 -191 -73.5 -345t-204 -240.5t-292.5 -86.5q-196 0 -318.5 124t-122.5 322q0 294 160.5 482
t411.5 188zM524 1228q-49 0 -83 34t-34 83t34 83t83 34t83 -34t34 -83t-34 -83t-83 -34zM928 1228q-49 0 -83 34t-34 83t34 83t83 34t83 -34t34 -83t-34 -83t-83 -34zM1147 1806l-29 -136h-654l29 136h654z" />
    <glyph glyph-name="Otildemacron" unicode="&#x22c;" horiz-adv-x="1579" 
d="M913 1310q-162 0 -294.5 -95.5t-207.5 -263t-75 -372.5q0 -200 113 -323t297 -123q163 0 294 94t205 261t74 376q0 199 -112.5 322.5t-293.5 123.5zM732 -34q-253 0 -419.5 169.5t-166.5 427.5q0 194 59.5 364t162.5 290.5t248 190t311 69.5t299.5 -77t208 -213.5
t74.5 -306.5q0 -261 -100 -470t-277.5 -326.5t-399.5 -117.5zM1391 2060l-28 -130h-674l28 130h674zM1108 1572q-45 0 -85 19.5t-64 42.5t-53 42.5t-55 19.5q-83 0 -114 -98h-142q19 110 91.5 171.5t163.5 61.5q45 0 85 -19.5t64 -42.5t53 -42.5t55 -19.5q83 0 114 98h142
q-19 -110 -91.5 -171.5t-163.5 -61.5z" />
    <glyph glyph-name="otildemacron" unicode="&#x22d;" horiz-adv-x="1212" 
d="M563 136q99 0 183 64t132.5 173.5t48.5 238.5q0 154 -72 242t-199 88q-167 0 -270 -136.5t-103 -357.5q0 -140 77 -226t203 -86zM672 1097q196 0 317.5 -123t121.5 -321q0 -191 -73.5 -345t-204 -240.5t-292.5 -86.5q-196 0 -318.5 124t-122.5 322q0 294 160.5 482
t411.5 188zM367 1261q19 118 79 188t157 70q43 0 78 -15.5t57.5 -37.5t41 -44t39 -37.5t41.5 -15.5q33 0 54.5 29.5t35.5 94.5h142q-19 -118 -78.5 -188t-158.5 -70q-44 0 -78.5 15.5t-56.5 37.5t-40.5 44t-38.5 37.5t-42 15.5q-33 0 -54.5 -29.5t-35.5 -94.5h-142z
M1135 1812l-29 -136h-654l29 136h654z" />
    <glyph glyph-name="Odotaccent" unicode="&#x22e;" horiz-adv-x="1579" 
d="M913 1310q-162 0 -294.5 -95.5t-207.5 -263t-75 -372.5q0 -200 113 -323t297 -123q163 0 294 94t205 261t74 376q0 199 -112.5 322.5t-293.5 123.5zM732 -34q-253 0 -419.5 169.5t-166.5 427.5q0 194 59.5 364t162.5 290.5t248 190t311 69.5t299.5 -77t208 -213.5
t74.5 -306.5q0 -261 -100 -470t-277.5 -326.5t-399.5 -117.5zM984 1629q-50 0 -85 35.5t-35 84.5t35 84.5t85 35.5t85 -35.5t35 -84.5t-35 -84.5t-85 -35.5z" />
    <glyph glyph-name="odotaccent" unicode="&#x22f;" horiz-adv-x="1212" 
d="M563 136q99 0 183 64t132.5 173.5t48.5 238.5q0 154 -72 242t-199 88q-167 0 -270 -136.5t-103 -357.5q0 -140 77 -226t203 -86zM672 1097q196 0 317.5 -123t121.5 -321q0 -191 -73.5 -345t-204 -240.5t-292.5 -86.5q-196 0 -318.5 124t-122.5 322q0 294 160.5 482
t411.5 188zM736 1286q-50 0 -85 35t-35 85t35 85t85 35t85 -35t35 -85t-35 -85t-85 -35z" />
    <glyph glyph-name="Odotaccentmacron" unicode="&#x230;" horiz-adv-x="1579" 
d="M913 1310q-162 0 -294.5 -95.5t-207.5 -263t-75 -372.5q0 -200 113 -323t297 -123q163 0 294 94t205 261t74 376q0 199 -112.5 322.5t-293.5 123.5zM732 -34q-253 0 -419.5 169.5t-166.5 427.5q0 194 59.5 364t162.5 290.5t248 190t311 69.5t299.5 -77t208 -213.5
t74.5 -306.5q0 -261 -100 -470t-277.5 -326.5t-399.5 -117.5zM976 1575q-50 0 -84.5 34.5t-34.5 84.5t34.5 84.5t84.5 34.5t84.5 -34.5t34.5 -84.5t-34.5 -84.5t-84.5 -34.5zM1391 2060l-28 -130h-674l28 130h674z" />
    <glyph glyph-name="odotaccentmacron" unicode="&#x231;" horiz-adv-x="1212" 
d="M563 136q99 0 183 64t132.5 173.5t48.5 238.5q0 154 -72 242t-199 88q-167 0 -270 -136.5t-103 -357.5q0 -140 77 -226t203 -86zM672 1097q196 0 317.5 -123t121.5 -321q0 -191 -73.5 -345t-204 -240.5t-292.5 -86.5q-196 0 -318.5 124t-122.5 322q0 294 160.5 482
t411.5 188zM723 1228q-50 0 -84.5 34.5t-34.5 84.5t34.5 84.5t84.5 34.5t84.5 -34.5t34.5 -84.5t-34.5 -84.5t-84.5 -34.5zM1147 1806l-29 -136h-654l29 136h654z" />
    <glyph glyph-name="Ymacron" unicode="&#x232;" horiz-adv-x="1344" 
d="M650 0h-184l132 621l-336 822h187l268 -649h16l526 649h207l-692 -848zM1265 1817l-29 -136h-654l29 136h654z" />
    <glyph glyph-name="ymacron" unicode="&#x233;" horiz-adv-x="1112" 
d="M103 -392q-63 0 -124 16l30 143q43 -13 104 -13q56 0 103.5 40.5t101.5 140.5l39 73l-175 1070h171l128 -857h16l472 857h189l-686 -1196q-91 -159 -172.5 -216.5t-196.5 -57.5zM1077 1472l-29 -136h-654l29 136h654z" />
    <glyph glyph-name="dotlessj" unicode="&#x237;" horiz-adv-x="516" 
d="M459 1078l-246 -1157q-32 -151 -115.5 -221t-229.5 -70q-52 0 -85 5l35 152q23 -4 55 -4q76 0 115 36t58 125l241 1134h172z" />
    <glyph glyph-name="quoteright" unicode="&#x2019;" horiz-adv-x="605" 
d="M346 904h-125l226 539h195z" />
    <glyph glyph-name="quoteright" unicode="&#x2bc;" horiz-adv-x="605" 
d="M346 904h-125l226 539h195z" />
    <glyph glyph-name="circumflex" unicode="&#x2c6;" horiz-adv-x="1024" 
d="M819 1568l182 -340h-188l-100 227h-16l-191 -227h-191l302 340h202z" />
    <glyph glyph-name="caron" unicode="&#x2c7;" horiz-adv-x="1024" 
d="M569 1228l-182 340h188l100 -227h16l191 227h191l-302 -340h-202z" />
    <glyph glyph-name="breve" unicode="&#x2d8;" horiz-adv-x="1024" 
d="M695 1228q-64 0 -117 15.5t-88 42t-61.5 61.5t-36.5 72.5t-14 76t7 72.5h143q-12 -89 33 -150.5t142 -61.5q88 0 147.5 55t72.5 157h149q-15 -154 -115.5 -247t-261.5 -93z" />
    <glyph glyph-name="dotaccent" unicode="&#x2d9;" horiz-adv-x="1024" 
d="M696 1286q-50 0 -85 35t-35 85t35 85t85 35t85 -35t35 -85t-35 -85t-85 -35z" />
    <glyph glyph-name="ring" unicode="&#x2da;" horiz-adv-x="1024" 
d="M707 1228q-96 0 -164 66.5t-68 162.5t68 162.5t164 66.5t164 -66.5t68 -162.5t-68 -162.5t-164 -66.5zM707 1334q52 0 87 35t35 88t-35 88t-87 35t-87 -35t-35 -88t35 -88t87 -35z" />
    <glyph glyph-name="ogonek" unicode="&#x2db;" horiz-adv-x="1024" 
d="M332 -435q-87 0 -151 50t-64 136q0 79 59.5 148.5t171.5 120.5l154 -20q-94 -41 -157 -98.5t-63 -116.5q0 -35 24 -55.5t70 -20.5q29 0 66 8l-30 -142q-33 -10 -80 -10z" />
    <glyph glyph-name="tilde" unicode="&#x2dc;" horiz-adv-x="1024" 
d="M327 1261q19 118 79 188t157 70q43 0 78 -15.5t57.5 -37.5t41 -44t39 -37.5t41.5 -15.5q33 0 54.5 29.5t35.5 94.5h142q-19 -118 -78.5 -188t-158.5 -70q-44 0 -78.5 15.5t-56.5 37.5t-40.5 44t-38.5 37.5t-42 15.5q-33 0 -54.5 -29.5t-35.5 -94.5h-142z" />
    <glyph glyph-name="hungarumlaut" unicode="&#x2dd;" horiz-adv-x="1024" 
d="M318 1228l161 340h197l-217 -340h-141zM634 1228l227 340h210l-283 -340h-154z" />
    <glyph glyph-name="gravecmb" unicode="&#x300;" 
d="M76 1228l-139 340h210l83 -340h-154z" />
    <glyph glyph-name="acutecmb" unicode="&#x301;" 
d="M216 1228h-154l227 340h210z" />
    <glyph glyph-name="circumflexcmb" unicode="&#x302;" 
d="M308 1568l182 -340h-188l-100 227h-16l-191 -227h-191l302 340h202z" />
    <glyph glyph-name="tildecmb" unicode="&#x303;" 
d="M-189 1261q19 118 79 188t157 70q43 0 78 -15.5t57.5 -37.5t41 -44t39 -37.5t41.5 -15.5q33 0 54.5 29.5t35.5 94.5h142q-19 -118 -78.5 -188t-158.5 -70q-44 0 -78.5 15.5t-56.5 37.5t-40.5 44t-38.5 37.5t-42 15.5q-33 0 -54.5 -29.5t-35.5 -94.5h-142z" />
    <glyph glyph-name="macroncmb" unicode="&#x304;" 
d="M520 1472l-29 -136h-654l29 136h654z" />
    <glyph glyph-name="brevecmb" unicode="&#x306;" 
d="M177 1228q-64 0 -117 15.5t-88 42t-61.5 61.5t-36.5 72.5t-14 76t7 72.5h143q-12 -89 33 -150.5t142 -61.5q88 0 147.5 55t72.5 157h149q-15 -154 -115.5 -247t-261.5 -93z" />
    <glyph glyph-name="dotaccentcmb" unicode="&#x307;" 
d="M180 1286q-50 0 -85 35t-35 85t35 85t85 35t85 -35t35 -85t-35 -85t-85 -35z" />
    <glyph glyph-name="dieresiscmb" unicode="&#x308;" 
d="M-35 1286q-49 0 -84.5 35t-35.5 85t35.5 85t84.5 35t84.5 -35t35.5 -85t-35.5 -85t-84.5 -35zM399 1286q-49 0 -84.5 35t-35.5 85t35.5 85t84.5 35t84.5 -35t35.5 -85t-35.5 -85t-84.5 -35z" />
    <glyph glyph-name="hookabovecmb" unicode="&#x309;" 
d="M46 1464l25 118q39 13 97 13q98 0 161 -50.5t63 -130.5q0 -83 -66 -142.5t-163 -84.5l-45 107q59 19 95 48t36 63q0 32 -30.5 50.5t-83.5 18.5q-46 0 -89 -10z" />
    <glyph glyph-name="ringcmb" unicode="&#x30a;" 
d="M195 1228q-96 0 -164 66.5t-68 162.5t68 162.5t164 66.5t164 -66.5t68 -162.5t-68 -162.5t-164 -66.5zM195 1334q52 0 87 35t35 88t-35 88t-87 35t-87 -35t-35 -88t35 -88t87 -35z" />
    <glyph glyph-name="hungarumlautcmb" unicode="&#x30b;" 
d="M-107 1228l161 340h197l-217 -340h-141zM209 1228l227 340h210l-283 -340h-154z" />
    <glyph glyph-name="caroncmb" unicode="&#x30c;" 
d="M58 1228l-182 340h188l100 -227h16l191 227h191l-302 -340h-202z" />
    <glyph glyph-name="dblgravecmb" unicode="&#x30f;" 
d="M399 1228h-141l-73 340h197zM83 1228h-154l-139 340h210z" />
    <glyph glyph-name="invertedbrevecmb" unicode="&#x311;" 
d="M175 1568q64 0 117 -15.5t88 -42t61.5 -61.5t36.5 -72.5t14 -76t-7 -72.5h-143q12 89 -33 150.5t-142 61.5q-88 0 -147.5 -55t-72.5 -157h-149q15 154 115.5 247t261.5 93z" />
    <glyph glyph-name="horncmb" unicode="&#x31b;" 
d="M-76 1111l28 109q15 0 39 2q47 6 69.5 29t29.5 63l24 139h159l-30 -169q-15 -90 -78.5 -138t-155.5 -48q-59 0 -85 13z" />
    <glyph glyph-name="dotbelowcmb" unicode="&#x323;" 
d="M-177 -392q-49 0 -84.5 35t-35.5 85t35.5 85t84.5 35t84.5 -35t35.5 -85t-35.5 -85t-84.5 -35z" />
    <glyph glyph-name="dieresisbelowcmb" unicode="&#x324;" 
d="M-392 -392q-50 0 -85 35t-35 85t35 85t85 35t85 -35t35 -85t-35 -85t-85 -35zM42 -392q-50 0 -85 35t-35 85t35 85t85 35t85 -35t35 -85t-35 -85t-85 -35z" />
    <glyph glyph-name="ringbelowcmb" unicode="&#x325;" 
d="M-172 -501q-96 0 -164 66.5t-68 162.5t68 162.5t164 66.5t164 -66.5t68 -162.5t-68 -162.5t-164 -66.5zM-172 -395q52 0 87 35t35 88t-35 88t-87 35t-87 -35t-35 -88t35 -88t87 -35z" />
    <glyph glyph-name="commabelowcmb" unicode="&#x326;" 
d="M-243 -494h-127l141 377h182z" />
    <glyph glyph-name="cedillacmb" unicode="&#x327;" 
d="M-352 -466l25 114q48 -16 112 -16q120 0 120 63q0 65 -129 65h-60l19 90l117 172h131v-22l-96 -138q75 0 128 -42t53 -121q0 -93 -74.5 -140.5t-190.5 -47.5q-86 0 -155 23z" />
    <glyph glyph-name="ogonekcmb" unicode="&#x328;" 
d="M-180 -435q-87 0 -151 50t-64 136q0 79 59.5 148.5t171.5 120.5l154 -20q-94 -41 -157 -98.5t-63 -116.5q0 -35 24 -55.5t70 -20.5q29 0 66 8l-30 -142q-33 -10 -80 -10z" />
    <glyph glyph-name="circumflexbelowcmb" unicode="&#x32d;" 
d="M-50 -117l182 -340h-188l-100 227h-16l-191 -227h-191l302 340h202z" />
    <glyph glyph-name="brevebelowcmb" unicode="&#x32e;" 
d="M-178 -442q-64 0 -117 15.5t-88 42t-61.5 61.5t-36.5 72.5t-14 76t7 72.5h143q-12 -89 33 -150.5t142 -61.5q88 0 147.5 55t72.5 157h149q-15 -154 -115.5 -247t-261.5 -93z" />
    <glyph glyph-name="tildebelowcmb" unicode="&#x330;" 
d="M-539 -388q19 118 79 188t157 70q43 0 78 -15.5t57.5 -37.5t41 -44t39 -37.5t41.5 -15.5q33 0 54.5 29.5t35.5 94.5h142q-19 -118 -78.5 -188t-158.5 -70q-44 0 -78.5 15.5t-56.5 37.5t-40.5 44t-38.5 37.5t-42 15.5q-33 0 -54.5 -29.5t-35.5 -94.5h-142z" />
    <glyph glyph-name="macronbelowcmb" unicode="&#x332;" 
d="M164 -204l-29 -136h-654l29 136h654z" />
    <glyph glyph-name="macronbelowcmb" unicode="&#x331;" 
d="M164 -204l-29 -136h-654l29 136h654z" />
    <glyph glyph-name="greekquestionmark" unicode="&#x37e;" horiz-adv-x="608" 
d="M354 764q-53 0 -91.5 38.5t-38.5 91.5q0 54 38.5 92t91.5 38q54 0 92 -38t38 -92q0 -53 -38 -91.5t-92 -38.5zM71 -367h-129l216 569h191z" />
    <glyph glyph-name="tonosgreek" unicode="&#x384;" horiz-adv-x="1024" 
d="M529 1228l138 340h193l-179 -340h-152z" />
    <glyph glyph-name="dieresistonosgreek" unicode="&#x385;" horiz-adv-x="1024" 
d="M364 1228q-50 0 -85 35t-35 85t35 85t85 35t85 -35t35 -85t-35 -85t-85 -35zM568 1228l88 340h193l-129 -340h-152zM1004 1228q-50 0 -85 35t-35 85t35 85t85 35t85 -35t35 -85t-35 -85t-85 -35z" />
    <glyph glyph-name="Alphatonosgreek" unicode="&#x386;" horiz-adv-x="1380" 
d="M829 1207l-362 -641h473l-95 641h-16zM1018 0l-58 413h-579l-232 -413h-193l845 1443h167l226 -1443h-176zM242 1103l138 340h193l-179 -340h-152z" />
    <glyph glyph-name="anoteleia" unicode="&#x387;" horiz-adv-x="608" 
d="M365 818q-53 0 -91.5 38.5t-38.5 91.5q0 54 38.5 92t91.5 38q54 0 92 -38t38 -92q0 -53 -38 -91.5t-92 -38.5z" />
    <glyph glyph-name="Epsilontonosgreek" unicode="&#x388;" horiz-adv-x="1547" 
d="M189 1103l138 340h193l-179 -340h-152zM1326 162l-34 -162h-896l307 1443h896l-35 -162h-711l-100 -463h675l-34 -160h-674l-106 -496h712z" />
    <glyph glyph-name="Etatonosgreek" unicode="&#x389;" horiz-adv-x="1850" 
d="M189 1103l138 340h193l-179 -340h-152zM1552 0h-185l140 657h-788l-140 -657h-183l307 1443h184l-133 -624h788l133 624h184z" />
    <glyph glyph-name="Iotatonosgreek" unicode="&#x38a;" horiz-adv-x="878" 
d="M189 1103l138 340h193l-179 -340h-152zM580 0h-184l307 1443h184z" />
    <glyph glyph-name="Omicrontonosgreek" unicode="&#x38c;" horiz-adv-x="1818" 
d="M189 1103l138 340h193l-179 -340h-152zM1152 1310q-162 0 -294.5 -95.5t-207.5 -263t-75 -372.5q0 -200 113 -323t297 -123q163 0 294 94t205 261t74 376q0 199 -112.5 322.5t-293.5 123.5zM971 -34q-253 0 -419.5 169.5t-166.5 427.5q0 194 59.5 364t162.5 290.5
t248 190t311 69.5t299.5 -77t208 -213.5t74.5 -306.5q0 -261 -100 -470t-277.5 -326.5t-399.5 -117.5z" />
    <glyph glyph-name="Upsilontonosgreek" unicode="&#x38e;" horiz-adv-x="1672" 
d="M189 1103l138 340h193l-179 -340h-152zM978 0h-184l132 621l-336 822h187l268 -649h16l526 649h207l-692 -848z" />
    <glyph glyph-name="Omegatonosgreek" unicode="&#x38f;" horiz-adv-x="1885" 
d="M189 1103l138 340h193l-179 -340h-152zM1128 0l44 204q423 249 423 689q0 192 -111.5 304.5t-308.5 112.5q-249 0 -396.5 -168t-147.5 -451q0 -158 69.5 -283t203.5 -204l-44 -204h-526l35 162h311l4 18q-115 85 -177 214t-62 294q0 232 93.5 411.5t265 278.5t395.5 99
q269 0 426 -155.5t157 -415.5q0 -222 -108.5 -418t-291.5 -308l-4 -18h311l-35 -162h-526z" />
    <glyph glyph-name="iotadieresistonosgreek" unicode="&#x390;" horiz-adv-x="591" 
d="M433 1078l-155 -722q-12 -57 -12 -97q0 -116 135 -116q48 0 76 4l-31 -146q-36 -9 -108 -9q-121 0 -189 57.5t-68 160.5q0 44 11 93l167 775h174zM97 1228q-49 0 -84.5 35t-35.5 85t35.5 85t84.5 35t84.5 -35t35.5 -85t-35.5 -85t-84.5 -35zM301 1228l88 340h193
l-129 -340h-152zM737 1228q-49 0 -84.5 35t-35.5 85t35.5 85t84.5 35t84.5 -35t35.5 -85t-35.5 -85t-84.5 -35z" />
    <glyph glyph-name="Alphagreek" unicode="&#x391;" horiz-adv-x="1380" 
d="M829 1207l-362 -641h473l-95 641h-16zM1018 0l-58 413h-579l-232 -413h-193l845 1443h167l226 -1443h-176z" />
    <glyph glyph-name="Betagreek" unicode="&#x392;" horiz-adv-x="1346" 
d="M658 0h-590l307 1443h501q185 0 295.5 -86.5t110.5 -231.5q0 -136 -85 -236.5t-227 -131.5l-4 -16q116 -20 182.5 -95.5t66.5 -187.5q0 -200 -156.5 -329t-400.5 -129zM524 1284l-98 -463h298q165 0 268 74t103 193q0 196 -288 196h-283zM285 159h367q159 0 265.5 81.5
t106.5 202.5q0 223 -296 223h-335z" />
    <glyph glyph-name="Gammagreek" unicode="&#x393;" horiz-adv-x="1150" 
d="M253 0h-185l307 1443h858l-35 -162h-673z" />
    <glyph glyph-name="Deltagreek" unicode="&#x2206;" horiz-adv-x="1394" 
d="M1174 0h-1184l27 126l791 1317h167l226 -1317zM844 1221l-608 -1044l-3 -15h784l3 13l-170 1046h-6z" />
    <glyph glyph-name="Deltagreek" unicode="&#x394;" horiz-adv-x="1394" 
d="M1174 0h-1184l27 126l791 1317h167l226 -1317zM844 1221l-608 -1044l-3 -15h784l3 13l-170 1046h-6z" />
    <glyph glyph-name="Epsilongreek" unicode="&#x395;" horiz-adv-x="1219" 
d="M998 162l-34 -162h-896l307 1443h896l-35 -162h-711l-100 -463h675l-34 -160h-674l-106 -496h712z" />
    <glyph glyph-name="Zetagreek" unicode="&#x396;" horiz-adv-x="1355" 
d="M29 0l27 128l1048 1137l4 16h-779l34 162h1022l-27 -128l-1045 -1137l-3 -16h820l-34 -162h-1067z" />
    <glyph glyph-name="Etagreek" unicode="&#x397;" horiz-adv-x="1522" 
d="M1224 0h-185l140 657h-788l-140 -657h-183l307 1443h184l-133 -624h788l133 624h184z" />
    <glyph glyph-name="Thetagreek" unicode="&#x398;" horiz-adv-x="1582" 
d="M1114 638h-605l35 162h605zM706 -34q-268 0 -414 153.5t-146 434.5q0 270 100 480.5t281 326.5t414 116q279 0 425 -152.5t146 -444.5q0 -266 -102 -474.5t-285.5 -324t-418.5 -115.5zM1326 855q0 224 -103.5 340t-304.5 116q-169 0 -303 -93t-208.5 -260t-74.5 -378
q0 -215 105 -331.5t300 -116.5q168 0 303 93t210.5 258t75.5 372z" />
    <glyph glyph-name="Iotagreek" unicode="&#x399;" horiz-adv-x="550" 
d="M252 0h-184l307 1443h184z" />
    <glyph glyph-name="Kappagreek" unicode="&#x39a;" horiz-adv-x="1349" 
d="M249 0h-180l307 1443h179l-149 -701h16l772 701h235l-702 -635l449 -808h-210l-381 697l-229 -204z" />
    <glyph glyph-name="Lambdagreek" unicode="&#x39b;" horiz-adv-x="1368" 
d="M823 1207l-660 -1207h-193l825 1443h167l206 -1443h-176l-153 1207h-16z" />
    <glyph glyph-name="Mugreek" unicode="&#x39c;" horiz-adv-x="1792" 
d="M240 0h-172l307 1443h200l238 -1204h16l750 1204h222l-307 -1443h-172l234 1102h-12l-689 -1102h-152l-217 1102h-12z" />
    <glyph glyph-name="Nugreek" unicode="&#x39d;" horiz-adv-x="1520" 
d="M250 0h-182l307 1443h177l534 -1153h16l245 1153h182l-307 -1443h-179l-533 1150h-16z" />
    <glyph glyph-name="Xigreek" unicode="&#x39e;" horiz-adv-x="1343" 
d="M334 1443h1059l-35 -167h-1059zM1138 653h-885l36 165h885zM63 167h1059l-35 -167h-1059z" />
    <glyph glyph-name="Omicrongreek" unicode="&#x39f;" horiz-adv-x="1579" 
d="M913 1310q-162 0 -294.5 -95.5t-207.5 -263t-75 -372.5q0 -200 113 -323t297 -123q163 0 294 94t205 261t74 376q0 199 -112.5 322.5t-293.5 123.5zM732 -34q-253 0 -419.5 169.5t-166.5 427.5q0 194 59.5 364t162.5 290.5t248 190t311 69.5t299.5 -77t208 -213.5
t74.5 -306.5q0 -261 -100 -470t-277.5 -326.5t-399.5 -117.5z" />
    <glyph glyph-name="Pigreek" unicode="&#x3a0;" horiz-adv-x="1502" 
d="M1204 0h-185l273 1281h-768l-273 -1281h-183l307 1443h1136z" />
    <glyph glyph-name="Rhogreek" unicode="&#x3a1;" horiz-adv-x="1304" 
d="M375 1443h507q177 0 295.5 -107.5t118.5 -282.5q0 -124 -44.5 -226t-122.5 -170t-183 -105t-225 -37h-360l-109 -515h-184zM525 1283l-130 -608h315q182 0 290 95.5t108 266.5q0 116 -78 181t-211 65h-294z" />
    <glyph glyph-name="Sigmagreek" unicode="&#x3a3;" horiz-adv-x="1355" 
d="M297 169l-2 -7h835l-34 -162h-1067l27 128l541 620l-263 561l28 134h1022l-34 -162h-799l-2 -7l239 -515l-7 -30z" />
    <glyph glyph-name="Taugreek" unicode="&#x3a4;" horiz-adv-x="1291" 
d="M623 0h-184l272 1281h-463l34 162h1110l-34 -162h-463z" />
    <glyph glyph-name="Upsilongreek" unicode="&#x3a5;" horiz-adv-x="1344" 
d="M650 0h-184l132 621l-336 822h187l268 -649h16l526 649h207l-692 -848z" />
    <glyph glyph-name="Phigreek" unicode="&#x3a6;" horiz-adv-x="1696" 
d="M629 -58l30 143q-249 24 -385 161.5t-136 364.5q0 210 100 377.5t280 262.5t410 100l31 146h184l-31 -146q250 -25 385.5 -162t135.5 -366q0 -210 -100 -376.5t-280 -261.5t-409 -100l-31 -143h-184zM693 246l200 943q-254 0 -411 -155.5t-157 -403.5q0 -173 95 -272
t273 -112zM878 247q255 0 411.5 154.5t156.5 405.5q0 172 -95.5 271.5t-272.5 111.5z" />
    <glyph glyph-name="Chigreek" unicode="&#x3a7;" horiz-adv-x="1389" 
d="M-25 0l655 752l-323 691h206l249 -574h16l508 574h205l-649 -727l332 -716h-194l-268 586h-16l-517 -586h-204z" />
    <glyph glyph-name="Psigreek" unicode="&#x3a8;" horiz-adv-x="1676" 
d="M816 0h-185l72 339q-238 26 -355 132.5t-117 297.5q0 56 14 129l114 545h184l-113 -539q-16 -73 -16 -136q0 -126 81.5 -189t243.5 -74l199 938h184l-199 -938q396 0 480 399l114 539h184l-115 -545q-29 -136 -78.5 -233t-132 -169t-203 -110.5t-284.5 -46.5z" />
    <glyph glyph-name="Omegagreek" unicode="&#x2126;" horiz-adv-x="1609" 
d="M852 0l44 204q423 249 423 689q0 192 -111.5 304.5t-308.5 112.5q-249 0 -396.5 -168t-147.5 -451q0 -158 69.5 -283t203.5 -204l-44 -204h-526l35 162h311l4 18q-115 85 -177 214t-62 294q0 232 93.5 411.5t265 278.5t395.5 99q269 0 426 -155.5t157 -415.5
q0 -222 -108.5 -418t-291.5 -308l-4 -18h311l-35 -162h-526z" />
    <glyph glyph-name="Omegagreek" unicode="&#x3a9;" horiz-adv-x="1609" 
d="M852 0l44 204q423 249 423 689q0 192 -111.5 304.5t-308.5 112.5q-249 0 -396.5 -168t-147.5 -451q0 -158 69.5 -283t203.5 -204l-44 -204h-526l35 162h311l4 18q-115 85 -177 214t-62 294q0 232 93.5 411.5t265 278.5t395.5 99q269 0 426 -155.5t157 -415.5
q0 -222 -108.5 -418t-291.5 -308l-4 -18h311l-35 -162h-526z" />
    <glyph glyph-name="Iotadieresisgreek" unicode="&#x3aa;" horiz-adv-x="550" 
d="M252 0h-184l307 1443h184zM314 1631q-50 0 -85 35.5t-35 84.5t35 84.5t85 35.5t85 -35.5t35 -84.5t-35 -84.5t-85 -35.5zM748 1631q-50 0 -85 35.5t-35 84.5t35 84.5t85 35.5t85 -35.5t35 -84.5t-35 -84.5t-85 -35.5z" />
    <glyph glyph-name="Upsilondieresisgreek" unicode="&#x3ab;" horiz-adv-x="1344" 
d="M650 0h-184l132 621l-336 822h187l268 -649h16l526 649h207l-692 -848zM710 1631q-50 0 -85 35.5t-35 84.5t35 84.5t85 35.5t85 -35.5t35 -84.5t-35 -84.5t-85 -35.5zM1144 1631q-50 0 -85 35.5t-35 84.5t35 84.5t85 35.5t85 -35.5t35 -84.5t-35 -84.5t-85 -35.5z" />
    <glyph glyph-name="alphatonosgreek" unicode="&#x3ac;" horiz-adv-x="1265" 
d="M454 -19q-163 0 -266 121.5t-103 312.5q0 189 69 345.5t189.5 246.5t266.5 90q271 0 336 -219h16l43 200h167l-172 -809q-7 -27 -7 -59q0 -38 20.5 -53.5t70.5 -15.5q29 0 50 4l-31 -145q-41 -10 -87 -10q-99 0 -144 44.5t-45 144.5v11h-16q-52 -99 -146.5 -154
t-210.5 -55zM502 136q163 0 276 139.5t113 339.5q0 151 -71 239t-193 88q-156 0 -259 -144.5t-103 -362.5q0 -134 65.5 -216.5t171.5 -82.5zM637 1228l138 340h193l-179 -340h-152z" />
    <glyph glyph-name="epsilontonosgreek" unicode="&#x3ad;" horiz-adv-x="1110" 
d="M487 -19q-114 0 -208 32t-154 100t-60 161q0 105 66 175.5t177 96.5l4 16q-140 64 -140 203q0 152 121 242t315 90q217 0 330.5 -87.5t129.5 -229.5h-176q-21 82 -88.5 122t-195.5 40q-125 0 -191.5 -49t-66.5 -125q0 -70 53 -108.5t158 -38.5h161l-33 -154h-189
q-119 0 -185 -47t-66 -125q0 -74 66.5 -116t186.5 -42q125 0 218.5 51t124.5 138h179q-40 -159 -182 -252t-355 -93zM597 1228l138 340h193l-179 -340h-152z" />
    <glyph glyph-name="etatonosgreek" unicode="&#x3ae;" horiz-adv-x="1286" 
d="M768 -360l209 989q11 55 11 95q0 103 -60 160.5t-162 57.5q-117 0 -203.5 -76.5t-116.5 -217.5l-138 -648h-175l172 810q8 40 8 59q0 37 -20.5 52.5t-69.5 15.5q-32 0 -52 -4l31 145q41 10 85 10q90 0 136 -33t59 -112l6 -35h17q123 189 331 189q146 0 240 -91.5
t94 -243.5q0 -48 -16 -124l-213 -998h-173zM717 1228l138 340h193l-179 -340h-152z" />
    <glyph glyph-name="iotatonosgreek" unicode="&#x3af;" horiz-adv-x="591" 
d="M433 1078l-155 -722q-12 -57 -12 -97q0 -116 135 -116q48 0 76 4l-31 -146q-36 -9 -108 -9q-121 0 -189 57.5t-68 160.5q0 44 11 93l167 775h174zM301 1228l138 340h193l-179 -340h-152z" />
    <glyph glyph-name="upsilondieresistonosgreek" unicode="&#x3b0;" horiz-adv-x="1162" 
d="M866 1078h177q28 -112 28 -285q0 -192 -45 -346.5t-125.5 -256t-190 -155.5t-238.5 -54q-178 0 -275 86t-97 242q0 65 14 134l133 635h171l-130 -618q-18 -81 -16 -151q1 -171 208 -171q195 0 304.5 172.5t109.5 479.5q0 166 -28 288zM383 1228q-49 0 -84.5 35t-35.5 85
t35.5 85t84.5 35t84.5 -35t35.5 -85t-35.5 -85t-84.5 -35zM587 1228l88 340h193l-129 -340h-152zM1023 1228q-49 0 -84.5 35t-35.5 85t35.5 85t84.5 35t84.5 -35t35.5 -85t-35.5 -85t-84.5 -35z" />
    <glyph glyph-name="alphagreek" unicode="&#x3b1;" horiz-adv-x="1265" 
d="M454 -19q-163 0 -266 121.5t-103 312.5q0 189 69 345.5t189.5 246.5t266.5 90q271 0 336 -219h16l43 200h167l-172 -809q-7 -27 -7 -59q0 -38 20.5 -53.5t70.5 -15.5q29 0 50 4l-31 -145q-41 -10 -87 -10q-99 0 -144 44.5t-45 144.5v11h-16q-52 -99 -146.5 -154
t-210.5 -55zM502 136q163 0 276 139.5t113 339.5q0 151 -71 239t-193 88q-156 0 -259 -144.5t-103 -362.5q0 -134 65.5 -216.5t171.5 -82.5z" />
    <glyph glyph-name="betagreek" unicode="&#x3b2;" horiz-adv-x="1262" 
d="M269 1079q48 225 164.5 335.5t322.5 110.5q176 0 287 -92t111 -242q0 -128 -63 -221t-185 -140l-3 -17q123 -47 184 -128.5t61 -205.5q0 -209 -149.5 -353.5t-368.5 -144.5q-278 0 -359 218h-16l-119 -559h-173zM544 735l33 154h97q136 0 219.5 76.5t83.5 197.5
q0 95 -59 151t-176 56q-236 0 -303 -309l-112 -523q-17 -80 -17 -116q0 -132 85 -209t227 -77q146 0 245.5 95.5t99.5 233.5q0 129 -80.5 199.5t-227.5 70.5h-115z" />
    <glyph glyph-name="gammagreek" unicode="&#x3b3;" horiz-adv-x="1092" 
d="M1069 1078q5 -26 5 -77q0 -209 -155 -463t-453 -566l-69 -322h-173l70 329l-141 1099h183l92 -920h19q221 248 339 459t118 394q0 41 -6 67h171z" />
    <glyph glyph-name="deltagreek" unicode="&#x3b4;" horiz-adv-x="1186" 
d="M511 -19q-200 0 -319 117.5t-119 314.5q0 230 128 390t355 188l4 19q-170 92 -170 234q0 131 106.5 206t291.5 75q111 0 207.5 -25.5t145.5 -68.5l-38 -151q-149 94 -347 94q-92 0 -142.5 -31t-50.5 -89q0 -49 35 -84.5t147 -98.5q187 -104 265.5 -210t78.5 -263
q0 -168 -77 -310t-210.5 -224.5t-290.5 -82.5zM528 132q165 0 273.5 128t108.5 320q0 137 -76.5 219t-205.5 82q-159 0 -266.5 -127t-107.5 -331q0 -132 74 -211.5t200 -79.5z" />
    <glyph glyph-name="epsilongreek" unicode="&#x3b5;" horiz-adv-x="1110" 
d="M487 -19q-114 0 -208 32t-154 100t-60 161q0 105 66 175.5t177 96.5l4 16q-140 64 -140 203q0 152 121 242t315 90q217 0 330.5 -87.5t129.5 -229.5h-176q-21 82 -88.5 122t-195.5 40q-125 0 -191.5 -49t-66.5 -125q0 -70 53 -108.5t158 -38.5h161l-33 -154h-189
q-119 0 -185 -47t-66 -125q0 -74 66.5 -116t186.5 -42q125 0 218.5 51t124.5 138h179q-40 -159 -182 -252t-355 -93z" />
    <glyph glyph-name="zetagreek" unicode="&#x3b6;" horiz-adv-x="929" 
d="M659 -361l-130 47q95 119 95 211q0 50 -36 85.5t-124 69.5q-213 81 -305 189.5t-92 274.5q0 232 168.5 431t502.5 388l4 17h-460l33 154h721l8 -164q-380 -180 -588 -385.5t-208 -427.5q0 -112 56 -179.5t204 -127.5q118 -48 181.5 -91.5t87 -87.5t23.5 -107
q0 -81 -33.5 -152t-107.5 -145z" />
    <glyph glyph-name="etagreek" unicode="&#x3b7;" horiz-adv-x="1286" 
d="M768 -360l209 989q11 55 11 95q0 103 -60 160.5t-162 57.5q-117 0 -203.5 -76.5t-116.5 -217.5l-138 -648h-175l172 810q8 40 8 59q0 37 -20.5 52.5t-69.5 15.5q-32 0 -52 -4l31 145q41 10 85 10q90 0 136 -33t59 -112l6 -35h17q123 189 331 189q146 0 240 -91.5
t94 -243.5q0 -48 -16 -124l-213 -998h-173z" />
    <glyph glyph-name="thetagreek" unicode="&#x3b8;" horiz-adv-x="1231" 
d="M539 -19q-202 0 -308.5 132.5t-106.5 383.5q0 123 26 273q65 366 224.5 560.5t394.5 194.5q202 0 307.5 -131t105.5 -382q0 -126 -27 -280q-65 -363 -224 -557t-392 -194zM548 136q156 0 257.5 133t161.5 417h-652q-16 -115 -16 -203q0 -159 62 -253t187 -94zM342 840
h651q12 91 12 172q0 358 -255 358q-293 0 -408 -530z" />
    <glyph glyph-name="iotagreek" unicode="&#x3b9;" horiz-adv-x="591" 
d="M433 1078l-155 -722q-12 -57 -12 -97q0 -116 135 -116q48 0 76 4l-31 -146q-36 -9 -108 -9q-121 0 -189 57.5t-68 160.5q0 44 11 93l167 775h174z" />
    <glyph glyph-name="kappagreek" unicode="&#x3ba;" horiz-adv-x="1116" 
d="M1043 1088q49 0 86 -10l-31 -145q-33 4 -54 4q-36 0 -65 -15.5t-76 -62.5l-209 -206l287 -653h-179l-228 536l-311 -307l-48 -229h-174l228 1078h175l-119 -558h16l399 399q105 105 162.5 137t140.5 32z" />
    <glyph glyph-name="lambdagreek" unicode="&#x3bb;" horiz-adv-x="1100" 
d="M974 141q25 0 49 4l-31 -145q-37 -10 -88 -10q-104 0 -154 51t-66 175l-74 552h-15l-457 -768h-201l636 1018l-15 98q-10 62 -17.5 99.5t-18 69.5t-21 47t-29 26t-38.5 13.5t-53 2.5q-17 0 -46 -4l31 145q39 10 90 10q90 0 140 -32t79.5 -110.5t51.5 -234.5l125 -898
q8 -61 35.5 -85t86.5 -24z" />
    <glyph glyph-name="nugreek" unicode="&#x3bd;" horiz-adv-x="1093" 
d="M1069 1078q5 -26 5 -77q0 -205 -145.5 -447t-434.5 -554h-203l-138 1078h183l92 -920h19q221 248 339 459t118 394q0 41 -6 67h171z" />
    <glyph glyph-name="xigreek" unicode="&#x3be;" horiz-adv-x="939" 
d="M658 -361l-130 47q95 118 95 210q0 50 -35.5 86t-125.5 70q-229 88 -322.5 176.5t-93.5 213.5q0 143 91 230t264 130l3 14q-179 73 -179 238q0 106 63 173.5t188 109.5l3 15h-211l32 154h706l7 -137l-123 -11q-499 -53 -499 -281q0 -95 96 -145.5t266 -50.5h97l-32 -154
h-91q-232 0 -365 -63.5t-133 -190.5q0 -74 61.5 -131t215.5 -120q169 -69 231 -128.5t62 -155.5q0 -83 -31.5 -151t-109.5 -148z" />
    <glyph glyph-name="omicrongreek" unicode="&#x3bf;" horiz-adv-x="1181" 
d="M549 136q98 0 181.5 64t132 173.5t48.5 238.5q0 154 -71.5 242t-197.5 88q-166 0 -268.5 -136.5t-102.5 -357.5q0 -140 76.5 -226t201.5 -86zM658 1097q194 0 315 -123t121 -321q0 -192 -73 -345.5t-202.5 -240t-291.5 -86.5q-194 0 -316 124t-122 322q0 294 159.5 482
t409.5 188z" />
    <glyph glyph-name="pigreek" unicode="&#x3c0;" horiz-adv-x="1391" 
d="M872 291l134 633h-434l-196 -924h-166l196 924h-242l33 154h1215l-33 -154h-207l-135 -638q-11 -55 -11 -74q0 -40 19 -55.5t71 -15.5q33 0 56 4l-31 -145q-39 -10 -103 -10q-185 0 -185 170q0 38 19 131z" />
    <glyph glyph-name="rhogreek" unicode="&#x3c1;" horiz-adv-x="1221" 
d="M588 136q70 0 136 33t118.5 92t84 150.5t31.5 200.5q0 155 -73.5 242.5t-207.5 87.5q-163 0 -268.5 -141t-105.5 -367q0 -142 76 -220t209 -78zM684 1097q209 0 331.5 -132t122.5 -339q0 -180 -72 -328t-197 -232.5t-275 -84.5q-122 0 -212.5 60.5t-118.5 157.5h-16
l-121 -559h-173l199 932q112 525 532 525z" />
    <glyph glyph-name="sigmafinalgreek" unicode="&#x3c2;" horiz-adv-x="1115" 
d="M826 -64q0 -81 -33.5 -152t-107.5 -145l-130 47q95 119 95 211q0 49 -35.5 85t-125.5 70q-212 80 -304 192.5t-92 289.5q0 91 21.5 174.5t67 154.5t110 123t155.5 81.5t199 29.5q95 0 176 -30t134.5 -80t85 -113.5t36.5 -132.5h-174q-19 86 -89 143.5t-175 57.5
q-91 0 -163 -33t-115.5 -90t-66 -127.5t-22.5 -150.5q0 -119 60.5 -190.5t199.5 -128.5q169 -69 231 -129.5t62 -156.5z" />
    <glyph glyph-name="sigmagreek" unicode="&#x3c3;" horiz-adv-x="1265" 
d="M525 -19q-198 0 -317.5 124t-119.5 322q0 133 39 250.5t110.5 207t182 141.5t245.5 52h615l-32 -154h-286l-3 -16q113 -101 113 -283q0 -171 -68 -317.5t-194.5 -236.5t-284.5 -90zM523 136q173 0 274.5 139t101.5 360q0 137 -60.5 212.5t-170.5 75.5q-178 0 -289 -138.5
t-111 -361.5q0 -138 66.5 -212.5t188.5 -74.5z" />
    <glyph glyph-name="taugreek" unicode="&#x3c4;" horiz-adv-x="1046" 
d="M746 147l-31 -146q-39 -9 -117 -9q-117 0 -187.5 56t-70.5 162q0 40 11 93l134 621h-366l33 154h910l-33 -154h-370l-122 -568q-12 -57 -12 -97q0 -116 136 -116q54 0 85 4z" />
    <glyph glyph-name="upsilongreek" unicode="&#x3c5;" horiz-adv-x="1162" 
d="M866 1078h177q28 -112 28 -285q0 -192 -45 -346.5t-125.5 -256t-190 -155.5t-238.5 -54q-178 0 -275 86t-97 242q0 65 14 134l133 635h171l-130 -618q-18 -81 -16 -151q1 -171 208 -171q195 0 304.5 172.5t109.5 479.5q0 166 -28 288z" />
    <glyph glyph-name="phigreek" unicode="&#x3c6;" horiz-adv-x="1486" 
d="M469 -360l74 349q-217 24 -340.5 145t-123.5 311t89 339t248.5 231t361.5 82l53 250h171l-55 -259q212 -22 336 -145t124 -311q0 -187 -89 -336t-248 -232t-359 -83l-72 -341h-170zM573 133l175 821q-221 -5 -356.5 -140t-135.5 -350q0 -137 82 -223t235 -108zM741 123
q223 11 356 144.5t133 347.5q0 134 -82.5 220t-231.5 108z" />
    <glyph glyph-name="chigreek" unicode="&#x3c7;" horiz-adv-x="1114" 
d="M841 -370q-90 0 -137.5 35.5t-72.5 120.5l-120 407h-16l-408 -553h-186l559 734l-136 454q-19 66 -46.5 87.5t-88.5 21.5q-22 0 -45 -4l31 145q41 10 91 10q88 0 134.5 -37t74.5 -130l117 -392h16l399 549h186l-549 -730l134 -458q19 -64 46.5 -86.5t88.5 -22.5
q20 0 45 4l-31 -145q-39 -10 -86 -10z" />
    <glyph glyph-name="psigreek" unicode="&#x3c8;" horiz-adv-x="1469" 
d="M619 -360h-167l72 339q-423 14 -423 325q0 81 20 178l126 596h171l-132 -626q-15 -69 -15 -125q0 -93 68 -138.5t217 -52.5l259 1211h167l-260 -1218q231 8 353.5 173t122.5 480q0 181 -30 296h176q32 -99 32 -304q0 -142 -26 -263t-80.5 -220.5t-135 -170t-193.5 -109
t-251 -38.5z" />
    <glyph glyph-name="omegagreek" unicode="&#x3c9;" horiz-adv-x="1584" 
d="M1471 636q0 -180 -63 -330.5t-172 -237.5t-239 -87q-103 0 -162.5 52.5t-88.5 168.5h-18q-104 -221 -314 -221q-158 0 -242 99.5t-84 287.5q0 190 75 386t197 324h188q-134 -146 -207.5 -333.5t-73.5 -382.5q0 -105 44.5 -164.5t121.5 -59.5q90 0 153 63.5t88 180.5
l84 387h172l-72 -341q-10 -44 -10 -91q0 -94 44.5 -146.5t122.5 -52.5q123 0 200 142t77 371q0 244 -117 427h188q108 -166 108 -442z" />
    <glyph glyph-name="iotadieresisgreek" unicode="&#x3ca;" horiz-adv-x="591" 
d="M433 1078l-155 -722q-12 -57 -12 -97q0 -116 135 -116q48 0 76 4l-31 -146q-36 -9 -108 -9q-121 0 -189 57.5t-68 160.5q0 44 11 93l167 775h174zM197 1286q-49 0 -84.5 35t-35.5 85t35.5 85t84.5 35t84.5 -35t35.5 -85t-35.5 -85t-84.5 -35zM631 1286q-49 0 -84.5 35
t-35.5 85t35.5 85t84.5 35t84.5 -35t35.5 -85t-35.5 -85t-84.5 -35z" />
    <glyph glyph-name="upsilondieresisgreek" unicode="&#x3cb;" horiz-adv-x="1162" 
d="M866 1078h177q28 -112 28 -285q0 -192 -45 -346.5t-125.5 -256t-190 -155.5t-238.5 -54q-178 0 -275 86t-97 242q0 65 14 134l133 635h171l-130 -618q-18 -81 -16 -151q1 -171 208 -171q195 0 304.5 172.5t109.5 479.5q0 166 -28 288zM483 1286q-49 0 -84.5 35t-35.5 85
t35.5 85t84.5 35t84.5 -35t35.5 -85t-35.5 -85t-84.5 -35zM917 1286q-49 0 -84.5 35t-35.5 85t35.5 85t84.5 35t84.5 -35t35.5 -85t-35.5 -85t-84.5 -35z" />
    <glyph glyph-name="omicrontonosgreek" unicode="&#x3cc;" horiz-adv-x="1181" 
d="M549 136q98 0 181.5 64t132 173.5t48.5 238.5q0 154 -71.5 242t-197.5 88q-166 0 -268.5 -136.5t-102.5 -357.5q0 -140 76.5 -226t201.5 -86zM658 1097q194 0 315 -123t121 -321q0 -192 -73 -345.5t-202.5 -240t-291.5 -86.5q-194 0 -316 124t-122 322q0 294 159.5 482
t409.5 188zM620 1228l138 340h193l-179 -340h-152z" />
    <glyph glyph-name="upsilontonosgreek" unicode="&#x3cd;" horiz-adv-x="1162" 
d="M866 1078h177q28 -112 28 -285q0 -192 -45 -346.5t-125.5 -256t-190 -155.5t-238.5 -54q-178 0 -275 86t-97 242q0 65 14 134l133 635h171l-130 -618q-18 -81 -16 -151q1 -171 208 -171q195 0 304.5 172.5t109.5 479.5q0 166 -28 288zM587 1228l138 340h193l-179 -340
h-152z" />
    <glyph glyph-name="omegatonosgreek" unicode="&#x3ce;" horiz-adv-x="1584" 
d="M1471 636q0 -180 -63 -330.5t-172 -237.5t-239 -87q-103 0 -162.5 52.5t-88.5 168.5h-18q-104 -221 -314 -221q-158 0 -242 99.5t-84 287.5q0 190 75 386t197 324h188q-134 -146 -207.5 -333.5t-73.5 -382.5q0 -105 44.5 -164.5t121.5 -59.5q90 0 153 63.5t88 180.5
l84 387h172l-72 -341q-10 -44 -10 -91q0 -94 44.5 -146.5t122.5 -52.5q123 0 200 142t77 371q0 244 -117 427h188q108 -166 108 -442zM821 1228l138 340h193l-179 -340h-152z" />
    <glyph glyph-name="uni0400" unicode="&#x400;" horiz-adv-x="1239" 
d="M1008 162l-34 -162h-896l307 1443h896l-35 -162h-711l-100 -463h675l-34 -160h-674l-106 -496h712zM782 1575l-121 298h203l72 -298h-154z" />
    <glyph glyph-name="Iocyrillic" unicode="&#x401;" horiz-adv-x="1239" 
d="M1008 162l-34 -162h-896l307 1443h896l-35 -162h-711l-100 -463h675l-34 -160h-674l-106 -496h712zM679 1631q-49 0 -84.5 35.5t-35.5 84.5t35.5 84.5t84.5 35.5t84.5 -35.5t35.5 -84.5t-35.5 -84.5t-84.5 -35.5zM1113 1631q-49 0 -84.5 35.5t-35.5 84.5t35.5 84.5
t84.5 35.5t84.5 -35.5t35.5 -84.5t-35.5 -84.5t-84.5 -35.5z" />
    <glyph glyph-name="Djecyrillic" unicode="&#x402;" horiz-adv-x="1725" 
d="M438 0l272 1281h-463l35 162h1110l-35 -162h-463l-110 -520h12q60 64 152 105t198 41q210 0 321 -116t111 -310q0 -214 -147 -355.5t-372 -141.5q-52 0 -92 4.5t-53 9.5l-14 4l35 161q39 -16 124 -16q148 0 241.5 96t93.5 237q0 122 -66 193.5t-202 71.5
q-120 0 -227.5 -64t-162.5 -146l-114 -535h-184z" />
    <glyph glyph-name="Gjecyrillic" unicode="&#x403;" horiz-adv-x="1171" 
d="M263 0h-185l307 1443h868l-35 -162h-683zM921 1575h-154l199 298h203z" />
    <glyph glyph-name="Ecyrillic" unicode="&#x404;" horiz-adv-x="1459" 
d="M1315 402q-69 -202 -235 -319t-387 -117q-199 0 -334 97.5t-184.5 283t5.5 453.5q32 150 97 273.5t159 213.5t220.5 140t272.5 50q134 0 250 -56.5t189 -161.5t76 -236v-15h-183q-7 137 -106.5 220t-248.5 83q-191 0 -334 -134t-202 -358h652l-34 -162h-647
q-26 -245 72 -385t299 -140q145 0 256 76.5t164 193.5h183z" />
    <glyph glyph-name="Dzecyrillic" unicode="&#x405;" horiz-adv-x="1296" 
d="M74 400h182q26 -125 126.5 -198t246.5 -73q149 0 241.5 70.5t92.5 185.5q0 89 -61.5 150t-201.5 110l-137 48q-148 52 -229.5 149t-81.5 221q0 178 145.5 296t363.5 118q206 0 348 -118t158 -302h-181q-28 122 -116.5 189.5t-219.5 67.5q-134 0 -221 -66.5t-87 -168.5
q0 -77 57 -134t175 -100l130 -47q178 -64 264 -160t86 -230q0 -196 -150.5 -319t-389.5 -123q-222 0 -366.5 116t-173.5 318z" />
    <glyph glyph-name="Icyrillic" unicode="&#x406;" horiz-adv-x="570" 
d="M262 0h-184l307 1443h184z" />
    <glyph glyph-name="Yicyrillic" unicode="&#x407;" horiz-adv-x="570" 
d="M262 0h-184l307 1443h184zM324 1631q-50 0 -85 35.5t-35 84.5t35 84.5t85 35.5t85 -35.5t35 -84.5t-35 -84.5t-85 -35.5zM758 1631q-50 0 -85 35.5t-35 84.5t35 84.5t85 35.5t85 -35.5t35 -84.5t-35 -84.5t-85 -35.5z" />
    <glyph glyph-name="Jecyrillic" unicode="&#x408;" horiz-adv-x="1122" 
d="M51 337h181q2 -94 62 -148t161 -54q208 0 265 269l221 1039h179l-228 -1080q-40 -191 -157.5 -294t-301.5 -103q-174 0 -283.5 106.5t-98.5 264.5z" />
    <glyph glyph-name="Ljecyrillic" unicode="&#x409;" horiz-adv-x="2157" 
d="M481 540q-30 -109 -60.5 -189.5t-72 -151t-91 -114.5t-116 -69t-148.5 -25q-41 0 -68 10l34 161q22 -6 53 -6q59 0 105.5 28t81.5 84t60 121t50 158l243 896h871l-110 -515h278q205 0 333 -112.5t128 -298.5q0 -78 -25.5 -153.5t-74.5 -141t-115 -115.5t-153 -78.5
t-182 -28.5h-570l273 1281h-521zM1554 768h-274l-130 -608h333q160 0 270.5 96.5t110.5 233.5q0 139 -83.5 208.5t-226.5 69.5z" />
    <glyph glyph-name="Njecyrillic" unicode="&#x40a;" horiz-adv-x="2177" 
d="M970 0l140 657h-709l-140 -657h-183l307 1443h184l-133 -624h708l133 624h184l-133 -625h301q191 0 311 -99t120 -262q0 -87 -37 -168.5t-102.5 -146t-165 -103.5t-215.5 -39h-570zM1188 160h333q161 0 256 78t95 198q0 110 -75.5 166t-204.5 56h-298z" />
    <glyph glyph-name="Tshecyrillic" unicode="&#x40b;" horiz-adv-x="1812" 
d="M1131 745q-115 0 -223 -59.5t-172 -150.5l-114 -535h-184l272 1281h-463l35 162h1110l-35 -162h-463l-110 -518h16q171 144 366 144q226 0 333 -140.5t56 -379.5l-83 -387h-184l84 395q35 167 -28 258.5t-213 91.5z" />
    <glyph glyph-name="Kjecyrillic" unicode="&#x40c;" horiz-adv-x="1349" 
d="M1210 1873l-248 -298h-154l199 298h203zM1442 1443l-826 -712l550 -731h-210l-501 665h-52l-141 -665h-184l307 1443h184l-135 -634h52l721 634h235z" />
    <glyph glyph-name="uni040D" unicode="&#x40d;" horiz-adv-x="1538" 
d="M1045 0l240 1130h-16l-1009 -1130h-182l307 1443l186 1l-243 -1132h16l1011 1131h182l-307 -1443h-185zM910 1575l-121 298h203l72 -298h-154z" />
    <glyph glyph-name="Ushortcyrillic" unicode="&#x40e;" horiz-adv-x="1333" 
d="M215 -10q-55 0 -77 13l34 162q29 -8 78 -8q83 0 148 35.5t125 115.5l-251 1135h189l189 -929h16l574 929h205l-687 -1071q-65 -101 -118.5 -166t-118 -117t-139 -75.5t-167.5 -23.5zM886 1575q-146 0 -232 79t-85 220l141 -1q0 -82 49.5 -130.5t133.5 -48.5q80 0 137 46
t79 133h147q-26 -137 -124 -217.5t-246 -80.5z" />
    <glyph glyph-name="Dzhecyrillic" unicode="&#x40f;" horiz-adv-x="1517" 
d="M1209 0h-482l-61 -285h-167l61 285h-482l307 1443h180l-272 -1279h768l272 1279h183z" />
    <glyph glyph-name="Acyrillic" unicode="&#x410;" horiz-adv-x="1400" 
d="M839 1207l-362 -641h473l-95 641h-16zM1028 0l-58 413h-579l-232 -413h-193l845 1443h167l226 -1443h-176z" />
    <glyph glyph-name="Becyrillic" unicode="&#x411;" horiz-adv-x="1321" 
d="M648 0h-570l307 1443h855l-35 -162h-670l-88 -413h290q205 0 333 -104t128 -277q0 -92 -40.5 -179.5t-111 -156t-175 -110t-223.5 -41.5zM296 160h333q160 0 270.5 88t110.5 212t-83.5 186t-226.5 62h-287z" />
    <glyph glyph-name="Vecyrillic" unicode="&#x412;" horiz-adv-x="1366" 
d="M668 0h-590l307 1443h501q185 0 295.5 -86.5t110.5 -231.5q0 -136 -85 -236.5t-227 -131.5l-4 -16q116 -20 182.5 -95.5t66.5 -187.5q0 -200 -156.5 -329t-400.5 -129zM534 1284l-98 -463h298q165 0 268 74t103 193q0 196 -288 196h-283zM295 159h367q159 0 265.5 81.5
t106.5 202.5q0 223 -296 223h-335z" />
    <glyph glyph-name="Gecyrillic" unicode="&#x413;" horiz-adv-x="1171" 
d="M263 0h-185l307 1443h868l-35 -162h-683z" />
    <glyph glyph-name="Decyrillic" unicode="&#x414;" horiz-adv-x="1510" 
d="M472 531q-37 -133 -75.5 -215t-101.5 -142l-3 -12h703l238 1119h-555zM91 0l-61 -285h-166l95 447h107q155 78 239 384l244 897h903l-273 -1281h180l-95 -447h-167l61 285h-1067z" />
    <glyph glyph-name="Iecyrillic" unicode="&#x415;" horiz-adv-x="1239" 
d="M1008 162l-34 -162h-896l307 1443h896l-35 -162h-711l-100 -463h675l-34 -160h-674l-106 -496h712z" />
    <glyph glyph-name="Zhecyrillic" unicode="&#x416;" horiz-adv-x="2078" 
d="M941 667l-744 -667h-244l849 765l-458 678h206l420 -637h52l136 637h180l-136 -637h52l692 637h235l-790 -710l504 -733h-210l-460 667h-52l-142 -667h-180l142 667h-52z" />
    <glyph glyph-name="Zecyrillic" unicode="&#x417;" horiz-adv-x="1279" 
d="M447 659l34 162h195q152 0 251 79t99 197q0 104 -64.5 162t-189.5 58t-219 -65t-130 -179h-175q54 191 201 297.5t346 106.5q197 0 309 -102.5t112 -259.5q0 -143 -90.5 -241.5t-246.5 -125.5l-4 -16q121 -25 188 -103.5t67 -203.5q0 -131 -71.5 -236.5t-193.5 -164
t-269 -58.5q-125 0 -223 32.5t-159.5 89.5t-95 131t-37.5 161h174q5 -109 90 -182.5t245 -73.5q152 0 252 81t100 211q0 117 -78.5 180t-227.5 63h-189z" />
    <glyph glyph-name="Iicyrillic" unicode="&#x418;" horiz-adv-x="1538" 
d="M1045 0l240 1130h-16l-1009 -1130h-182l307 1443l186 1l-243 -1132h16l1011 1131h182l-307 -1443h-185z" />
    <glyph glyph-name="Iishortcyrillic" unicode="&#x419;" horiz-adv-x="1538" 
d="M1045 0l240 1130h-16l-1009 -1130h-182l307 1443l186 1l-243 -1132h16l1011 1131h182l-307 -1443h-185zM994 1575q-146 0 -232 79t-85 220l141 -1q0 -82 49.5 -130.5t133.5 -48.5q80 0 137 46t79 133h147q-26 -137 -124 -217.5t-246 -80.5z" />
    <glyph glyph-name="Kacyrillic" unicode="&#x41a;" horiz-adv-x="1349" 
d="M1442 1443l-826 -712l550 -731h-210l-501 665h-52l-141 -665h-184l307 1443h184l-135 -634h52l721 634h235z" />
    <glyph glyph-name="Elcyrillic" unicode="&#x41b;" horiz-adv-x="1434" 
d="M1126 0h-185l272 1281h-529l-203 -741q-30 -109 -60.5 -189.5t-72 -151t-91 -114.5t-116 -69t-148.5 -25q-41 0 -68 10l34 161q22 -6 53 -6q59 0 105.5 28t81.5 84t60 121t50 158l243 896h881z" />
    <glyph glyph-name="Emcyrillic" unicode="&#x41c;" horiz-adv-x="1812" 
d="M250 0h-172l307 1443h200l238 -1204h16l750 1204h222l-307 -1443h-172l234 1102h-12l-689 -1102h-152l-217 1102h-12z" />
    <glyph glyph-name="Encyrillic" unicode="&#x41d;" horiz-adv-x="1542" 
d="M1234 0h-185l140 657h-788l-140 -657h-183l307 1443h184l-133 -624h788l133 624h184z" />
    <glyph glyph-name="Ocyrillic" unicode="&#x41e;" horiz-adv-x="1599" 
d="M923 1310q-162 0 -294.5 -95.5t-207.5 -263t-75 -372.5q0 -200 113 -323t297 -123q163 0 294 94t205 261t74 376q0 199 -112.5 322.5t-293.5 123.5zM742 -34q-253 0 -419.5 169.5t-166.5 427.5q0 194 59.5 364t162.5 290.5t248 190t311 69.5t299.5 -77t208 -213.5
t74.5 -306.5q0 -261 -100 -470t-277.5 -326.5t-399.5 -117.5z" />
    <glyph glyph-name="Pecyrillic" unicode="&#x41f;" horiz-adv-x="1517" 
d="M1209 0h-180l272 1279h-768l-272 -1279h-183l307 1443h1131z" />
    <glyph glyph-name="Ercyrillic" unicode="&#x420;" horiz-adv-x="1324" 
d="M385 1443h507q177 0 295.5 -107.5t118.5 -282.5q0 -124 -44.5 -226t-122.5 -170t-183 -105t-225 -37h-360l-109 -515h-184zM535 1283l-130 -608h315q182 0 290 95.5t108 266.5q0 116 -78 181t-211 65h-294z" />
    <glyph glyph-name="Escyrillic" unicode="&#x421;" horiz-adv-x="1483" 
d="M1279 992v2q-11 145 -113 230.5t-263 85.5q-155 0 -283.5 -97t-202.5 -266t-74 -374q0 -203 106 -321.5t287 -118.5q146 0 258 67.5t151 179.5h190q-54 -193 -219 -303.5t-400 -110.5q-252 0 -406 161.5t-154 426.5q0 197 58 368.5t158.5 293t241.5 191.5t303 70
q235 0 390 -136.5t155 -342.5v-6h-183z" />
    <glyph glyph-name="Tecyrillic" unicode="&#x422;" horiz-adv-x="1311" 
d="M633 0h-184l272 1281h-463l34 162h1110l-34 -162h-463z" />
    <glyph glyph-name="Ucyrillic" unicode="&#x423;" horiz-adv-x="1333" 
d="M215 -10q-55 0 -77 13l34 162q29 -8 78 -8q83 0 148 35.5t125 115.5l-251 1135h189l189 -929h16l574 929h205l-687 -1071q-65 -101 -118.5 -166t-118 -117t-139 -75.5t-167.5 -23.5z" />
    <glyph glyph-name="Efcyrillic" unicode="&#x424;" horiz-adv-x="1700" 
d="M820 -20h-178l32 151q-243 10 -383 142t-140 350q0 192 100 350t277.5 250.5t398.5 98.5l30 141h178l-30 -141q243 -10 383 -142t140 -350q0 -192 -100 -350t-277.5 -250.5t-398.5 -98.5zM334 627q0 -151 99.5 -240.5t274.5 -94.5l185 869q-242 -10 -400.5 -161.5
t-158.5 -372.5zM1445 826q0 151 -99.5 240.5t-274.5 94.5l-185 -869q242 10 400.5 161.5t158.5 372.5z" />
    <glyph glyph-name="Xacyrillic" unicode="&#x425;" horiz-adv-x="1409" 
d="M-15 0l655 752l-323 691h206l249 -574h16l508 574h205l-649 -727l332 -716h-194l-268 586h-16l-517 -586h-204z" />
    <glyph glyph-name="Tsecyrillic" unicode="&#x426;" horiz-adv-x="1576" 
d="M1330 -285h-167l61 285h-1146l309 1443h180l-273 -1281h768l273 1281h183l-273 -1281h180z" />
    <glyph glyph-name="Checyrillic" unicode="&#x427;" horiz-adv-x="1419" 
d="M1111 0h-185l133 626h-15q-138 -90 -356 -90q-129 0 -226.5 41.5t-150 114.5t-71.5 172t8 214l78 365h180l-78 -365q-35 -166 32 -271t232 -105q256 0 408 116l133 625h185z" />
    <glyph glyph-name="Shacyrillic" unicode="&#x428;" horiz-adv-x="1974" 
d="M78 0l307 1443h184l-273 -1281h518l273 1281h184l-273 -1281h518l273 1281h184l-307 -1443h-1588z" />
    <glyph glyph-name="Shchacyrillic" unicode="&#x429;" horiz-adv-x="2017" 
d="M1973 1443l-273 -1281h181l-106 -447h-167l68 285h-10h-185h-1403l307 1443h184l-273 -1281h518l273 1281h184l-273 -1281h518l273 1281h184z" />
    <glyph glyph-name="Hardsigncyrillic" unicode="&#x42a;" horiz-adv-x="1529" 
d="M874 0h-570l273 1281h-330l35 162h513l-110 -515h278q205 0 333 -112.5t128 -298.5q0 -78 -25.5 -153.5t-74.5 -141t-115 -115.5t-153 -78.5t-182 -28.5zM926 768h-274l-130 -608h333q160 0 270.5 96.5t110.5 233.5q0 139 -83.5 208.5t-226.5 69.5z" />
    <glyph glyph-name="Yericyrillic" unicode="&#x42b;" horiz-adv-x="1783" 
d="M700 768h-274l-130 -608h333q160 0 270.5 96.5t110.5 233.5q0 139 -83.5 208.5t-226.5 69.5zM78 0l307 1443h184l-110 -515h278q205 0 333 -112.5t128 -298.5q0 -78 -25.5 -153.5t-74.5 -141t-115 -115.5t-153 -78.5t-182 -28.5h-570zM1475 0h-184l307 1443h184z" />
    <glyph glyph-name="Softsigncyrillic" unicode="&#x42c;" horiz-adv-x="1303" 
d="M700 768h-274l-130 -608h333q160 0 270.5 96.5t110.5 233.5q0 139 -83.5 208.5t-226.5 69.5zM78 0l307 1443h184l-110 -515h278q205 0 333 -112.5t128 -298.5q0 -78 -25.5 -153.5t-74.5 -141t-115 -115.5t-153 -78.5t-182 -28.5h-570z" />
    <glyph glyph-name="Ereversedcyrillic" unicode="&#x42d;" horiz-adv-x="1469" 
d="M617 -34q-130 0 -243 52.5t-187.5 153.5t-83.5 230h185q18 -124 115 -197t237 -73q198 0 344.5 144t199.5 381h-650l34 162h640q17 231 -82 361.5t-292 130.5q-152 0 -267.5 -84.5t-168.5 -218.5h-183q68 224 238 346.5t400 122.5q199 0 334 -97.5t184.5 -283
t-5.5 -453.5q-32 -150 -97 -273.5t-159 -213.5t-220.5 -140t-272.5 -50z" />
    <glyph glyph-name="IUcyrillic" unicode="&#x42e;" horiz-adv-x="2090" 
d="M1264 132q155 0 285 100t203.5 267.5t73.5 362.5q0 207 -112.5 327.5t-285.5 120.5q-158 0 -287.5 -93.5t-203.5 -258t-74 -364.5q0 -216 113 -339t288 -123zM436 819h267q32 143 99 263.5t161 208.5t217.5 137t261.5 49q155 0 285.5 -73.5t208 -208.5t77.5 -304
q0 -183 -55.5 -351t-152 -295t-238 -203t-303.5 -76q-166 0 -298 69t-211 206.5t-79 323.5q0 47 3 92h-278l-140 -657h-183l307 1443h184z" />
    <glyph glyph-name="IAcyrillic" unicode="&#x42f;" horiz-adv-x="1359" 
d="M736 695h279l125 588h-333q-160 0 -270.5 -93.5t-110.5 -226.5q0 -134 83.5 -201t226.5 -67zM718 535l-497 -535h-236l525 564q-127 43 -199.5 140t-72.5 232q0 95 40.5 186.5t111 162.5t175 114.5t223.5 43.5h570l-307 -1443h-184l114 535h-263z" />
    <glyph glyph-name="acyrillic" unicode="&#x430;" horiz-adv-x="1146" 
d="M445 130q121 0 214 71.5t117 181.5l27 124l-287 -14q-132 -7 -205 -58.5t-73 -136.5q0 -74 58 -121t149 -47zM391 -19q-141 0 -235.5 86t-94.5 212q0 159 120.5 251t344.5 102l306 14l16 73q6 33 6 51q0 82 -61 127.5t-170 45.5q-91 0 -152 -35t-87 -100h-182
q36 133 153.5 211t281.5 78q178 0 285 -82.5t107 -219.5q0 -43 -9 -88l-150 -707h-167l30 141h-16q-57 -75 -143 -117.5t-183 -42.5z" />
    <glyph glyph-name="becyrillic" unicode="&#x431;" horiz-adv-x="1232" 
d="M660 902q-170 0 -272.5 -131t-102.5 -331q0 -141 75 -222.5t207 -81.5q148 0 256 127.5t108 308.5q0 157 -71 243.5t-200 86.5zM806 1448l133 6q76 4 149.5 18.5t107.5 26t36 13.5l-32 -154q-8 -6 -26 -15.5t-92 -27t-169 -21.5l-135 -6q-78 -4 -140.5 -25.5t-107 -55.5
t-82.5 -87.5t-63.5 -109t-52.5 -132.5h16q133 179 344 179q191 0 307 -125.5t116 -318.5q0 -102 -23 -195t-70 -172.5t-114 -138.5t-160 -92.5t-203 -33.5q-195 0 -316 124.5t-121 323.5q0 157 70 397q29 99 59 176t69 148.5t86.5 122t107.5 90t136.5 60.5t169.5 25z" />
    <glyph glyph-name="vecyrillic" unicode="&#x432;" horiz-adv-x="1123" 
d="M55 0l229 1078h416q147 0 229 -65.5t82 -180.5q0 -100 -65.5 -172.5t-171.5 -92.5l-3 -16q98 -17 148.5 -71t50.5 -137q0 -149 -122 -246t-329 -97h-464zM583 478h-251l-70 -334h284q111 0 177 53t66 141q0 73 -51 106.5t-155 33.5zM671 934h-241l-67 -312h232
q113 0 174.5 54.5t61.5 133.5q0 124 -160 124z" />
    <glyph glyph-name="gecyrillic" unicode="&#x433;" horiz-adv-x="935" 
d="M929 934h-499l-199 -934h-176l229 1078h675z" />
    <glyph glyph-name="decyrillic" unicode="&#x434;" horiz-adv-x="1267" 
d="M780 144l168 790h-415l-132 -461q-64 -224 -153 -313l-3 -16h535zM21 -285h-162l92 429h90q56 36 110.5 127t87.5 206l170 601h745l-198 -934h172l-92 -429h-162l61 285h-853z" />
    <glyph glyph-name="iecyrillic" unicode="&#x435;" horiz-adv-x="1196" 
d="M316 638h585q2 12 2 45q0 112 -64.5 187t-181.5 75q-122 0 -212.5 -83t-128.5 -224zM550 -19q-188 0 -313 120t-125 331q0 297 156.5 481t404.5 184q174 0 291.5 -116.5t118.5 -319.5q0 -86 -13 -162h-777q-2 -36 -2 -54q0 -80 23.5 -141t63 -96t86 -52.5t97.5 -17.5
q197 0 271 137h183q-34 -129 -158 -211.5t-307 -82.5z" />
    <glyph glyph-name="zhecyrillic" unicode="&#x436;" horiz-adv-x="1581" 
d="M1642 1078l-564 -525l358 -553h-196l-317 494h-57l-105 -494h-173l105 494h-64l-492 -494h-222l586 585l-303 493h184l275 -454h64l96 454h173l-96 -454h58l473 454h217z" />
    <glyph glyph-name="zecyrillic" unicode="&#x437;" horiz-adv-x="1067" 
d="M917 342q0 -155 -134 -258t-330 -103q-183 0 -293 95.5t-111 253.5h171q2 -85 68.5 -140t175.5 -55q124 0 198 56t74 140q0 71 -53 110.5t-160 39.5h-157l34 144h163q94 0 157.5 47.5t63.5 119.5t-51 111.5t-147 39.5q-99 0 -167 -46t-96 -138h-177q41 172 161.5 255
t298.5 83q153 0 256 -79.5t103 -202.5q0 -96 -60.5 -165t-153.5 -87l-4 -16q170 -40 170 -205z" />
    <glyph glyph-name="iicyrillic" unicode="&#x438;" horiz-adv-x="1237" 
d="M232 0h-177l229 1078h176l-172 -805h16l701 805h176l-229 -1078h-176l172 807h-16z" />
    <glyph glyph-name="iishortcyrillic" unicode="&#x439;" horiz-adv-x="1237" 
d="M232 0h-177l229 1078h176l-172 -805h16l701 805h176l-229 -1078h-176l172 807h-16zM777 1228q-85 0 -149.5 27.5t-100.5 74t-52 101.5t-11 115h144q-7 -82 34.5 -140.5t141.5 -58.5q90 0 143.5 51.5t67.5 147.5h149q-14 -145 -113.5 -231.5t-253.5 -86.5z" />
    <glyph glyph-name="kacyrillic" unicode="&#x43a;" horiz-adv-x="1061" 
d="M1119 1078l-576 -519l373 -559h-205l-323 491h-53l-104 -491h-176l229 1078h176l-96 -451h53l483 451h219z" />
    <glyph glyph-name="elcyrillic" unicode="&#x43b;" horiz-adv-x="1183" 
d="M416 473q-79 -275 -169.5 -378.5t-250.5 -103.5q-36 0 -61 11l34 158q21 -8 52 -8q73 0 128.5 78.5t102.5 246.5l170 601h705l-229 -1078h-176l199 934h-373z" />
    <glyph glyph-name="emcyrillic" unicode="&#x43c;" horiz-adv-x="1542" 
d="M227 0h-172l229 1078h209l208 -836h16l565 836h204l-229 -1078h-176l163 767h-19l-498 -737h-134l-184 737h-19z" />
    <glyph glyph-name="encyrillic" unicode="&#x43d;" horiz-adv-x="1212" 
d="M55 0l229 1078h176l-95 -446h520l95 446h176l-229 -1078h-176l104 488h-520l-104 -488h-176z" />
    <glyph glyph-name="ocyrillic" unicode="&#x43e;" horiz-adv-x="1232" 
d="M573 136q99 0 183 64t132.5 173.5t48.5 238.5q0 154 -72 242t-199 88q-167 0 -270 -136.5t-103 -357.5q0 -140 77 -226t203 -86zM682 1097q196 0 317.5 -123t121.5 -321q0 -191 -73.5 -345t-204 -240.5t-292.5 -86.5q-196 0 -318.5 124t-122.5 322q0 294 160.5 482
t411.5 188z" />
    <glyph glyph-name="pecyrillic" unicode="&#x43f;" horiz-adv-x="1202" 
d="M741 0l199 934h-510l-199 -934h-176l229 1078h862l-229 -1078h-176z" />
    <glyph glyph-name="ercyrillic" unicode="&#x440;" horiz-adv-x="1274" 
d="M603 136q165 0 275 148t110 370q0 136 -68.5 212t-190.5 76q-167 0 -282 -147t-115 -361q0 -137 73 -217.5t198 -80.5zM156 -360h-173l306 1438h166l-31 -147h16q59 77 150.5 121.5t193.5 44.5q164 0 274 -118.5t110 -298.5q0 -194 -72.5 -354.5t-199.5 -252.5t-280 -92
q-116 0 -205 60.5t-118 157.5h-16z" />
    <glyph glyph-name="escyrillic" unicode="&#x441;" horiz-adv-x="1155" 
d="M680 1097q159 0 273.5 -84.5t139.5 -217.5q3 -15 5 -47h-176q-8 84 -80.5 139t-175.5 55q-160 0 -267 -138t-107 -343q0 -150 72.5 -236.5t197.5 -86.5q100 0 172 44.5t103 125.5h179q-33 -147 -162 -237t-307 -90q-197 0 -316.5 125t-119.5 332q0 187 73 337.5
t203.5 236t292.5 85.5z" />
    <glyph glyph-name="tecyrillic" unicode="&#x442;" horiz-adv-x="962" 
d="M1026 1078l-30 -144h-343l-199 -934h-176l199 934h-343l30 144h862z" />
    <glyph glyph-name="ucyrillic" unicode="&#x443;" horiz-adv-x="1132" 
d="M113 -392q-63 0 -124 16l30 143q43 -13 104 -13q56 0 103.5 40.5t101.5 140.5l39 73l-175 1070h171l128 -857h16l472 857h189l-686 -1196q-91 -159 -172.5 -216.5t-196.5 -57.5z" />
    <glyph glyph-name="efcyrillic" unicode="&#x444;" horiz-adv-x="1559" 
d="M674 -360h-172l73 341q-204 8 -334.5 132.5t-130.5 326.5q0 136 47.5 254.5t135 207.5t221.5 141.5t298 53.5l74 346h172l-74 -346q204 -8 334.5 -132.5t130.5 -326.5q0 -136 -47.5 -254.5t-135 -207.5t-221.5 -141.5t-298 -53.5zM1269 616q0 153 -85.5 239.5
t-231.5 90.5l-173 -814q227 9 358.5 146.5t131.5 337.5zM290 462q0 -153 85.5 -239.5t231.5 -90.5l173 814q-227 -9 -358.5 -146.5t-131.5 -337.5z" />
    <glyph glyph-name="hacyrillic" unicode="&#x445;" horiz-adv-x="1099" 
d="M533 405h-16l-339 -405h-205l484 548l-258 530h188l179 -401h16l337 401h205l-481 -539l256 -539h-181z" />
    <glyph glyph-name="tsecyrillic" unicode="&#x446;" horiz-adv-x="1259" 
d="M1028 -285h-162l61 285h-872l229 1078h176l-199 -934h510l199 934h176l-199 -934h172z" />
    <glyph glyph-name="checyrillic" unicode="&#x447;" horiz-adv-x="1137" 
d="M852 0h-176l94 440l-16 1q-84 -57 -243 -57q-189 0 -275.5 110t-47.5 294l61 290h176l-63 -296q-25 -118 20 -181.5t162 -63.5q180 0 264 84l97 457h176z" />
    <glyph glyph-name="shacyrillic" unicode="&#x448;" horiz-adv-x="1672" 
d="M55 0l229 1078h177l-198 -934h401l198 934h176l-198 -934h402l198 934h176l-229 -1078h-1332z" />
    <glyph glyph-name="shchacyrillic" unicode="&#x449;" horiz-adv-x="1724" 
d="M1616 1078l-198 -934h167l-102 -429h-167l68 285h-173h-1156l229 1078h177l-198 -934h401l198 934h176l-198 -934h402l198 934h176z" />
    <glyph glyph-name="hardsigncyrillic" unicode="&#x44a;" horiz-adv-x="1228" 
d="M611 0h-389l198 934h-286l30 144h463l-73 -346h213q156 0 246.5 -81.5t90.5 -210.5q0 -193 -135.5 -316.5t-357.5 -123.5zM736 588h-213l-94 -444h213q128 0 207 80.5t79 195.5q0 78 -51 123t-141 45z" />
    <glyph glyph-name="yericyrillic" unicode="&#x44b;" horiz-adv-x="1466" 
d="M1005 0l229 1078h176l-229 -1078h-176zM565 588h-209l-94 -444h209q128 0 207 80.5t79 195.5q0 78 -51 123t-141 45zM55 0l229 1078h176l-73 -346h209q156 0 246.5 -81.5t90.5 -210.5q0 -193 -135.5 -316.5t-357.5 -123.5h-385z" />
    <glyph glyph-name="softsigncyrillic" unicode="&#x44c;" horiz-adv-x="1057" 
d="M565 588h-209l-94 -444h209q128 0 207 80.5t79 195.5q0 78 -51 123t-141 45zM55 0l229 1078h176l-73 -346h209q156 0 246.5 -81.5t90.5 -210.5q0 -193 -135.5 -316.5t-357.5 -123.5h-385z" />
    <glyph glyph-name="ereversedcyrillic" unicode="&#x44d;" horiz-adv-x="1168" 
d="M133 748q57 161 183.5 255t303.5 94q196 0 316 -121.5t120 -324.5q0 -137 -39 -258.5t-111 -213t-181 -145t-241 -53.5q-190 0 -297.5 99t-113.5 245h174q8 -82 74 -135.5t168 -53.5q146 0 243.5 95t127.5 254h-474l31 144h458q2 144 -72 228.5t-205 84.5q-98 0 -172 -50
t-119 -144h-174z" />
    <glyph glyph-name="iucyrillic" unicode="&#x44e;" horiz-adv-x="1667" 
d="M991 -19q-194 0 -315 124.5t-121 321.5q0 21 2 61h-222l-104 -488h-176l229 1078h176l-95 -446h214q50 208 192.5 336.5t350.5 128.5q195 0 314.5 -124t119.5 -320q0 -105 -24 -204t-72 -184t-114.5 -148.5t-158 -99.5t-196.5 -36zM1013 136q143 0 251 136t108 340
q0 154 -71 242t-195 88q-112 0 -197 -67t-129 -180.5t-44 -254.5q0 -136 74.5 -220t202.5 -84z" />
    <glyph glyph-name="iacyrillic" unicode="&#x44f;" horiz-adv-x="1091" 
d="M540 530h203l86 404h-203q-124 0 -202.5 -68t-78.5 -167q0 -79 51.5 -124t143.5 -45zM630 0l82 386h-169l-356 -386h-222l392 420q-88 32 -138 102.5t-50 165.5q0 165 129.5 277.5t357.5 112.5h379l-229 -1078h-176z" />
    <glyph glyph-name="uni0450" unicode="&#x450;" horiz-adv-x="1196" 
d="M316 638h585q2 12 2 45q0 112 -64.5 187t-181.5 75q-122 0 -212.5 -83t-128.5 -224zM550 -19q-188 0 -313 120t-125 331q0 297 156.5 481t404.5 184q174 0 291.5 -116.5t118.5 -319.5q0 -86 -13 -162h-777q-2 -36 -2 -54q0 -80 23.5 -141t63 -96t86 -52.5t97.5 -17.5
q197 0 271 137h183q-34 -129 -158 -211.5t-307 -82.5zM633 1228l-139 340h210l83 -340h-154z" />
    <glyph glyph-name="iocyrillic" unicode="&#x451;" horiz-adv-x="1196" 
d="M316 638h585q2 12 2 45q0 112 -64.5 187t-181.5 75q-122 0 -212.5 -83t-128.5 -224zM550 -19q-188 0 -313 120t-125 331q0 297 156.5 481t404.5 184q174 0 291.5 -116.5t118.5 -319.5q0 -86 -13 -162h-777q-2 -36 -2 -54q0 -80 23.5 -141t63 -96t86 -52.5t97.5 -17.5
q197 0 271 137h183q-34 -129 -158 -211.5t-307 -82.5zM522 1286q-50 0 -85 35t-35 85t35 85t85 35t85 -35t35 -85t-35 -85t-85 -35zM956 1286q-50 0 -85 35t-35 85t35 85t85 35t85 -35t35 -85t-35 -85t-85 -35z" />
    <glyph glyph-name="djecyrillic" unicode="&#x452;" horiz-adv-x="1236" 
d="M435 917h16q58 84 133.5 132t189.5 48q153 0 244.5 -95t91.5 -229q0 -56 -14 -124l-138 -649l-3 -15q-38 -191 -123.5 -273t-239.5 -82q-65 0 -85 5l35 152q11 -4 45 -4q80 0 124 46.5t68 156.5l3 14h1l132 619q13 63 13 105q0 100 -59 159t-168 59q-124 0 -209 -79
t-112 -205l-140 -658h-175l273 1277h-144l31 144h144l18 85h175l-18 -85h261l-31 -144h-261z" />
    <glyph glyph-name="gjecyrillic" unicode="&#x453;" horiz-adv-x="935" 
d="M929 934h-499l-199 -934h-176l229 1078h675zM714 1228h-154l227 340h210z" />
    <glyph glyph-name="ecyrillic" unicode="&#x454;" horiz-adv-x="1169" 
d="M1034 325q-66 -157 -187.5 -250.5t-286.5 -93.5q-222 0 -333.5 129.5t-111.5 359.5q0 119 39 231t110 200t179.5 141t236.5 53q89 0 167 -30t130.5 -79.5t85 -111.5t37.5 -126h-175q-13 79 -85 136t-164 57q-138 0 -234 -86t-129 -223h477l-30 -144h-466
q-3 -167 66 -259.5t207 -92.5q96 0 167 51t114 138h186z" />
    <glyph glyph-name="dzecyrillic" unicode="&#x455;" horiz-adv-x="1072" 
d="M182 775q0 143 114.5 232.5t289.5 89.5q169 0 276 -80t129 -215h-171q-17 70 -80 109.5t-157 39.5q-99 0 -163.5 -45t-64.5 -115q0 -97 151 -146l146 -47q135 -43 196 -112.5t61 -178.5q0 -142 -123 -234t-311 -92q-177 0 -293.5 85t-128.5 223h177q21 -73 87.5 -118
t165.5 -45q109 0 179 47t70 121q0 103 -135 146l-165 53q-127 41 -188.5 108.5t-61.5 173.5z" />
    <glyph glyph-name="icyrillic" unicode="&#x456;" horiz-adv-x="536" 
d="M67 0l229 1078h172l-229 -1078h-172zM448 1286q-50 0 -85 35t-35 85t35 85t85 35t85 -35t35 -85t-35 -85t-85 -35z" />
    <glyph glyph-name="yicyrillic" unicode="&#x457;" horiz-adv-x="536" 
d="M67 0l229 1078h172l-229 -1078h-172zM329 1298q-44 0 -76 32t-32 76q0 45 32 76.5t76 31.5t76 -31.5t32 -76.5q0 -44 -32 -76t-76 -32zM597 1298q-44 0 -76 32t-32 76q0 45 32 76.5t76 31.5t76 -31.5t32 -76.5q0 -44 -32 -76t-76 -32z" />
    <glyph glyph-name="jecyrillic" unicode="&#x458;" horiz-adv-x="536" 
d="M469 1078l-246 -1157q-32 -151 -115.5 -221t-229.5 -70q-52 0 -85 5l35 152q23 -4 55 -4q76 0 115 36t58 125l241 1134h172zM449 1286q-49 0 -84.5 35t-35.5 85t35.5 85t84.5 35t84.5 -35t35.5 -85t-35.5 -85t-84.5 -35z" />
    <glyph glyph-name="ljecyrillic" unicode="&#x459;" horiz-adv-x="1713" 
d="M-4 -9q-36 0 -61 11l34 158q21 -8 52 -8q73 0 128.5 78.5t102.5 246.5l170 601h705l-74 -346h199q156 0 246.5 -81.5t90.5 -210.5q0 -193 -135.5 -316.5t-357.5 -123.5h-375l198 934h-371l-132 -461q-79 -275 -169.5 -378.5t-250.5 -103.5zM1221 588h-198l-94 -444h198
q128 0 207 80.5t79 195.5q0 78 -51 123t-141 45z" />
    <glyph glyph-name="njecyrillic" unicode="&#x45a;" horiz-adv-x="1743" 
d="M958 144h199q122 0 199 63.5t77 147.5q0 74 -47.5 113.5t-134.5 39.5h-216zM231 0h-176l229 1078h176l-90 -426h520l90 426h176l-90 -426h216q151 0 239 -77t88 -194q0 -165 -133 -273t-350 -108h-375l108 508h-520z" />
    <glyph glyph-name="tshecyrillic" unicode="&#x45b;" horiz-adv-x="1236" 
d="M435 917h16q58 84 133.5 132t189.5 48q153 0 244.5 -95t91.5 -229q0 -56 -14 -124l-138 -649h-175l132 619q13 63 13 105q0 100 -59 159t-168 59q-124 0 -209 -79t-112 -205l-140 -658h-175l273 1277h-144l31 144h144l18 85h175l-18 -85h261l-31 -144h-261z" />
    <glyph glyph-name="kjecyrillic" unicode="&#x45c;" horiz-adv-x="1061" 
d="M1052 1568l-283 -340h-154l227 340h210zM1119 1078l-576 -519l373 -559h-205l-323 491h-53l-104 -491h-176l229 1078h176l-96 -451h53l483 451h219z" />
    <glyph glyph-name="uni045D" unicode="&#x45d;" horiz-adv-x="1237" 
d="M232 0h-177l229 1078h176l-172 -805h16l701 805h176l-229 -1078h-176l172 807h-16zM685 1228l-139 340h210l83 -340h-154z" />
    </font>
</defs>
</svg>
